NotoSerifSinhala-Condensed.ufo
<glyph name="exclam.sinh" format="2">
  <advance width="274"/>
  <unicode hex="0021"/>
  <outline>
    <contour>
      <point x="85" y="714" type="line"/>
      <point x="112" y="198" type="line"/>
      <point x="161" y="198" type="line"/>
      <point x="188" y="714" type="line"/>
    </contour>
    <contour>
      <point x="138" y="-7" type="curve" smooth="yes"/>
      <point x="166" y="-7"/>
      <point x="191" y="8"/>
      <point x="191" y="57" type="curve" smooth="yes"/>
      <point x="191" y="106"/>
      <point x="166" y="121"/>
      <point x="138" y="121" type="curve" smooth="yes"/>
      <point x="108" y="121"/>
      <point x="84" y="106"/>
      <point x="84" y="57" type="curve" smooth="yes"/>
      <point x="84" y="8"/>
      <point x="108" y="-7"/>
    </contour>
  </outline>
</glyph>
<glyph name="quotedbl.sinh" format="2">
  <advance width="375"/>
  <unicode hex="0022"/>
  <outline>
    <contour>
      <point x="213" y="799" type="line"/>
      <point x="245" y="568" type="line"/>
      <point x="290" y="568" type="line"/>
      <point x="317" y="799" type="line"/>
    </contour>
    <contour>
      <point x="58" y="799" type="line"/>
      <point x="89" y="568" type="line"/>
      <point x="133" y="568" type="line"/>
      <point x="163" y="799" type="line"/>
    </contour>
  </outline>
</glyph>
<glyph name="numbersign.sinh" format="2">
  <advance width="497"/>
  <unicode hex="0023"/>
  <outline>
    <contour>
      <point x="103" y="208" type="line"/>
      <point x="64" y="0" type="line"/>
      <point x="119" y="0" type="line"/>
      <point x="158" y="208" type="line"/>
      <point x="277" y="208" type="line"/>
      <point x="238" y="0" type="line"/>
      <point x="293" y="0" type="line"/>
      <point x="332" y="208" type="line"/>
      <point x="438" y="208" type="line"/>
      <point x="438" y="259" type="line"/>
      <point x="342" y="259" type="line"/>
      <point x="380" y="460" type="line"/>
      <point x="470" y="460" type="line"/>
      <point x="470" y="513" type="line"/>
      <point x="390" y="513" type="line"/>
      <point x="428" y="714" type="line"/>
      <point x="372" y="714" type="line"/>
      <point x="335" y="513" type="line"/>
      <point x="216" y="513" type="line"/>
      <point x="254" y="714" type="line"/>
      <point x="198" y="714" type="line"/>
      <point x="161" y="513" type="line"/>
      <point x="59" y="513" type="line"/>
      <point x="59" y="460" type="line"/>
      <point x="150" y="460" type="line"/>
      <point x="113" y="259" type="line"/>
      <point x="27" y="259" type="line"/>
      <point x="27" y="208" type="line"/>
    </contour>
    <contour>
      <point x="287" y="259" type="line"/>
      <point x="168" y="259" type="line"/>
      <point x="206" y="460" type="line"/>
      <point x="325" y="460" type="line"/>
    </contour>
  </outline>
</glyph>
<glyph name="percent.sinh" format="2">
  <advance width="739"/>
  <unicode hex="0025"/>
  <outline>
    <contour>
      <point x="479" y="714" type="line"/>
      <point x="199" y="0" type="line"/>
      <point x="258" y="0" type="line"/>
      <point x="537" y="714" type="line"/>
    </contour>
    <contour>
      <point x="178" y="280" type="curve" smooth="yes"/>
      <point x="270" y="280"/>
      <point x="315" y="369"/>
      <point x="315" y="503" type="curve" smooth="yes"/>
      <point x="315" y="637"/>
      <point x="270" y="724"/>
      <point x="179" y="724" type="curve" smooth="yes"/>
      <point x="82" y="724"/>
      <point x="42" y="637"/>
      <point x="42" y="503" type="curve" smooth="yes"/>
      <point x="42" y="369"/>
      <point x="82" y="280"/>
    </contour>
    <contour>
      <point x="178" y="318" type="curve" smooth="yes"/>
      <point x="131" y="318"/>
      <point x="116" y="383"/>
      <point x="116" y="503" type="curve" smooth="yes"/>
      <point x="116" y="621"/>
      <point x="131" y="685"/>
      <point x="179" y="685" type="curve" smooth="yes"/>
      <point x="225" y="685"/>
      <point x="240" y="621"/>
      <point x="240" y="503" type="curve" smooth="yes"/>
      <point x="240" y="383"/>
      <point x="225" y="318"/>
    </contour>
    <contour>
      <point x="560" y="-10" type="curve" smooth="yes"/>
      <point x="652" y="-10"/>
      <point x="697" y="79"/>
      <point x="697" y="213" type="curve" smooth="yes"/>
      <point x="697" y="347"/>
      <point x="652" y="434"/>
      <point x="561" y="434" type="curve" smooth="yes"/>
      <point x="465" y="434"/>
      <point x="424" y="347"/>
      <point x="424" y="213" type="curve" smooth="yes"/>
      <point x="424" y="79"/>
      <point x="465" y="-10"/>
    </contour>
    <contour>
      <point x="560" y="28" type="curve" smooth="yes"/>
      <point x="513" y="28"/>
      <point x="498" y="93"/>
      <point x="498" y="213" type="curve" smooth="yes"/>
      <point x="498" y="331"/>
      <point x="513" y="395"/>
      <point x="560" y="395" type="curve" smooth="yes"/>
      <point x="607" y="395"/>
      <point x="622" y="331"/>
      <point x="622" y="213" type="curve" smooth="yes"/>
      <point x="622" y="93"/>
      <point x="607" y="28"/>
    </contour>
  </outline>
</glyph>
<glyph name="parenleft.sinh" format="2">
  <advance width="338"/>
  <unicode hex="0028"/>
  <outline>
    <contour>
      <point x="308" y="-264" type="curve"/>
      <point x="308" y="-218" type="line"/>
      <point x="189" y="-143"/>
      <point x="140" y="20"/>
      <point x="140" y="269" type="curve" smooth="yes"/>
      <point x="140" y="520"/>
      <point x="189" y="683"/>
      <point x="308" y="758" type="curve"/>
      <point x="308" y="804" type="line"/>
      <point x="152" y="734"/>
      <point x="51" y="601"/>
      <point x="51" y="269" type="curve" smooth="yes"/>
      <point x="51" y="-60"/>
      <point x="152" y="-194"/>
    </contour>
  </outline>
</glyph>
<glyph name="parenright.sinh" format="2">
  <advance width="338"/>
  <unicode hex="0029"/>
  <outline>
    <contour>
      <point x="30" y="804" type="curve"/>
      <point x="30" y="758" type="line"/>
      <point x="149" y="683"/>
      <point x="198" y="520"/>
      <point x="198" y="271" type="curve" smooth="yes"/>
      <point x="198" y="20"/>
      <point x="149" y="-143"/>
      <point x="30" y="-218" type="curve"/>
      <point x="30" y="-264" type="line"/>
      <point x="186" y="-194"/>
      <point x="287" y="-62"/>
      <point x="287" y="271" type="curve" smooth="yes"/>
      <point x="287" y="602"/>
      <point x="186" y="734"/>
    </contour>
  </outline>
</glyph>
<glyph name="asterisk.sinh" format="2">
  <advance width="415"/>
  <unicode hex="002A"/>
  <outline>
    <contour>
      <point x="191" y="580" type="line"/>
      <point x="171" y="413" type="line"/>
      <point x="246" y="413" type="line"/>
      <point x="223" y="579" type="line"/>
      <point x="333" y="489" type="line"/>
      <point x="370" y="556" type="line"/>
      <point x="244" y="606" type="line"/>
      <point x="370" y="656" type="line"/>
      <point x="333" y="725" type="line"/>
      <point x="223" y="633" type="line"/>
      <point x="246" y="799" type="line"/>
      <point x="171" y="799" type="line"/>
      <point x="192" y="632" type="line"/>
      <point x="82" y="728" type="line"/>
      <point x="45" y="658" type="line"/>
      <point x="172" y="606" type="line"/>
      <point x="46" y="554" type="line"/>
      <point x="83" y="487" type="line"/>
    </contour>
  </outline>
</glyph>
<glyph name="plus.sinh" format="2">
  <advance width="442"/>
  <unicode hex="002B"/>
  <outline>
    <contour>
      <point x="190" y="329" type="line"/>
      <point x="190" y="143" type="line"/>
      <point x="249" y="143" type="line"/>
      <point x="249" y="329" type="line"/>
      <point x="400" y="329" type="line"/>
      <point x="400" y="386" type="line"/>
      <point x="249" y="386" type="line"/>
      <point x="249" y="572" type="line"/>
      <point x="190" y="572" type="line"/>
      <point x="190" y="386" type="line"/>
      <point x="41" y="386" type="line"/>
      <point x="41" y="329" type="line"/>
    </contour>
  </outline>
</glyph>
<glyph name="comma.sinh" format="2">
  <advance width="240"/>
  <unicode hex="002C"/>
  <outline>
    <contour>
      <point x="119" y="117" type="curve" smooth="yes"/>
      <point x="91" y="117"/>
      <point x="67" y="97"/>
      <point x="67" y="64" type="curve" smooth="yes"/>
      <point x="67" y="10"/>
      <point x="118" y="13"/>
      <point x="118" y="-26" type="curve" smooth="yes"/>
      <point x="118" y="-64"/>
      <point x="93" y="-92"/>
      <point x="45" y="-112" type="curve"/>
      <point x="45" y="-154" type="line"/>
      <point x="143" y="-120"/>
      <point x="186" y="-52"/>
      <point x="186" y="26" type="curve" smooth="yes"/>
      <point x="186" y="84"/>
      <point x="161" y="117"/>
    </contour>
  </outline>
</glyph>
<glyph name="hyphen.sinh" format="2">
  <advance width="282"/>
  <unicode hex="002D"/>
  <outline>
    <contour>
      <point x="38" y="350" type="line"/>
      <point x="38" y="275" type="line"/>
      <point x="244" y="275" type="line"/>
      <point x="244" y="350" type="line"/>
    </contour>
  </outline>
</glyph>
<glyph name="period.sinh" format="2">
  <advance width="240"/>
  <unicode hex="002E"/>
  <outline>
    <contour>
      <point x="120" y="-7" type="curve" smooth="yes"/>
      <point x="148" y="-7"/>
      <point x="173" y="8"/>
      <point x="173" y="57" type="curve" smooth="yes"/>
      <point x="173" y="106"/>
      <point x="148" y="121"/>
      <point x="120" y="121" type="curve" smooth="yes"/>
      <point x="90" y="121"/>
      <point x="66" y="106"/>
      <point x="66" y="57" type="curve" smooth="yes"/>
      <point x="66" y="8"/>
      <point x="90" y="-7"/>
    </contour>
  </outline>
</glyph>
<glyph name="zero.sinh" format="2">
  <advance width="442"/>
  <unicode hex="0030"/>
  <outline>
    <contour>
      <point x="221" y="-10" type="curve" smooth="yes"/>
      <point x="352" y="-10"/>
      <point x="406" y="125"/>
      <point x="406" y="358" type="curve" smooth="yes"/>
      <point x="406" y="594"/>
      <point x="355" y="724"/>
      <point x="222" y="724" type="curve" smooth="yes"/>
      <point x="83" y="724"/>
      <point x="36" y="588"/>
      <point x="36" y="359" type="curve" smooth="yes"/>
      <point x="36" y="121"/>
      <point x="84" y="-10"/>
    </contour>
    <contour>
      <point x="220" y="40" type="curve" smooth="yes"/>
      <point x="146" y="40"/>
      <point x="121" y="154"/>
      <point x="121" y="358" type="curve" smooth="yes"/>
      <point x="121" y="562"/>
      <point x="146" y="674"/>
      <point x="221" y="674" type="curve" smooth="yes"/>
      <point x="294" y="674"/>
      <point x="321" y="562"/>
      <point x="321" y="358" type="curve" smooth="yes"/>
      <point x="321" y="154"/>
      <point x="294" y="40"/>
    </contour>
  </outline>
</glyph>
<glyph name="one.sinh" format="2">
  <advance width="442"/>
  <unicode hex="0031"/>
  <outline>
    <contour>
      <point x="84" y="41" type="line"/>
      <point x="84" y="0" type="line"/>
      <point x="379" y="0" type="line"/>
      <point x="379" y="41" type="line"/>
      <point x="345" y="41" type="line" smooth="yes"/>
      <point x="305" y="41"/>
      <point x="278" y="51"/>
      <point x="278" y="113" type="curve" smooth="yes"/>
      <point x="278" y="718" type="line"/>
      <point x="225" y="718" type="line"/>
      <point x="170" y="667" type="line" smooth="yes"/>
      <point x="117" y="619"/>
      <point x="84" y="601"/>
      <point x="52" y="591" type="curve"/>
      <point x="52" y="560"/>
      <point x="69" y="541"/>
      <point x="93" y="541" type="curve" smooth="yes"/>
      <point x="124" y="541"/>
      <point x="157" y="580"/>
      <point x="196" y="637" type="curve"/>
      <point x="196" y="113" type="line" smooth="yes"/>
      <point x="196" y="48"/>
      <point x="169" y="41"/>
      <point x="129" y="41" type="curve" smooth="yes"/>
    </contour>
  </outline>
</glyph>
<glyph name="two.sinh" format="2">
  <advance width="442"/>
  <unicode hex="0032"/>
  <outline>
    <contour>
      <point x="32" y="67" type="line"/>
      <point x="32" y="0" type="line"/>
      <point x="390" y="0" type="line"/>
      <point x="393" y="170" type="line"/>
      <point x="354" y="170" type="line"/>
      <point x="350" y="151" type="line" smooth="yes"/>
      <point x="341" y="104"/>
      <point x="333" y="77"/>
      <point x="283" y="77" type="curve" smooth="yes"/>
      <point x="100" y="77" type="line"/>
      <point x="236" y="259" type="line" smooth="yes"/>
      <point x="316" y="366"/>
      <point x="375" y="448"/>
      <point x="375" y="554" type="curve" smooth="yes"/>
      <point x="375" y="655"/>
      <point x="311" y="724"/>
      <point x="204" y="724" type="curve" smooth="yes"/>
      <point x="95" y="724"/>
      <point x="40" y="666"/>
      <point x="40" y="595" type="curve" smooth="yes"/>
      <point x="40" y="545"/>
      <point x="77" y="530"/>
      <point x="111" y="530" type="curve"/>
      <point x="111" y="606"/>
      <point x="129" y="675"/>
      <point x="204" y="675" type="curve" smooth="yes"/>
      <point x="264" y="675"/>
      <point x="290" y="624"/>
      <point x="290" y="548" type="curve" smooth="yes"/>
      <point x="290" y="455"/>
      <point x="258" y="383"/>
      <point x="170" y="260" type="curve" smooth="yes"/>
    </contour>
  </outline>
</glyph>
<glyph name="three.sinh" format="2">
  <advance width="442"/>
  <unicode hex="0033"/>
  <outline>
    <contour>
      <point x="190" y="-10" type="curve" smooth="yes"/>
      <point x="293" y="-10"/>
      <point x="393" y="43"/>
      <point x="393" y="196" type="curve" smooth="yes"/>
      <point x="393" y="323"/>
      <point x="320" y="368"/>
      <point x="253" y="378" type="curve"/>
      <point x="322" y="399"/>
      <point x="373" y="469"/>
      <point x="373" y="559" type="curve" smooth="yes"/>
      <point x="373" y="665"/>
      <point x="306" y="724"/>
      <point x="209" y="724" type="curve" smooth="yes"/>
      <point x="100" y="724"/>
      <point x="44" y="664"/>
      <point x="44" y="591" type="curve" smooth="yes"/>
      <point x="44" y="547"/>
      <point x="73" y="532"/>
      <point x="111" y="532" type="curve"/>
      <point x="111" y="611"/>
      <point x="137" y="675"/>
      <point x="202" y="675" type="curve" smooth="yes"/>
      <point x="260" y="675"/>
      <point x="288" y="629"/>
      <point x="288" y="550" type="curve" smooth="yes"/>
      <point x="288" y="454"/>
      <point x="248" y="395"/>
      <point x="162" y="395" type="curve" smooth="yes"/>
      <point x="135" y="395" type="line"/>
      <point x="135" y="348" type="line"/>
      <point x="167" y="348" type="line" smooth="yes"/>
      <point x="266" y="348"/>
      <point x="308" y="291"/>
      <point x="308" y="197" type="curve" smooth="yes"/>
      <point x="308" y="85"/>
      <point x="256" y="42"/>
      <point x="189" y="42" type="curve" smooth="yes"/>
      <point x="127" y="42"/>
      <point x="89" y="96"/>
      <point x="89" y="165" type="curve"/>
      <point x="57" y="165"/>
      <point x="34" y="141"/>
      <point x="34" y="102" type="curve" smooth="yes"/>
      <point x="34" y="41"/>
      <point x="82" y="-10"/>
    </contour>
  </outline>
</glyph>
<glyph name="four.sinh" format="2">
  <advance width="442"/>
  <unicode hex="0034"/>
  <outline>
    <contour>
      <point x="169" y="41" type="line"/>
      <point x="169" y="0" type="line"/>
      <point x="414" y="0" type="line"/>
      <point x="414" y="41" type="line"/>
      <point x="404" y="41" type="line" smooth="yes"/>
      <point x="367" y="41"/>
      <point x="337" y="50"/>
      <point x="337" y="113" type="curve" smooth="yes"/>
      <point x="337" y="197" type="line"/>
      <point x="431" y="197" type="line"/>
      <point x="431" y="252" type="line"/>
      <point x="337" y="252" type="line"/>
      <point x="337" y="714" type="line"/>
      <point x="252" y="714" type="line"/>
      <point x="15" y="236" type="line"/>
      <point x="15" y="197" type="line"/>
      <point x="256" y="197" type="line"/>
      <point x="256" y="113" type="line" smooth="yes"/>
      <point x="256" y="50"/>
      <point x="228" y="41"/>
      <point x="190" y="41" type="curve" smooth="yes"/>
    </contour>
    <contour>
      <point x="256" y="252" type="line"/>
      <point x="81" y="252" type="line"/>
      <point x="195" y="486" type="line" smooth="yes"/>
      <point x="216" y="529"/>
      <point x="249" y="601"/>
      <point x="260" y="633" type="curve"/>
      <point x="256" y="571"/>
      <point x="256" y="499"/>
      <point x="256" y="441" type="curve" smooth="yes"/>
    </contour>
  </outline>
</glyph>
<glyph name="five.sinh" format="2">
  <advance width="442"/>
  <unicode hex="0035"/>
  <outline>
    <contour>
      <point x="193" y="-10" type="curve" smooth="yes"/>
      <point x="307" y="-10"/>
      <point x="388" y="80"/>
      <point x="388" y="214" type="curve" smooth="yes"/>
      <point x="388" y="358"/>
      <point x="310" y="429"/>
      <point x="199" y="429" type="curve" smooth="yes"/>
      <point x="165" y="429"/>
      <point x="134" y="421"/>
      <point x="117" y="414" type="curve"/>
      <point x="136" y="636" type="line"/>
      <point x="271" y="636" type="line" smooth="yes"/>
      <point x="306" y="636"/>
      <point x="320" y="625"/>
      <point x="324" y="586" type="curve" smooth="yes"/>
      <point x="326" y="565" type="line"/>
      <point x="367" y="565" type="line"/>
      <point x="363" y="713" type="line"/>
      <point x="93" y="713" type="line"/>
      <point x="63" y="361" type="line"/>
      <point x="83" y="351" type="line"/>
      <point x="104" y="363"/>
      <point x="138" y="378"/>
      <point x="186" y="378" type="curve" smooth="yes"/>
      <point x="256" y="378"/>
      <point x="303" y="326"/>
      <point x="303" y="212" type="curve" smooth="yes"/>
      <point x="303" y="81"/>
      <point x="253" y="41"/>
      <point x="190" y="41" type="curve" smooth="yes"/>
      <point x="120" y="41"/>
      <point x="92" y="95"/>
      <point x="92" y="155" type="curve"/>
      <point x="62" y="155"/>
      <point x="39" y="130"/>
      <point x="39" y="94" type="curve" smooth="yes"/>
      <point x="39" y="51"/>
      <point x="73" y="-10"/>
    </contour>
  </outline>
</glyph>
<glyph name="six.sinh" format="2">
  <advance width="442"/>
  <unicode hex="0036"/>
  <outline>
    <contour>
      <point x="233" y="-10" type="curve" smooth="yes"/>
      <point x="343" y="-10"/>
      <point x="406" y="83"/>
      <point x="406" y="229" type="curve" smooth="yes"/>
      <point x="406" y="356"/>
      <point x="343" y="433"/>
      <point x="250" y="433" type="curve" smooth="yes"/>
      <point x="195" y="433"/>
      <point x="154" y="405"/>
      <point x="130" y="379" type="curve"/>
      <point x="133" y="589"/>
      <point x="176" y="677"/>
      <point x="249" y="677" type="curve" smooth="yes"/>
      <point x="301" y="677"/>
      <point x="327" y="631"/>
      <point x="327" y="562" type="curve"/>
      <point x="370" y="562"/>
      <point x="389" y="581"/>
      <point x="389" y="619" type="curve" smooth="yes"/>
      <point x="389" y="673"/>
      <point x="343" y="724"/>
      <point x="252" y="724" type="curve" smooth="yes"/>
      <point x="110" y="724"/>
      <point x="46" y="582"/>
      <point x="46" y="340" type="curve" smooth="yes"/>
      <point x="46" y="97"/>
      <point x="125" y="-10"/>
    </contour>
    <contour>
      <point x="240" y="40" type="curve" smooth="yes"/>
      <point x="170" y="40"/>
      <point x="131" y="133"/>
      <point x="129" y="327" type="curve"/>
      <point x="148" y="352"/>
      <point x="188" y="382"/>
      <point x="232" y="382" type="curve" smooth="yes"/>
      <point x="289" y="382"/>
      <point x="323" y="339"/>
      <point x="323" y="219" type="curve" smooth="yes"/>
      <point x="323" y="87"/>
      <point x="289" y="40"/>
    </contour>
  </outline>
</glyph>
<glyph name="seven.sinh" format="2">
  <advance width="442"/>
  <unicode hex="0037"/>
  <outline>
    <contour>
      <point x="334" y="636" type="line"/>
      <point x="129" y="0" type="line"/>
      <point x="197" y="0" type="line"/>
      <point x="403" y="686" type="line"/>
      <point x="403" y="713" type="line"/>
      <point x="46" y="713" type="line"/>
      <point x="41" y="535" type="line"/>
      <point x="83" y="535" type="line"/>
      <point x="87" y="582" type="line" smooth="yes"/>
      <point x="91" y="620"/>
      <point x="102" y="636"/>
      <point x="131" y="636" type="curve" smooth="yes"/>
    </contour>
  </outline>
</glyph>
<glyph name="eight.sinh" format="2">
  <advance width="442"/>
  <unicode hex="0038"/>
  <outline>
    <contour>
      <point x="218" y="-10" type="curve" smooth="yes"/>
      <point x="336" y="-10"/>
      <point x="409" y="60"/>
      <point x="409" y="178" type="curve" smooth="yes"/>
      <point x="409" y="274"/>
      <point x="357" y="328"/>
      <point x="275" y="381" type="curve"/>
      <point x="337" y="419"/>
      <point x="392" y="474"/>
      <point x="392" y="558" type="curve" smooth="yes"/>
      <point x="392" y="655"/>
      <point x="330" y="724"/>
      <point x="227" y="724" type="curve" smooth="yes"/>
      <point x="109" y="724"/>
      <point x="52" y="646"/>
      <point x="52" y="555" type="curve" smooth="yes"/>
      <point x="52" y="466"/>
      <point x="99" y="413"/>
      <point x="163" y="365" type="curve"/>
      <point x="96" y="325"/>
      <point x="32" y="269"/>
      <point x="32" y="173" type="curve" smooth="yes"/>
      <point x="32" y="70"/>
      <point x="95" y="-10"/>
    </contour>
    <contour>
      <point x="220" y="39" type="curve" smooth="yes"/>
      <point x="154" y="39"/>
      <point x="112" y="89"/>
      <point x="112" y="172" type="curve" smooth="yes"/>
      <point x="112" y="251"/>
      <point x="151" y="304"/>
      <point x="199" y="339" type="curve"/>
      <point x="289" y="281"/>
      <point x="326" y="235"/>
      <point x="326" y="167" type="curve" smooth="yes"/>
      <point x="326" y="85"/>
      <point x="284" y="39"/>
    </contour>
    <contour>
      <point x="234" y="404" type="curve"/>
      <point x="174" y="445"/>
      <point x="135" y="488"/>
      <point x="135" y="567" type="curve" smooth="yes"/>
      <point x="135" y="629"/>
      <point x="173" y="675"/>
      <point x="224" y="675" type="curve" smooth="yes"/>
      <point x="288" y="675"/>
      <point x="312" y="618"/>
      <point x="312" y="556" type="curve" smooth="yes"/>
      <point x="312" y="489"/>
      <point x="283" y="441"/>
    </contour>
  </outline>
</glyph>
<glyph name="nine.sinh" format="2">
  <advance width="442"/>
  <unicode hex="0039"/>
  <outline>
    <contour>
      <point x="180" y="-11" type="curve" smooth="yes"/>
      <point x="335" y="-11"/>
      <point x="398" y="153"/>
      <point x="398" y="388" type="curve" smooth="yes"/>
      <point x="398" y="632"/>
      <point x="315" y="724"/>
      <point x="211" y="724" type="curve" smooth="yes"/>
      <point x="98" y="724"/>
      <point x="37" y="624"/>
      <point x="37" y="490" type="curve" smooth="yes"/>
      <point x="37" y="352"/>
      <point x="102" y="281"/>
      <point x="193" y="281" type="curve" smooth="yes"/>
      <point x="253" y="281"/>
      <point x="292" y="314"/>
      <point x="314" y="342" type="curve"/>
      <point x="309" y="136"/>
      <point x="268" y="43"/>
      <point x="187" y="43" type="curve" smooth="yes"/>
      <point x="130" y="43"/>
      <point x="105" y="80"/>
      <point x="91" y="121" type="curve"/>
      <point x="71" y="114"/>
      <point x="61" y="95"/>
      <point x="61" y="70" type="curve" smooth="yes"/>
      <point x="61" y="30"/>
      <point x="93" y="-11"/>
    </contour>
    <contour>
      <point x="215" y="332" type="curve" smooth="yes"/>
      <point x="147" y="332"/>
      <point x="121" y="384"/>
      <point x="121" y="488" type="curve" smooth="yes"/>
      <point x="121" y="607"/>
      <point x="154" y="674"/>
      <point x="211" y="674" type="curve" smooth="yes"/>
      <point x="273" y="674"/>
      <point x="313" y="604"/>
      <point x="316" y="401" type="curve"/>
      <point x="300" y="374"/>
      <point x="271" y="332"/>
    </contour>
  </outline>
</glyph>
<glyph name="colon.sinh" format="2">
  <advance width="250"/>
  <unicode hex="003A"/>
  <outline>
    <contour>
      <point x="125" y="401" type="curve" smooth="yes"/>
      <point x="153" y="401"/>
      <point x="178" y="415"/>
      <point x="178" y="464" type="curve" smooth="yes"/>
      <point x="178" y="513"/>
      <point x="153" y="527"/>
      <point x="125" y="527" type="curve" smooth="yes"/>
      <point x="95" y="527"/>
      <point x="72" y="513"/>
      <point x="72" y="464" type="curve" smooth="yes"/>
      <point x="72" y="415"/>
      <point x="95" y="401"/>
    </contour>
    <contour>
      <point x="125" y="-7" type="curve" smooth="yes"/>
      <point x="153" y="-7"/>
      <point x="178" y="8"/>
      <point x="178" y="57" type="curve" smooth="yes"/>
      <point x="178" y="106"/>
      <point x="153" y="121"/>
      <point x="125" y="121" type="curve" smooth="yes"/>
      <point x="95" y="121"/>
      <point x="72" y="106"/>
      <point x="72" y="57" type="curve" smooth="yes"/>
      <point x="72" y="8"/>
      <point x="95" y="-7"/>
    </contour>
  </outline>
</glyph>
<glyph name="semicolon.sinh" format="2">
  <advance width="250"/>
  <unicode hex="003B"/>
  <outline>
    <contour>
      <point x="125" y="401" type="curve" smooth="yes"/>
      <point x="153" y="401"/>
      <point x="178" y="415"/>
      <point x="178" y="464" type="curve" smooth="yes"/>
      <point x="178" y="513"/>
      <point x="153" y="527"/>
      <point x="125" y="527" type="curve" smooth="yes"/>
      <point x="95" y="527"/>
      <point x="72" y="513"/>
      <point x="72" y="464" type="curve" smooth="yes"/>
      <point x="72" y="415"/>
      <point x="95" y="401"/>
    </contour>
    <component base="comma.sinh" xOffset="5"/>
  </outline>
</glyph>
<glyph name="less.sinh" format="2">
  <advance width="442"/>
  <unicode hex="003C"/>
  <outline>
    <contour>
      <point x="43" y="340" type="line"/>
      <point x="398" y="111" type="line"/>
      <point x="398" y="183" type="line"/>
      <point x="117" y="357" type="line"/>
      <point x="398" y="534" type="line"/>
      <point x="398" y="605" type="line"/>
      <point x="43" y="375" type="line"/>
    </contour>
  </outline>
</glyph>
<glyph name="equal.sinh" format="2">
  <advance width="442"/>
  <unicode hex="003D"/>
  <outline>
    <contour>
      <point x="41" y="481" type="line"/>
      <point x="41" y="423" type="line"/>
      <point x="400" y="423" type="line"/>
      <point x="400" y="481" type="line"/>
    </contour>
    <contour>
      <point x="41" y="291" type="line"/>
      <point x="41" y="233" type="line"/>
      <point x="400" y="233" type="line"/>
      <point x="400" y="291" type="line"/>
    </contour>
  </outline>
</glyph>
<glyph name="greater.sinh" format="2">
  <advance width="442"/>
  <unicode hex="003E"/>
  <outline>
    <contour>
      <point x="43" y="183" type="line"/>
      <point x="43" y="111" type="line"/>
      <point x="398" y="340" type="line"/>
      <point x="398" y="375" type="line"/>
      <point x="43" y="605" type="line"/>
      <point x="43" y="534" type="line"/>
      <point x="324" y="357" type="line"/>
    </contour>
  </outline>
</glyph>
<glyph name="question.sinh" format="2">
  <advance width="395"/>
  <unicode hex="003F"/>
  <outline>
    <contour>
      <point x="188" y="724" type="curve" smooth="yes"/>
      <point x="86" y="724"/>
      <point x="30" y="673"/>
      <point x="30" y="612" type="curve" smooth="yes"/>
      <point x="30" y="569"/>
      <point x="60" y="553"/>
      <point x="100" y="553" type="curve"/>
      <point x="100" y="627"/>
      <point x="126" y="676"/>
      <point x="187" y="676" type="curve" smooth="yes"/>
      <point x="246" y="676"/>
      <point x="276" y="620"/>
      <point x="276" y="548" type="curve" smooth="yes"/>
      <point x="276" y="458"/>
      <point x="236" y="392"/>
      <point x="151" y="346" type="curve"/>
      <point x="158" y="209" type="line"/>
      <point x="208" y="209" type="line"/>
      <point x="213" y="322" type="line"/>
      <point x="313" y="372"/>
      <point x="361" y="436"/>
      <point x="361" y="547" type="curve" smooth="yes"/>
      <point x="361" y="660"/>
      <point x="294" y="724"/>
    </contour>
    <contour>
      <point x="183" y="-7" type="curve" smooth="yes"/>
      <point x="211" y="-7"/>
      <point x="236" y="7"/>
      <point x="236" y="56" type="curve" smooth="yes"/>
      <point x="236" y="105"/>
      <point x="211" y="119"/>
      <point x="183" y="119" type="curve" smooth="yes"/>
      <point x="153" y="119"/>
      <point x="130" y="105"/>
      <point x="130" y="56" type="curve" smooth="yes"/>
      <point x="130" y="7"/>
      <point x="153" y="-7"/>
    </contour>
  </outline>
</glyph>
<glyph name="bracketleft.sinh" format="2">
  <advance width="312"/>
  <unicode hex="005B"/>
  <outline>
    <contour>
      <point x="86" y="799" type="line"/>
      <point x="86" y="-259" type="line"/>
      <point x="274" y="-259" type="line"/>
      <point x="274" y="-218" type="line"/>
      <point x="230" y="-218" type="line" smooth="yes"/>
      <point x="197" y="-218"/>
      <point x="169" y="-208"/>
      <point x="169" y="-145" type="curve" smooth="yes"/>
      <point x="169" y="685" type="line" smooth="yes"/>
      <point x="169" y="748"/>
      <point x="197" y="758"/>
      <point x="230" y="758" type="curve" smooth="yes"/>
      <point x="274" y="758" type="line"/>
      <point x="274" y="799" type="line"/>
    </contour>
  </outline>
</glyph>
<glyph name="backslash.sinh" format="2">
  <advance width="357"/>
  <unicode hex="005C"/>
  <outline>
    <contour>
      <point x="322" y="-259" type="line"/>
      <point x="95" y="799" type="line"/>
      <point x="35" y="799" type="line"/>
      <point x="262" y="-259" type="line"/>
    </contour>
  </outline>
</glyph>
<glyph name="bracketright.sinh" format="2">
  <advance width="312"/>
  <unicode hex="005D"/>
  <outline>
    <contour>
      <point x="226" y="-259" type="line"/>
      <point x="226" y="799" type="line"/>
      <point x="38" y="799" type="line"/>
      <point x="38" y="758" type="line"/>
      <point x="82" y="758" type="line" smooth="yes"/>
      <point x="115" y="758"/>
      <point x="143" y="748"/>
      <point x="143" y="685" type="curve" smooth="yes"/>
      <point x="143" y="-145" type="line" smooth="yes"/>
      <point x="143" y="-208"/>
      <point x="115" y="-218"/>
      <point x="82" y="-218" type="curve" smooth="yes"/>
      <point x="38" y="-218" type="line"/>
      <point x="38" y="-259" type="line"/>
    </contour>
  </outline>
</glyph>
<glyph name="asciicircum.sinh" format="2">
  <advance width="442"/>
  <unicode hex="005E"/>
  <outline>
    <contour>
      <point x="200" y="714" type="line"/>
      <point x="28" y="267" type="line"/>
      <point x="93" y="267" type="line"/>
      <point x="220" y="618" type="line"/>
      <point x="349" y="267" type="line"/>
      <point x="415" y="267" type="line"/>
      <point x="241" y="714" type="line"/>
    </contour>
  </outline>
</glyph>
<glyph name="underscore.sinh" format="2">
  <advance width="370"/>
  <unicode hex="005F"/>
  <outline>
    <contour>
      <point x="0" y="-83" type="line"/>
      <point x="0" y="-142" type="line"/>
      <point x="370" y="-142" type="line"/>
      <point x="370" y="-83" type="line"/>
    </contour>
  </outline>
</glyph>
<glyph name="braceleft.sinh" format="2">
  <advance width="347"/>
  <unicode hex="007B"/>
  <outline>
    <contour>
      <point x="309" y="-259" type="line"/>
      <point x="309" y="-217" type="line"/>
      <point x="282" y="-217" type="line" smooth="yes"/>
      <point x="226" y="-217"/>
      <point x="214" y="-182"/>
      <point x="214" y="-111" type="curve" smooth="yes"/>
      <point x="214" y="137" type="line" smooth="yes"/>
      <point x="214" y="212"/>
      <point x="186" y="257"/>
      <point x="132" y="270" type="curve"/>
      <point x="132" y="271" type="line"/>
      <point x="186" y="283"/>
      <point x="214" y="329"/>
      <point x="214" y="402" type="curve" smooth="yes"/>
      <point x="214" y="651" type="line" smooth="yes"/>
      <point x="214" y="720"/>
      <point x="226" y="757"/>
      <point x="282" y="757" type="curve" smooth="yes"/>
      <point x="309" y="757" type="line"/>
      <point x="309" y="799" type="line"/>
      <point x="251" y="799" type="line" smooth="yes"/>
      <point x="173" y="799"/>
      <point x="131" y="747"/>
      <point x="131" y="656" type="curve" smooth="yes"/>
      <point x="131" y="396" type="line" smooth="yes"/>
      <point x="131" y="315"/>
      <point x="91" y="292"/>
      <point x="38" y="290" type="curve"/>
      <point x="38" y="250" type="line"/>
      <point x="91" y="247"/>
      <point x="131" y="225"/>
      <point x="131" y="143" type="curve" smooth="yes"/>
      <point x="131" y="-115" type="line" smooth="yes"/>
      <point x="131" y="-203"/>
      <point x="173" y="-259"/>
      <point x="251" y="-259" type="curve" smooth="yes"/>
    </contour>
  </outline>
</glyph>
<glyph name="bar.sinh" format="2">
  <advance width="411"/>
  <unicode hex="007C"/>
  <outline>
    <contour>
      <point x="174" y="799" type="line"/>
      <point x="174" y="-259" type="line"/>
      <point x="236" y="-259" type="line"/>
      <point x="236" y="799" type="line"/>
    </contour>
  </outline>
</glyph>
<glyph name="braceright.sinh" format="2">
  <advance width="347"/>
  <unicode hex="007D"/>
  <outline>
    <contour>
      <point x="38" y="799" type="line"/>
      <point x="38" y="757" type="line"/>
      <point x="65" y="757" type="line" smooth="yes"/>
      <point x="121" y="757"/>
      <point x="133" y="722"/>
      <point x="133" y="651" type="curve" smooth="yes"/>
      <point x="133" y="403" type="line" smooth="yes"/>
      <point x="133" y="328"/>
      <point x="161" y="283"/>
      <point x="215" y="270" type="curve"/>
      <point x="215" y="269" type="line"/>
      <point x="161" y="257"/>
      <point x="133" y="211"/>
      <point x="133" y="138" type="curve" smooth="yes"/>
      <point x="133" y="-111" type="line" smooth="yes"/>
      <point x="133" y="-180"/>
      <point x="121" y="-217"/>
      <point x="65" y="-217" type="curve" smooth="yes"/>
      <point x="38" y="-217" type="line"/>
      <point x="38" y="-259" type="line"/>
      <point x="96" y="-259" type="line" smooth="yes"/>
      <point x="174" y="-259"/>
      <point x="216" y="-207"/>
      <point x="216" y="-116" type="curve" smooth="yes"/>
      <point x="216" y="144" type="line" smooth="yes"/>
      <point x="216" y="225"/>
      <point x="256" y="248"/>
      <point x="309" y="250" type="curve"/>
      <point x="309" y="290" type="line"/>
      <point x="256" y="293"/>
      <point x="216" y="315"/>
      <point x="216" y="397" type="curve" smooth="yes"/>
      <point x="216" y="655" type="line" smooth="yes"/>
      <point x="216" y="743"/>
      <point x="174" y="799"/>
      <point x="96" y="799" type="curve"/>
    </contour>
  </outline>
</glyph>
<glyph name="asciitilde.sinh" format="2">
  <advance width="442"/>
  <unicode hex="007E"/>
  <outline>
    <contour>
      <point x="33" y="270" type="curve"/>
      <point x="90" y="270" type="line"/>
      <point x="97" y="351"/>
      <point x="110" y="387"/>
      <point x="141" y="387" type="curve" smooth="yes"/>
      <point x="159" y="387"/>
      <point x="170" y="376"/>
      <point x="204" y="335" type="curve" smooth="yes"/>
      <point x="251" y="278"/>
      <point x="276" y="270"/>
      <point x="306" y="270" type="curve" smooth="yes"/>
      <point x="380" y="270"/>
      <point x="402" y="362"/>
      <point x="408" y="444" type="curve"/>
      <point x="351" y="444" type="line"/>
      <point x="345" y="365"/>
      <point x="333" y="327"/>
      <point x="303" y="327" type="curve" smooth="yes"/>
      <point x="285" y="327"/>
      <point x="276" y="338"/>
      <point x="240" y="378" type="curve" smooth="yes"/>
      <point x="204" y="418"/>
      <point x="176" y="444"/>
      <point x="138" y="444" type="curve" smooth="yes"/>
      <point x="61" y="444"/>
      <point x="39" y="354"/>
    </contour>
  </outline>
</glyph>
<glyph name="multiply.sinh" format="2">
  <advance width="442"/>
  <unicode hex="00D7"/>
  <outline>
    <contour>
      <point x="40" y="186" type="line"/>
      <point x="84" y="151" type="line"/>
      <point x="221" y="316" type="line"/>
      <point x="358" y="151" type="line"/>
      <point x="402" y="186" type="line"/>
      <point x="256" y="358" type="line"/>
      <point x="402" y="530" type="line"/>
      <point x="358" y="565" type="line"/>
      <point x="221" y="400" type="line"/>
      <point x="84" y="565" type="line"/>
      <point x="40" y="530" type="line"/>
      <point x="186" y="358" type="line"/>
    </contour>
  </outline>
</glyph>
<glyph name="divide.sinh" format="2">
  <advance width="442"/>
  <unicode hex="00F7"/>
  <outline>
    <contour>
      <point x="41" y="386" type="line"/>
      <point x="41" y="329" type="line"/>
      <point x="400" y="329" type="line"/>
      <point x="400" y="386" type="line"/>
    </contour>
    <contour>
      <point x="221" y="114" type="curve" smooth="yes"/>
      <point x="246" y="114"/>
      <point x="266" y="128"/>
      <point x="266" y="168" type="curve" smooth="yes"/>
      <point x="266" y="209"/>
      <point x="246" y="222"/>
      <point x="221" y="222" type="curve" smooth="yes"/>
      <point x="195" y="222"/>
      <point x="175" y="209"/>
      <point x="175" y="168" type="curve" smooth="yes"/>
      <point x="175" y="128"/>
      <point x="195" y="114"/>
    </contour>
    <contour>
      <point x="221" y="493" type="curve" smooth="yes"/>
      <point x="246" y="493"/>
      <point x="266" y="507"/>
      <point x="266" y="547" type="curve" smooth="yes"/>
      <point x="266" y="588"/>
      <point x="246" y="601"/>
      <point x="221" y="601" type="curve" smooth="yes"/>
      <point x="195" y="601"/>
      <point x="175" y="588"/>
      <point x="175" y="547" type="curve" smooth="yes"/>
      <point x="175" y="507"/>
      <point x="195" y="493"/>
    </contour>
  </outline>
</glyph>
<glyph name="anusvarasinh" format="2">
  <advance width="405"/>
  <unicode hex="0D82"/>
  <outline>
    <contour>
      <point x="29" y="273" type="curve" smooth="yes"/>
      <point x="29" y="132"/>
      <point x="97" y="60"/>
      <point x="202" y="60" type="curve" smooth="yes"/>
      <point x="308" y="60"/>
      <point x="376" y="129"/>
      <point x="376" y="273" type="curve" smooth="yes"/>
      <point x="376" y="392"/>
      <point x="303" y="470"/>
      <point x="202" y="470" type="curve" smooth="yes"/>
      <point x="102" y="470"/>
      <point x="29" y="390"/>
    </contour>
    <contour>
      <point x="84" y="281" type="curve" smooth="yes"/>
      <point x="84" y="375"/>
      <point x="135" y="421"/>
      <point x="202" y="421" type="curve" smooth="yes"/>
      <point x="269" y="421"/>
      <point x="321" y="375"/>
      <point x="321" y="280" type="curve" smooth="yes"/>
      <point x="321" y="202"/>
      <point x="285" y="148"/>
      <point x="202" y="148" type="curve" smooth="yes"/>
      <point x="121" y="148"/>
      <point x="84" y="204"/>
    </contour>
  </outline>
</glyph>
<glyph name="visargasinh" format="2">
  <advance width="252"/>
  <unicode hex="0D83"/>
  <outline>
    <contour>
      <point x="228" y="420" type="curve" smooth="yes"/>
      <point x="228" y="499"/>
      <point x="184" y="536"/>
      <point x="126" y="536" type="curve" smooth="yes"/>
      <point x="69" y="536"/>
      <point x="24" y="492"/>
      <point x="24" y="418" type="curve" smooth="yes"/>
      <point x="24" y="340"/>
      <point x="65" y="300"/>
      <point x="127" y="300" type="curve" smooth="yes"/>
      <point x="183" y="300"/>
      <point x="228" y="333"/>
    </contour>
    <contour>
      <point x="176" y="420" type="curve" smooth="yes"/>
      <point x="176" y="368"/>
      <point x="154" y="353"/>
      <point x="125" y="353" type="curve" smooth="yes"/>
      <point x="93" y="353"/>
      <point x="76" y="379"/>
      <point x="76" y="418" type="curve" smooth="yes"/>
      <point x="76" y="467"/>
      <point x="98" y="487"/>
      <point x="126" y="487" type="curve" smooth="yes"/>
      <point x="159" y="487"/>
      <point x="176" y="464"/>
    </contour>
    <contour>
      <point x="228" y="120" type="curve" smooth="yes"/>
      <point x="228" y="199"/>
      <point x="184" y="236"/>
      <point x="126" y="236" type="curve" smooth="yes"/>
      <point x="69" y="236"/>
      <point x="24" y="192"/>
      <point x="24" y="118" type="curve" smooth="yes"/>
      <point x="24" y="40"/>
      <point x="65" y="0"/>
      <point x="127" y="0" type="curve" smooth="yes"/>
      <point x="183" y="0"/>
      <point x="228" y="33"/>
    </contour>
    <contour>
      <point x="176" y="120" type="curve" smooth="yes"/>
      <point x="176" y="68"/>
      <point x="154" y="53"/>
      <point x="125" y="53" type="curve" smooth="yes"/>
      <point x="93" y="53"/>
      <point x="76" y="79"/>
      <point x="76" y="118" type="curve" smooth="yes"/>
      <point x="76" y="167"/>
      <point x="98" y="187"/>
      <point x="126" y="187" type="curve" smooth="yes"/>
      <point x="159" y="187"/>
      <point x="176" y="164"/>
    </contour>
  </outline>
</glyph>
<glyph name="asinh" format="2">
  <advance width="546"/>
  <unicode hex="0D85"/>
  <outline>
    <contour>
      <point x="273" y="-10" type="curve" smooth="yes"/>
      <point x="356" y="-10"/>
      <point x="416" y="6"/>
      <point x="478" y="37" type="curve"/>
      <point x="457" y="87" type="line"/>
      <point x="398" y="56"/>
      <point x="351" y="44"/>
      <point x="279" y="44" type="curve" smooth="yes"/>
      <point x="180" y="44"/>
      <point x="126" y="101"/>
      <point x="126" y="214" type="curve" smooth="yes"/>
      <point x="126" y="338"/>
      <point x="200" y="392"/>
      <point x="329" y="392" type="curve" smooth="yes"/>
      <point x="379" y="392" type="line"/>
      <point x="379" y="401" type="line" smooth="yes"/>
      <point x="379" y="518"/>
      <point x="338" y="589"/>
      <point x="251" y="589" type="curve" smooth="yes"/>
      <point x="192" y="589"/>
      <point x="150" y="562"/>
      <point x="150" y="497" type="curve" smooth="yes"/>
      <point x="150" y="475"/>
      <point x="156" y="451"/>
      <point x="161" y="440" type="curve"/>
      <point x="232" y="450" type="line"/>
      <point x="229" y="462"/>
      <point x="228" y="475"/>
      <point x="228" y="484" type="curve" smooth="yes"/>
      <point x="228" y="522"/>
      <point x="242" y="536"/>
      <point x="268" y="536" type="curve" smooth="yes"/>
      <point x="309" y="536"/>
      <point x="326" y="492"/>
      <point x="331" y="442" type="curve"/>
      <point x="327" y="442" type="line" smooth="yes"/>
      <point x="188" y="442"/>
      <point x="33" y="387"/>
      <point x="33" y="207" type="curve" smooth="yes"/>
      <point x="33" y="80"/>
      <point x="108" y="-10"/>
    </contour>
    <contour>
      <point x="329" y="-226" type="line"/>
      <point x="383" y="-226" type="line"/>
      <point x="383" y="378" type="line" smooth="yes"/>
      <point x="383" y="456"/>
      <point x="415" y="502"/>
      <point x="466" y="551" type="curve"/>
      <point x="423" y="590" type="line"/>
      <point x="365" y="525"/>
      <point x="329" y="435"/>
      <point x="329" y="351" type="curve" smooth="yes"/>
    </contour>
    <contour>
      <point x="437" y="251" type="curve" smooth="yes"/>
      <point x="490" y="251"/>
      <point x="524" y="280"/>
      <point x="524" y="340" type="curve" smooth="yes"/>
      <point x="524" y="381"/>
      <point x="509" y="411"/>
      <point x="482" y="456" type="curve" smooth="yes"/>
      <point x="456" y="499"/>
      <point x="455" y="515"/>
      <point x="455" y="528" type="curve" smooth="yes"/>
      <point x="455" y="538"/>
      <point x="457" y="544"/>
      <point x="460" y="551" type="curve"/>
      <point x="414" y="515" type="line"/>
      <point x="414" y="484"/>
      <point x="418" y="459"/>
      <point x="440" y="419" type="curve" smooth="yes"/>
      <point x="461" y="381"/>
      <point x="468" y="365"/>
      <point x="468" y="339" type="curve" smooth="yes"/>
      <point x="468" y="315"/>
      <point x="456" y="302"/>
      <point x="428" y="302" type="curve" smooth="yes"/>
      <point x="407" y="302"/>
      <point x="381" y="312"/>
      <point x="361" y="336" type="curve"/>
      <point x="343" y="289" type="line"/>
      <point x="367" y="267"/>
      <point x="394" y="251"/>
    </contour>
  </outline>
</glyph>
<glyph name="isinh" format="2">
  <advance width="561"/>
  <unicode hex="0D89"/>
  <outline>
    <contour>
      <point x="215" y="83" type="curve" smooth="yes"/>
      <point x="301" y="83"/>
      <point x="377" y="125"/>
      <point x="377" y="269" type="curve" smooth="yes"/>
      <point x="377" y="375"/>
      <point x="325" y="405"/>
      <point x="275" y="405" type="curve" smooth="yes"/>
      <point x="217" y="405"/>
      <point x="180" y="360"/>
      <point x="180" y="295" type="curve" smooth="yes"/>
      <point x="180" y="226"/>
      <point x="217" y="186"/>
      <point x="273" y="186" type="curve" smooth="yes"/>
      <point x="309" y="186"/>
      <point x="331" y="206"/>
      <point x="342" y="238" type="curve"/>
      <point x="333" y="242" type="line"/>
      <point x="321" y="159"/>
      <point x="271" y="134"/>
      <point x="214" y="134" type="curve" smooth="yes"/>
      <point x="140" y="134"/>
      <point x="87" y="188"/>
      <point x="87" y="298" type="curve" smooth="yes"/>
      <point x="87" y="439"/>
      <point x="169" y="503"/>
      <point x="277" y="503" type="curve" smooth="yes"/>
      <point x="406" y="503"/>
      <point x="473" y="417"/>
      <point x="473" y="275" type="curve" smooth="yes"/>
      <point x="473" y="136"/>
      <point x="402" y="51"/>
      <point x="270" y="51" type="curve" smooth="yes"/>
      <point x="261" y="51" type="line"/>
      <point x="261" y="0" type="line"/>
      <point x="267" y="0" type="line" smooth="yes"/>
      <point x="450" y="0"/>
      <point x="529" y="125"/>
      <point x="529" y="300" type="curve" smooth="yes"/>
      <point x="529" y="479"/>
      <point x="442" y="589"/>
      <point x="279" y="589" type="curve" smooth="yes"/>
      <point x="134" y="589"/>
      <point x="31" y="487"/>
      <point x="31" y="318" type="curve" smooth="yes"/>
      <point x="31" y="168"/>
      <point x="105" y="83"/>
    </contour>
    <contour>
      <point x="276" y="236" type="curve" smooth="yes"/>
      <point x="247" y="236"/>
      <point x="233" y="259"/>
      <point x="233" y="297" type="curve" smooth="yes"/>
      <point x="233" y="332"/>
      <point x="248" y="355"/>
      <point x="274" y="355" type="curve" smooth="yes"/>
      <point x="305" y="355"/>
      <point x="315" y="326"/>
      <point x="315" y="297" type="curve" smooth="yes"/>
      <point x="315" y="256"/>
      <point x="302" y="236"/>
    </contour>
    <contour>
      <point x="204" y="-13" type="curve"/>
      <point x="144" y="2" type="line"/>
      <point x="134" y="-22"/>
      <point x="127" y="-50"/>
      <point x="127" y="-90" type="curve" smooth="yes"/>
      <point x="127" y="-165"/>
      <point x="172" y="-244"/>
      <point x="281" y="-244" type="curve" smooth="yes"/>
      <point x="374" y="-244"/>
      <point x="430" y="-191"/>
      <point x="430" y="-80" type="curve" smooth="yes"/>
      <point x="430" y="-38"/>
      <point x="417" y="5"/>
      <point x="393" y="40" type="curve"/>
      <point x="340" y="21" type="line"/>
      <point x="357" y="2"/>
      <point x="374" y="-36"/>
      <point x="374" y="-81" type="curve" smooth="yes"/>
      <point x="374" y="-163"/>
      <point x="338" y="-193"/>
      <point x="284" y="-193" type="curve" smooth="yes"/>
      <point x="225" y="-193"/>
      <point x="193" y="-161"/>
      <point x="193" y="-90" type="curve" smooth="yes"/>
      <point x="193" y="-62"/>
      <point x="197" y="-32"/>
    </contour>
  </outline>
</glyph>
<glyph name="iisinh" format="2">
  <advance width="519"/>
  <unicode hex="0D8A"/>
  <outline>
    <contour>
      <point x="256" y="-10" type="curve" smooth="yes"/>
      <point x="396" y="-10"/>
      <point x="483" y="91"/>
      <point x="483" y="287" type="curve" smooth="yes"/>
      <point x="483" y="461"/>
      <point x="401" y="572"/>
      <point x="262" y="572" type="curve" smooth="yes"/>
      <point x="138" y="572"/>
      <point x="36" y="461"/>
      <point x="36" y="283" type="curve" smooth="yes"/>
      <point x="36" y="91"/>
      <point x="110" y="-10"/>
    </contour>
    <contour>
      <point x="258" y="91" type="curve" smooth="yes"/>
      <point x="166" y="91"/>
      <point x="95" y="150"/>
      <point x="95" y="308" type="curve" smooth="yes"/>
      <point x="95" y="443"/>
      <point x="168" y="523"/>
      <point x="260" y="523" type="curve" smooth="yes"/>
      <point x="364" y="523"/>
      <point x="424" y="437"/>
      <point x="424" y="307" type="curve" smooth="yes"/>
      <point x="424" y="151"/>
      <point x="349" y="91"/>
    </contour>
    <contour>
      <point x="151" y="535" type="curve"/>
      <point x="219" y="537" type="line"/>
      <point x="327" y="620"/>
      <point x="435" y="718"/>
      <point x="503" y="789" type="curve"/>
      <point x="451" y="836" type="line"/>
      <point x="369" y="739"/>
      <point x="279" y="650"/>
    </contour>
    <contour>
      <point x="295" y="727" type="curve" smooth="yes"/>
      <point x="295" y="787"/>
      <point x="265" y="815"/>
      <point x="224" y="815" type="curve" smooth="yes"/>
      <point x="182" y="815"/>
      <point x="153" y="781"/>
      <point x="153" y="725" type="curve" smooth="yes"/>
      <point x="153" y="670"/>
      <point x="179" y="637"/>
      <point x="224" y="637" type="curve" smooth="yes"/>
      <point x="265" y="637"/>
      <point x="295" y="668"/>
    </contour>
    <contour>
      <point x="252" y="726" type="curve" smooth="yes"/>
      <point x="252" y="694"/>
      <point x="242" y="679"/>
      <point x="224" y="679" type="curve" smooth="yes"/>
      <point x="202" y="679"/>
      <point x="196" y="701"/>
      <point x="196" y="724" type="curve" smooth="yes"/>
      <point x="196" y="756"/>
      <point x="207" y="773"/>
      <point x="224" y="773" type="curve" smooth="yes"/>
      <point x="244" y="773"/>
      <point x="252" y="754"/>
    </contour>
    <contour>
      <point x="512" y="608" type="curve" smooth="yes"/>
      <point x="512" y="668"/>
      <point x="482" y="696"/>
      <point x="441" y="696" type="curve" smooth="yes"/>
      <point x="399" y="696"/>
      <point x="370" y="662"/>
      <point x="370" y="606" type="curve" smooth="yes"/>
      <point x="370" y="551"/>
      <point x="396" y="518"/>
      <point x="441" y="518" type="curve" smooth="yes"/>
      <point x="482" y="518"/>
      <point x="512" y="549"/>
    </contour>
    <contour>
      <point x="469" y="607" type="curve" smooth="yes"/>
      <point x="469" y="575"/>
      <point x="459" y="560"/>
      <point x="441" y="560" type="curve" smooth="yes"/>
      <point x="419" y="560"/>
      <point x="413" y="582"/>
      <point x="413" y="605" type="curve" smooth="yes"/>
      <point x="413" y="637"/>
      <point x="424" y="654"/>
      <point x="441" y="654" type="curve" smooth="yes"/>
      <point x="461" y="654"/>
      <point x="469" y="635"/>
    </contour>
  </outline>
</glyph>
<glyph name="usinh" format="2">
  <advance width="579"/>
  <unicode hex="0D8B"/>
  <outline>
    <contour>
      <point x="298" y="-256" type="curve" smooth="yes"/>
      <point x="479" y="-256"/>
      <point x="567" y="-137"/>
      <point x="567" y="48" type="curve" smooth="yes"/>
      <point x="567" y="75"/>
      <point x="565" y="102"/>
      <point x="562" y="122" type="curve"/>
      <point x="509" y="119" type="line"/>
      <point x="512" y="98"/>
      <point x="513" y="73"/>
      <point x="513" y="51" type="curve" smooth="yes"/>
      <point x="513" y="-102"/>
      <point x="447" y="-186"/>
      <point x="316" y="-186" type="curve" smooth="yes"/>
      <point x="176" y="-186"/>
      <point x="113" y="-83"/>
      <point x="113" y="86" type="curve" smooth="yes"/>
      <point x="113" y="283"/>
      <point x="222" y="392"/>
      <point x="426" y="392" type="curve" smooth="yes"/>
      <point x="494" y="392" type="line"/>
      <point x="494" y="405" type="line" smooth="yes"/>
      <point x="494" y="515"/>
      <point x="449" y="589"/>
      <point x="352" y="589" type="curve" smooth="yes"/>
      <point x="287" y="589"/>
      <point x="245" y="558"/>
      <point x="245" y="496" type="curve" smooth="yes"/>
      <point x="245" y="475"/>
      <point x="251" y="451"/>
      <point x="256" y="440" type="curve"/>
      <point x="327" y="450" type="line"/>
      <point x="324" y="462"/>
      <point x="323" y="475"/>
      <point x="323" y="484" type="curve" smooth="yes"/>
      <point x="323" y="519"/>
      <point x="338" y="536"/>
      <point x="369" y="536" type="curve" smooth="yes"/>
      <point x="417" y="536"/>
      <point x="437" y="492"/>
      <point x="442" y="442" type="curve"/>
      <point x="432" y="442" type="line" smooth="yes"/>
      <point x="192" y="442"/>
      <point x="27" y="331"/>
      <point x="27" y="73" type="curve" smooth="yes"/>
      <point x="27" y="-90"/>
      <point x="96" y="-256"/>
    </contour>
  </outline>
</glyph>
<glyph name="lvocalicsinh" format="2">
  <advance width="820"/>
  <unicode hex="0D8F"/>
  <outline>
    <contour>
      <point x="590" y="425" type="curve"/>
      <point x="638" y="414" type="line"/>
      <point x="643" y="432"/>
      <point x="646" y="455"/>
      <point x="646" y="487" type="curve" smooth="yes"/>
      <point x="646" y="539"/>
      <point x="606" y="589"/>
      <point x="552" y="589" type="curve" smooth="yes"/>
      <point x="474" y="589"/>
      <point x="426" y="514"/>
      <point x="426" y="404" type="curve" smooth="yes"/>
      <point x="426" y="392" type="line"/>
      <point x="441" y="392" type="line" smooth="yes"/>
      <point x="536" y="392"/>
      <point x="607" y="359"/>
      <point x="607" y="256" type="curve" smooth="yes"/>
      <point x="607" y="151"/>
      <point x="535" y="90"/>
      <point x="409" y="90" type="curve" smooth="yes"/>
      <point x="282" y="90"/>
      <point x="213" y="149"/>
      <point x="213" y="251" type="curve" smooth="yes"/>
      <point x="213" y="355"/>
      <point x="286" y="392"/>
      <point x="377" y="392" type="curve" smooth="yes"/>
      <point x="399" y="392" type="line"/>
      <point x="399" y="418" type="line" smooth="yes"/>
      <point x="399" y="523"/>
      <point x="354" y="589"/>
      <point x="275" y="589" type="curve" smooth="yes"/>
      <point x="212" y="589"/>
      <point x="179" y="555"/>
      <point x="179" y="494" type="curve" smooth="yes"/>
      <point x="179" y="466"/>
      <point x="185" y="446"/>
      <point x="194" y="426" type="curve"/>
      <point x="259" y="444" type="line"/>
      <point x="256" y="456"/>
      <point x="253" y="469"/>
      <point x="253" y="485" type="curve" smooth="yes"/>
      <point x="253" y="519"/>
      <point x="266" y="536"/>
      <point x="291" y="536" type="curve" smooth="yes"/>
      <point x="329" y="536"/>
      <point x="342" y="487"/>
      <point x="348" y="437" type="curve"/>
      <point x="378" y="442" type="line"/>
      <point x="371" y="442" type="line" smooth="yes"/>
      <point x="245" y="442"/>
      <point x="157" y="368"/>
      <point x="157" y="239" type="curve" smooth="yes"/>
      <point x="157" y="86"/>
      <point x="241" y="-10"/>
      <point x="409" y="-10" type="curve" smooth="yes"/>
      <point x="575" y="-10"/>
      <point x="663" y="88"/>
      <point x="663" y="238" type="curve" smooth="yes"/>
      <point x="663" y="368"/>
      <point x="588" y="442"/>
      <point x="459" y="442" type="curve" smooth="yes"/>
      <point x="451" y="442" type="line"/>
      <point x="478" y="438" type="line"/>
      <point x="485" y="496"/>
      <point x="505" y="531"/>
      <point x="545" y="531" type="curve" smooth="yes"/>
      <point x="574" y="531"/>
      <point x="594" y="514"/>
      <point x="594" y="465" type="curve" smooth="yes"/>
      <point x="594" y="450"/>
      <point x="592" y="437"/>
    </contour>
    <contour>
      <point x="37" y="329" type="curve" smooth="yes"/>
      <point x="37" y="209"/>
      <point x="77" y="120"/>
      <point x="133" y="43" type="curve"/>
      <point x="178" y="75" type="line"/>
      <point x="129" y="136"/>
      <point x="93" y="217"/>
      <point x="93" y="324" type="curve" smooth="yes"/>
      <point x="93" y="468"/>
      <point x="170" y="545"/>
      <point x="258" y="545" type="curve" smooth="yes"/>
      <point x="264" y="545"/>
      <point x="275" y="544"/>
      <point x="281" y="543" type="curve"/>
      <point x="301" y="583" type="line"/>
      <point x="290" y="586"/>
      <point x="270" y="589"/>
      <point x="259" y="589" type="curve" smooth="yes"/>
      <point x="144" y="589"/>
      <point x="37" y="498"/>
    </contour>
    <contour>
      <point x="783" y="337" type="curve" smooth="yes"/>
      <point x="783" y="506"/>
      <point x="676" y="589"/>
      <point x="572" y="589" type="curve" smooth="yes"/>
      <point x="550" y="589"/>
      <point x="530" y="586"/>
      <point x="519" y="583" type="curve"/>
      <point x="539" y="543" type="line"/>
      <point x="545" y="544"/>
      <point x="559" y="545"/>
      <point x="574" y="545" type="curve" smooth="yes"/>
      <point x="650" y="545"/>
      <point x="727" y="476"/>
      <point x="727" y="333" type="curve" smooth="yes"/>
      <point x="727" y="215"/>
      <point x="691" y="136"/>
      <point x="642" y="75" type="curve"/>
      <point x="687" y="43" type="line"/>
      <point x="743" y="120"/>
      <point x="783" y="205"/>
    </contour>
  </outline>
</glyph>
<glyph name="esinh" format="2">
  <advance width="593"/>
  <unicode hex="0D91"/>
  <outline>
    <contour>
      <point x="263" y="-10" type="curve" smooth="yes"/>
      <point x="467" y="-10"/>
      <point x="559" y="165"/>
      <point x="559" y="403" type="curve" smooth="yes"/>
      <point x="559" y="678"/>
      <point x="420" y="785"/>
      <point x="220" y="812" type="curve"/>
      <point x="212" y="758" type="line"/>
      <point x="370" y="748"/>
      <point x="500" y="672"/>
      <point x="500" y="402" type="curve" smooth="yes"/>
      <point x="500" y="255"/>
      <point x="446" y="90"/>
      <point x="258" y="90" type="curve" smooth="yes"/>
      <point x="154" y="90"/>
      <point x="105" y="147"/>
      <point x="105" y="232" type="curve" smooth="yes"/>
      <point x="105" y="331"/>
      <point x="169" y="378"/>
      <point x="232" y="403" type="curve"/>
      <point x="176" y="392" type="line"/>
      <point x="317" y="392" type="line"/>
      <point x="317" y="418" type="line" smooth="yes"/>
      <point x="317" y="523"/>
      <point x="272" y="589"/>
      <point x="193" y="589" type="curve" smooth="yes"/>
      <point x="130" y="589"/>
      <point x="93" y="555"/>
      <point x="93" y="490" type="curve" smooth="yes"/>
      <point x="93" y="482"/>
      <point x="95" y="463"/>
      <point x="99" y="452" type="curve"/>
      <point x="174" y="459" type="line"/>
      <point x="172" y="465"/>
      <point x="171" y="477"/>
      <point x="171" y="483" type="curve" smooth="yes"/>
      <point x="171" y="519"/>
      <point x="184" y="536"/>
      <point x="209" y="536" type="curve" smooth="yes"/>
      <point x="247" y="536"/>
      <point x="259" y="487"/>
      <point x="266" y="442" type="curve"/>
      <point x="20" y="442" type="line"/>
      <point x="20" y="392" type="line"/>
      <point x="53" y="392" type="line" smooth="yes"/>
      <point x="82" y="392"/>
      <point x="132" y="393"/>
      <point x="152" y="397" type="curve"/>
      <point x="178" y="421" type="line"/>
      <point x="104" y="388"/>
      <point x="47" y="310"/>
      <point x="47" y="214" type="curve" smooth="yes"/>
      <point x="47" y="77"/>
      <point x="113" y="-10"/>
    </contour>
    <contour>
      <point x="358" y="557" type="curve" smooth="yes"/>
      <point x="418" y="557"/>
      <point x="455" y="608"/>
      <point x="478" y="680" type="curve"/>
      <point x="436" y="707" type="line"/>
      <point x="420" y="646"/>
      <point x="401" y="617"/>
      <point x="366" y="617" type="curve" smooth="yes"/>
      <point x="330" y="617"/>
      <point x="318" y="637"/>
      <point x="305" y="695" type="curve" smooth="yes"/>
      <point x="294" y="745"/>
      <point x="276" y="770"/>
      <point x="235" y="793" type="curve"/>
      <point x="222" y="758" type="line"/>
      <point x="234" y="753"/>
      <point x="245" y="742"/>
      <point x="255" y="683" type="curve" smooth="yes"/>
      <point x="268" y="606"/>
      <point x="291" y="557"/>
    </contour>
  </outline>
</glyph>
<glyph name="eesinh" format="2">
  <advance width="593"/>
  <unicode hex="0D92"/>
  <outline>
    <contour>
      <point x="364" y="963" type="curve" smooth="yes"/>
      <point x="352" y="963"/>
      <point x="332" y="959"/>
      <point x="322" y="955" type="curve"/>
      <point x="329" y="909" type="line"/>
      <point x="332" y="910"/>
      <point x="342" y="912"/>
      <point x="351" y="912" type="curve" smooth="yes"/>
      <point x="375" y="912"/>
      <point x="391" y="902"/>
      <point x="391" y="854" type="curve" smooth="yes"/>
      <point x="391" y="809" type="line" smooth="yes"/>
      <point x="391" y="773"/>
      <point x="393" y="746"/>
      <point x="395" y="718" type="curve"/>
      <point x="439" y="708" type="line"/>
      <point x="439" y="728" type="line" smooth="yes"/>
      <point x="439" y="758"/>
      <point x="438" y="789"/>
      <point x="436" y="819" type="curve"/>
      <point x="439" y="836" type="line"/>
      <point x="439" y="901" type="line"/>
      <point x="431" y="901" type="line"/>
      <point x="427" y="937"/>
      <point x="404" y="963"/>
    </contour>
    <contour>
      <point x="482" y="963" type="curve" smooth="yes"/>
      <point x="452" y="963"/>
      <point x="422" y="943"/>
      <point x="406" y="902" type="curve"/>
      <point x="437" y="878" type="line"/>
      <point x="442" y="906"/>
      <point x="458" y="919"/>
      <point x="473" y="919" type="curve" smooth="yes"/>
      <point x="495" y="919"/>
      <point x="505" y="899"/>
      <point x="505" y="865" type="curve" smooth="yes"/>
      <point x="505" y="832"/>
      <point x="494" y="814"/>
      <point x="474" y="814" type="curve" smooth="yes"/>
      <point x="452" y="814"/>
      <point x="440" y="828"/>
      <point x="435" y="856" type="curve"/>
      <point x="417" y="809" type="line"/>
      <point x="433" y="776"/>
      <point x="460" y="769"/>
      <point x="482" y="769" type="curve" smooth="yes"/>
      <point x="533" y="769"/>
      <point x="556" y="810"/>
      <point x="556" y="866" type="curve" smooth="yes"/>
      <point x="556" y="922"/>
      <point x="533" y="963"/>
    </contour>
    <component base="esinh"/>
  </outline>
</glyph>
<glyph name="osinh" format="2">
  <advance width="646"/>
  <unicode hex="0D94"/>
  <outline>
    <contour>
      <point x="446" y="-10" type="curve" smooth="yes"/>
      <point x="539" y="-10"/>
      <point x="607" y="78"/>
      <point x="607" y="345" type="curve" smooth="yes"/>
      <point x="607" y="674"/>
      <point x="490" y="804"/>
      <point x="294" y="804" type="curve" smooth="yes"/>
      <point x="199" y="804"/>
      <point x="120" y="779"/>
      <point x="45" y="735" type="curve"/>
      <point x="73" y="691" type="line"/>
      <point x="140" y="730"/>
      <point x="213" y="753"/>
      <point x="296" y="753" type="curve" smooth="yes"/>
      <point x="468" y="753"/>
      <point x="548" y="620"/>
      <point x="548" y="360" type="curve" smooth="yes"/>
      <point x="548" y="149"/>
      <point x="508" y="90"/>
      <point x="434" y="90" type="curve" smooth="yes"/>
      <point x="369" y="90"/>
      <point x="346" y="129"/>
      <point x="336" y="199" type="curve"/>
      <point x="286" y="199" type="line"/>
      <point x="275" y="136"/>
      <point x="251" y="90"/>
      <point x="192" y="90" type="curve" smooth="yes"/>
      <point x="126" y="90"/>
      <point x="95" y="159"/>
      <point x="95" y="282" type="curve" smooth="yes"/>
      <point x="95" y="429"/>
      <point x="134" y="502"/>
      <point x="159" y="502" type="curve" smooth="yes"/>
      <point x="171" y="502"/>
      <point x="175" y="492"/>
      <point x="175" y="475" type="curve" smooth="yes"/>
      <point x="175" y="444"/>
      <point x="167" y="425"/>
      <point x="167" y="381" type="curve" smooth="yes"/>
      <point x="167" y="287"/>
      <point x="219" y="229"/>
      <point x="319" y="229" type="curve" smooth="yes"/>
      <point x="408" y="229"/>
      <point x="477" y="287"/>
      <point x="477" y="410" type="curve" smooth="yes"/>
      <point x="477" y="516"/>
      <point x="421" y="571"/>
      <point x="347" y="571" type="curve" smooth="yes"/>
      <point x="271" y="571"/>
      <point x="238" y="521"/>
      <point x="238" y="460" type="curve" smooth="yes"/>
      <point x="238" y="387"/>
      <point x="269" y="353"/>
      <point x="327" y="353" type="curve" smooth="yes"/>
      <point x="375" y="353"/>
      <point x="407" y="381"/>
      <point x="407" y="449" type="curve" smooth="yes"/>
      <point x="407" y="473"/>
      <point x="402" y="504"/>
      <point x="381" y="524" type="curve"/>
      <point x="379" y="522" type="line"/>
      <point x="405" y="505"/>
      <point x="425" y="468"/>
      <point x="425" y="412" type="curve" smooth="yes"/>
      <point x="425" y="334"/>
      <point x="384" y="289"/>
      <point x="317" y="289" type="curve" smooth="yes"/>
      <point x="257" y="289"/>
      <point x="218" y="321"/>
      <point x="218" y="392" type="curve" smooth="yes"/>
      <point x="218" y="435"/>
      <point x="227" y="457"/>
      <point x="227" y="489" type="curve" smooth="yes"/>
      <point x="227" y="517"/>
      <point x="216" y="557"/>
      <point x="166" y="557" type="curve" smooth="yes"/>
      <point x="97" y="557"/>
      <point x="39" y="456"/>
      <point x="39" y="268" type="curve" smooth="yes"/>
      <point x="39" y="74"/>
      <point x="97" y="-10"/>
      <point x="185" y="-10" type="curve" smooth="yes"/>
      <point x="256" y="-10"/>
      <point x="294" y="47"/>
      <point x="311" y="126" type="curve"/>
      <point x="324" y="45"/>
      <point x="363" y="-10"/>
    </contour>
    <contour>
      <point x="363" y="462" type="curve" smooth="yes"/>
      <point x="363" y="430"/>
      <point x="356" y="403"/>
      <point x="326" y="403" type="curve" smooth="yes"/>
      <point x="298" y="403"/>
      <point x="290" y="425"/>
      <point x="290" y="463" type="curve" smooth="yes"/>
      <point x="290" y="498"/>
      <point x="303" y="521"/>
      <point x="327" y="521" type="curve" smooth="yes"/>
      <point x="354" y="521"/>
      <point x="363" y="497"/>
    </contour>
  </outline>
</glyph>
<glyph name="oosinh" format="2">
  <advance width="646"/>
  <unicode hex="0D95"/>
  <outline>
    <contour>
      <point x="446" y="-10" type="curve" smooth="yes"/>
      <point x="539" y="-10"/>
      <point x="607" y="75"/>
      <point x="607" y="310" type="curve" smooth="yes"/>
      <point x="607" y="600"/>
      <point x="494" y="723"/>
      <point x="278" y="723" type="curve" smooth="yes"/>
      <point x="189" y="723"/>
      <point x="113" y="710"/>
      <point x="45" y="685" type="curve"/>
      <point x="61" y="635" type="line"/>
      <point x="129" y="662"/>
      <point x="193" y="672"/>
      <point x="275" y="672" type="curve" smooth="yes"/>
      <point x="478" y="672"/>
      <point x="548" y="553"/>
      <point x="548" y="327" type="curve" smooth="yes"/>
      <point x="548" y="150"/>
      <point x="508" y="90"/>
      <point x="434" y="90" type="curve" smooth="yes"/>
      <point x="369" y="90"/>
      <point x="346" y="129"/>
      <point x="336" y="199" type="curve"/>
      <point x="286" y="199" type="line"/>
      <point x="275" y="136"/>
      <point x="251" y="90"/>
      <point x="192" y="90" type="curve" smooth="yes"/>
      <point x="126" y="90"/>
      <point x="95" y="159"/>
      <point x="95" y="282" type="curve" smooth="yes"/>
      <point x="95" y="429"/>
      <point x="134" y="502"/>
      <point x="159" y="502" type="curve" smooth="yes"/>
      <point x="171" y="502"/>
      <point x="175" y="492"/>
      <point x="175" y="475" type="curve" smooth="yes"/>
      <point x="175" y="444"/>
      <point x="167" y="425"/>
      <point x="167" y="381" type="curve" smooth="yes"/>
      <point x="167" y="287"/>
      <point x="219" y="229"/>
      <point x="319" y="229" type="curve" smooth="yes"/>
      <point x="408" y="229"/>
      <point x="477" y="287"/>
      <point x="477" y="410" type="curve" smooth="yes"/>
      <point x="477" y="516"/>
      <point x="421" y="571"/>
      <point x="347" y="571" type="curve" smooth="yes"/>
      <point x="271" y="571"/>
      <point x="238" y="521"/>
      <point x="238" y="460" type="curve" smooth="yes"/>
      <point x="238" y="387"/>
      <point x="269" y="353"/>
      <point x="327" y="353" type="curve" smooth="yes"/>
      <point x="375" y="353"/>
      <point x="407" y="381"/>
      <point x="407" y="449" type="curve" smooth="yes"/>
      <point x="407" y="473"/>
      <point x="402" y="504"/>
      <point x="381" y="524" type="curve"/>
      <point x="379" y="522" type="line"/>
      <point x="405" y="505"/>
      <point x="425" y="468"/>
      <point x="425" y="412" type="curve" smooth="yes"/>
      <point x="425" y="334"/>
      <point x="384" y="289"/>
      <point x="317" y="289" type="curve" smooth="yes"/>
      <point x="257" y="289"/>
      <point x="218" y="321"/>
      <point x="218" y="392" type="curve" smooth="yes"/>
      <point x="218" y="435"/>
      <point x="227" y="457"/>
      <point x="227" y="489" type="curve" smooth="yes"/>
      <point x="227" y="517"/>
      <point x="216" y="557"/>
      <point x="166" y="557" type="curve" smooth="yes"/>
      <point x="97" y="557"/>
      <point x="39" y="456"/>
      <point x="39" y="268" type="curve" smooth="yes"/>
      <point x="39" y="74"/>
      <point x="97" y="-10"/>
      <point x="185" y="-10" type="curve" smooth="yes"/>
      <point x="256" y="-10"/>
      <point x="294" y="47"/>
      <point x="311" y="126" type="curve"/>
      <point x="324" y="45"/>
      <point x="363" y="-10"/>
    </contour>
    <contour>
      <point x="363" y="462" type="curve" smooth="yes"/>
      <point x="363" y="430"/>
      <point x="356" y="403"/>
      <point x="326" y="403" type="curve" smooth="yes"/>
      <point x="298" y="403"/>
      <point x="290" y="425"/>
      <point x="290" y="463" type="curve" smooth="yes"/>
      <point x="290" y="498"/>
      <point x="303" y="521"/>
      <point x="327" y="521" type="curve" smooth="yes"/>
      <point x="354" y="521"/>
      <point x="363" y="497"/>
    </contour>
    <contour>
      <point x="303" y="940" type="curve" smooth="yes"/>
      <point x="155" y="940"/>
      <point x="90" y="878"/>
      <point x="90" y="803" type="curve" smooth="yes"/>
      <point x="90" y="748"/>
      <point x="114" y="712"/>
      <point x="154" y="678" type="curve"/>
      <point x="201" y="697" type="line"/>
      <point x="164" y="719"/>
      <point x="146" y="755"/>
      <point x="146" y="787" type="curve" smooth="yes"/>
      <point x="146" y="833"/>
      <point x="173" y="866"/>
      <point x="303" y="866" type="curve" smooth="yes"/>
      <point x="453" y="866"/>
      <point x="511" y="816"/>
      <point x="511" y="755" type="curve" smooth="yes"/>
      <point x="511" y="706"/>
      <point x="488" y="677"/>
      <point x="430" y="657" type="curve"/>
      <point x="483" y="620" type="line"/>
      <point x="529" y="649"/>
      <point x="563" y="697"/>
      <point x="563" y="766" type="curve" smooth="yes"/>
      <point x="563" y="841"/>
      <point x="514" y="940"/>
    </contour>
  </outline>
</glyph>
<glyph name="kasinh" format="2">
  <advance width="746"/>
  <unicode hex="0D9A"/>
  <outline>
    <contour>
      <point x="392" y="-10" type="curve" smooth="yes"/>
      <point x="465" y="-10"/>
      <point x="506" y="62"/>
      <point x="506" y="194" type="curve" smooth="yes"/>
      <point x="506" y="348"/>
      <point x="436" y="442"/>
      <point x="305" y="442" type="curve" smooth="yes"/>
      <point x="270" y="442"/>
      <point x="225" y="431"/>
      <point x="202" y="424" type="curve"/>
      <point x="193" y="385" type="line"/>
      <point x="215" y="389"/>
      <point x="248" y="392"/>
      <point x="293" y="392" type="curve" smooth="yes"/>
      <point x="421" y="392"/>
      <point x="453" y="291"/>
      <point x="453" y="200" type="curve" smooth="yes"/>
      <point x="453" y="130"/>
      <point x="431" y="90"/>
      <point x="385" y="90" type="curve" smooth="yes"/>
      <point x="342" y="90"/>
      <point x="316" y="116"/>
      <point x="311" y="195" type="curve"/>
      <point x="265" y="195" type="line"/>
      <point x="261" y="130"/>
      <point x="243" y="90"/>
      <point x="193" y="90" type="curve" smooth="yes"/>
      <point x="157" y="90"/>
      <point x="138" y="113"/>
      <point x="138" y="181" type="curve" smooth="yes"/>
      <point x="138" y="191"/>
      <point x="140" y="203"/>
      <point x="141" y="211" type="curve"/>
      <point x="90" y="217" type="line"/>
      <point x="65" y="211" type="line"/>
      <point x="59" y="166" type="line"/>
      <point x="112" y="157" type="line"/>
      <point x="93" y="207" type="line"/>
      <point x="90" y="189"/>
      <point x="88" y="176"/>
      <point x="88" y="153" type="curve" smooth="yes"/>
      <point x="88" y="54"/>
      <point x="120" y="-10"/>
      <point x="185" y="-10" type="curve" smooth="yes"/>
      <point x="247" y="-10"/>
      <point x="274" y="35"/>
      <point x="290" y="103" type="curve"/>
      <point x="303" y="26"/>
      <point x="338" y="-10"/>
    </contour>
    <contour>
      <point x="545" y="-8" type="curve" smooth="yes"/>
      <point x="656" y="-8"/>
      <point x="711" y="86"/>
      <point x="711" y="264" type="curve" smooth="yes"/>
      <point x="711" y="456"/>
      <point x="628" y="589"/>
      <point x="464" y="589" type="curve" smooth="yes"/>
      <point x="334" y="589"/>
      <point x="237" y="508"/>
      <point x="14" y="192" type="curve"/>
      <point x="59" y="166" type="line"/>
      <point x="132" y="276"/>
      <point x="193" y="355"/>
      <point x="244" y="408" type="curve"/>
      <point x="264" y="429" type="line"/>
      <point x="323" y="491"/>
      <point x="380" y="509"/>
      <point x="445" y="509" type="curve" smooth="yes"/>
      <point x="571" y="509"/>
      <point x="647" y="406"/>
      <point x="647" y="238" type="curve" smooth="yes"/>
      <point x="647" y="122"/>
      <point x="619" y="43"/>
      <point x="546" y="43" type="curve" smooth="yes"/>
      <point x="525" y="43"/>
      <point x="513" y="46"/>
      <point x="499" y="51" type="curve"/>
      <point x="489" y="2" type="line"/>
      <point x="506" y="-4"/>
      <point x="523" y="-8"/>
    </contour>
    <contour>
      <point x="125" y="571" type="curve" smooth="yes"/>
      <point x="67" y="571"/>
      <point x="29" y="530"/>
      <point x="29" y="463" type="curve" smooth="yes"/>
      <point x="29" y="423"/>
      <point x="41" y="390"/>
      <point x="51" y="371" type="curve"/>
      <point x="120" y="390" type="line"/>
      <point x="113" y="409"/>
      <point x="107" y="429"/>
      <point x="107" y="462" type="curve" smooth="yes"/>
      <point x="107" y="487"/>
      <point x="118" y="516"/>
      <point x="143" y="516" type="curve" smooth="yes"/>
      <point x="170" y="516"/>
      <point x="186" y="487"/>
      <point x="200" y="419" type="curve"/>
      <point x="245" y="439" type="line"/>
      <point x="234" y="508"/>
      <point x="197" y="571"/>
    </contour>
  </outline>
</glyph>
<glyph name="khasinh" format="2">
  <advance width="653"/>
  <unicode hex="0D9B"/>
  <outline>
    <contour>
      <point x="197" y="-10" type="curve" smooth="yes"/>
      <point x="266" y="-10"/>
      <point x="300" y="34"/>
      <point x="300" y="111" type="curve" smooth="yes"/>
      <point x="300" y="180"/>
      <point x="267" y="229"/>
      <point x="200" y="229" type="curve" smooth="yes"/>
      <point x="144" y="229"/>
      <point x="104" y="189"/>
      <point x="104" y="127" type="curve" smooth="yes"/>
      <point x="104" y="97"/>
      <point x="117" y="66"/>
      <point x="129" y="53" type="curve"/>
      <point x="130" y="59" type="line"/>
      <point x="99" y="105"/>
      <point x="91" y="145"/>
      <point x="91" y="233" type="curve" smooth="yes"/>
      <point x="91" y="381"/>
      <point x="154" y="460"/>
      <point x="243" y="460" type="curve" smooth="yes"/>
      <point x="318" y="460"/>
      <point x="364" y="405"/>
      <point x="364" y="293" type="curve" smooth="yes"/>
      <point x="364" y="244"/>
      <point x="353" y="186"/>
      <point x="337" y="138" type="curve" smooth="yes"/>
      <point x="323" y="97"/>
      <point x="308" y="59"/>
      <point x="295" y="9" type="curve"/>
      <point x="346" y="-9" type="line"/>
      <point x="358" y="35"/>
      <point x="369" y="77"/>
      <point x="382" y="118" type="curve"/>
      <point x="387" y="140" type="line"/>
      <point x="412" y="201"/>
      <point x="431" y="274"/>
      <point x="431" y="336" type="curve" smooth="yes"/>
      <point x="431" y="462"/>
      <point x="371" y="548"/>
      <point x="256" y="548" type="curve" smooth="yes"/>
      <point x="142" y="548"/>
      <point x="35" y="455"/>
      <point x="35" y="249" type="curve" smooth="yes"/>
      <point x="35" y="85"/>
      <point x="99" y="-10"/>
    </contour>
    <contour>
      <point x="483" y="-10" type="curve" smooth="yes"/>
      <point x="548" y="-10"/>
      <point x="614" y="65"/>
      <point x="614" y="337" type="curve" smooth="yes"/>
      <point x="614" y="665"/>
      <point x="492" y="804"/>
      <point x="305" y="804" type="curve" smooth="yes"/>
      <point x="201" y="804"/>
      <point x="127" y="779"/>
      <point x="52" y="735" type="curve"/>
      <point x="80" y="691" type="line"/>
      <point x="148" y="730"/>
      <point x="213" y="753"/>
      <point x="304" y="753" type="curve" smooth="yes"/>
      <point x="474" y="753"/>
      <point x="555" y="607"/>
      <point x="555" y="347" type="curve" smooth="yes"/>
      <point x="555" y="128"/>
      <point x="518" y="87"/>
      <point x="480" y="87" type="curve" smooth="yes"/>
      <point x="447" y="87"/>
      <point x="435" y="123"/>
      <point x="433" y="169" type="curve"/>
      <point x="369" y="170" type="line"/>
      <point x="354" y="112" type="line"/>
      <point x="401" y="110" type="line"/>
      <point x="389" y="135" type="line"/>
      <point x="391" y="64"/>
      <point x="408" y="-10"/>
    </contour>
    <contour>
      <point x="195" y="178" type="curve" smooth="yes"/>
      <point x="231" y="178"/>
      <point x="246" y="152"/>
      <point x="246" y="109" type="curve" smooth="yes"/>
      <point x="246" y="62"/>
      <point x="226" y="42"/>
      <point x="195" y="42" type="curve" smooth="yes"/>
      <point x="160" y="42"/>
      <point x="145" y="70"/>
      <point x="145" y="109" type="curve" smooth="yes"/>
      <point x="145" y="155"/>
      <point x="163" y="178"/>
    </contour>
  </outline>
</glyph>
<glyph name="gasinh" format="2">
  <advance width="672"/>
  <unicode hex="0D9C"/>
  <outline>
    <contour>
      <point x="439" y="-8" type="curve" smooth="yes"/>
      <point x="548" y="-8"/>
      <point x="636" y="61"/>
      <point x="636" y="290" type="curve" smooth="yes"/>
      <point x="636" y="478"/>
      <point x="561" y="589"/>
      <point x="452" y="589" type="curve" smooth="yes"/>
      <point x="351" y="589"/>
      <point x="285" y="496"/>
      <point x="254" y="292" type="curve"/>
      <point x="287" y="282" type="line"/>
      <point x="292" y="283"/>
      <point x="297" y="285"/>
      <point x="305" y="285" type="curve" smooth="yes"/>
      <point x="329" y="285"/>
      <point x="345" y="267"/>
      <point x="345" y="212" type="curve" smooth="yes"/>
      <point x="345" y="158"/>
      <point x="320" y="90"/>
      <point x="237" y="90" type="curve" smooth="yes"/>
      <point x="129" y="90"/>
      <point x="93" y="173"/>
      <point x="93" y="296" type="curve" smooth="yes"/>
      <point x="93" y="451"/>
      <point x="172" y="538"/>
      <point x="276" y="538" type="curve" smooth="yes"/>
      <point x="286" y="538"/>
      <point x="293" y="538"/>
      <point x="302" y="536" type="curve"/>
      <point x="305" y="587" type="line"/>
      <point x="295" y="589"/>
      <point x="285" y="589"/>
      <point x="273" y="589" type="curve" smooth="yes"/>
      <point x="152" y="589"/>
      <point x="36" y="489"/>
      <point x="36" y="281" type="curve" smooth="yes"/>
      <point x="36" y="102"/>
      <point x="103" y="-10"/>
      <point x="228" y="-10" type="curve" smooth="yes"/>
      <point x="360" y="-10"/>
      <point x="401" y="101"/>
      <point x="401" y="204" type="curve" smooth="yes"/>
      <point x="401" y="298"/>
      <point x="361" y="334"/>
      <point x="303" y="334" type="curve" smooth="yes"/>
      <point x="292" y="334"/>
      <point x="283" y="332"/>
      <point x="275" y="329" type="curve"/>
      <point x="306" y="317" type="line"/>
      <point x="331" y="426"/>
      <point x="369" y="504"/>
      <point x="445" y="504" type="curve" smooth="yes"/>
      <point x="525" y="504"/>
      <point x="573" y="416"/>
      <point x="573" y="263" type="curve" smooth="yes"/>
      <point x="573" y="118"/>
      <point x="531" y="43"/>
      <point x="440" y="43" type="curve" smooth="yes"/>
      <point x="420" y="43"/>
      <point x="401" y="44"/>
      <point x="384" y="49" type="curve"/>
      <point x="375" y="-2" type="line"/>
      <point x="398" y="-7"/>
      <point x="418" y="-8"/>
    </contour>
  </outline>
</glyph>
<glyph name="nngasinh" format="2">
  <advance width="799"/>
  <unicode hex="0D9F"/>
  <outline>
    <contour>
      <point x="566" y="-8" type="curve" smooth="yes"/>
      <point x="675" y="-8"/>
      <point x="763" y="61"/>
      <point x="763" y="290" type="curve" smooth="yes"/>
      <point x="763" y="478"/>
      <point x="688" y="589"/>
      <point x="579" y="589" type="curve" smooth="yes"/>
      <point x="478" y="589"/>
      <point x="412" y="496"/>
      <point x="381" y="292" type="curve"/>
      <point x="414" y="282" type="line"/>
      <point x="419" y="283"/>
      <point x="424" y="285"/>
      <point x="432" y="285" type="curve" smooth="yes"/>
      <point x="456" y="285"/>
      <point x="472" y="267"/>
      <point x="472" y="212" type="curve" smooth="yes"/>
      <point x="472" y="158"/>
      <point x="447" y="90"/>
      <point x="364" y="90" type="curve" smooth="yes"/>
      <point x="265" y="90"/>
      <point x="229" y="183"/>
      <point x="229" y="284" type="curve" smooth="yes"/>
      <point x="229" y="407"/>
      <point x="288" y="508"/>
      <point x="391" y="508" type="curve" smooth="yes"/>
      <point x="394" y="508"/>
      <point x="397" y="508"/>
      <point x="402" y="508" type="curve"/>
      <point x="418" y="571" type="line"/>
      <point x="408" y="549" type="line"/>
      <point x="403" y="550"/>
      <point x="398" y="550"/>
      <point x="393" y="550" type="curve" smooth="yes"/>
      <point x="268" y="550"/>
      <point x="172" y="448"/>
      <point x="172" y="272" type="curve" smooth="yes"/>
      <point x="172" y="104"/>
      <point x="230" y="-10"/>
      <point x="355" y="-10" type="curve" smooth="yes"/>
      <point x="487" y="-10"/>
      <point x="528" y="101"/>
      <point x="528" y="204" type="curve" smooth="yes"/>
      <point x="528" y="298"/>
      <point x="488" y="334"/>
      <point x="430" y="334" type="curve" smooth="yes"/>
      <point x="419" y="334"/>
      <point x="410" y="332"/>
      <point x="402" y="329" type="curve"/>
      <point x="433" y="317" type="line"/>
      <point x="458" y="426"/>
      <point x="496" y="504"/>
      <point x="572" y="504" type="curve" smooth="yes"/>
      <point x="652" y="504"/>
      <point x="700" y="416"/>
      <point x="700" y="263" type="curve" smooth="yes"/>
      <point x="700" y="118"/>
      <point x="658" y="43"/>
      <point x="567" y="43" type="curve" smooth="yes"/>
      <point x="547" y="43"/>
      <point x="528" y="44"/>
      <point x="511" y="49" type="curve"/>
      <point x="502" y="-2" type="line"/>
      <point x="525" y="-7"/>
      <point x="545" y="-8"/>
    </contour>
    <contour>
      <point x="39" y="305" type="curve" smooth="yes"/>
      <point x="39" y="196"/>
      <point x="74" y="99"/>
      <point x="110" y="24" type="curve"/>
      <point x="162" y="47" type="line"/>
      <point x="120" y="131"/>
      <point x="95" y="213"/>
      <point x="95" y="305" type="curve" smooth="yes"/>
      <point x="95" y="469"/>
      <point x="189" y="541"/>
      <point x="303" y="541" type="curve" smooth="yes"/>
      <point x="326" y="541"/>
      <point x="366" y="540"/>
      <point x="400" y="530" type="curve"/>
      <point x="418" y="571" type="line"/>
      <point x="379" y="584"/>
      <point x="330" y="589"/>
      <point x="298" y="589" type="curve" smooth="yes"/>
      <point x="165" y="589"/>
      <point x="39" y="507"/>
    </contour>
  </outline>
</glyph>
<glyph name="casinh" format="2">
  <advance width="593"/>
  <unicode hex="0DA0"/>
  <outline>
    <contour>
      <point x="263" y="-10" type="curve" smooth="yes"/>
      <point x="469" y="-10"/>
      <point x="559" y="162"/>
      <point x="559" y="403" type="curve" smooth="yes"/>
      <point x="559" y="705"/>
      <point x="433" y="804"/>
      <point x="265" y="804" type="curve" smooth="yes"/>
      <point x="185" y="804"/>
      <point x="111" y="779"/>
      <point x="36" y="735" type="curve"/>
      <point x="64" y="691" type="line"/>
      <point x="131" y="730"/>
      <point x="195" y="753"/>
      <point x="268" y="753" type="curve" smooth="yes"/>
      <point x="399" y="753"/>
      <point x="500" y="676"/>
      <point x="500" y="413" type="curve" smooth="yes"/>
      <point x="500" y="244"/>
      <point x="438" y="90"/>
      <point x="258" y="90" type="curve" smooth="yes"/>
      <point x="154" y="90"/>
      <point x="105" y="147"/>
      <point x="105" y="232" type="curve" smooth="yes"/>
      <point x="105" y="331"/>
      <point x="169" y="378"/>
      <point x="232" y="403" type="curve"/>
      <point x="177" y="392" type="line"/>
      <point x="317" y="392" type="line"/>
      <point x="317" y="418" type="line" smooth="yes"/>
      <point x="317" y="523"/>
      <point x="272" y="589"/>
      <point x="193" y="589" type="curve" smooth="yes"/>
      <point x="130" y="589"/>
      <point x="93" y="555"/>
      <point x="93" y="490" type="curve" smooth="yes"/>
      <point x="93" y="482"/>
      <point x="95" y="463"/>
      <point x="99" y="452" type="curve"/>
      <point x="174" y="459" type="line"/>
      <point x="172" y="465"/>
      <point x="171" y="477"/>
      <point x="171" y="483" type="curve" smooth="yes"/>
      <point x="171" y="519"/>
      <point x="184" y="536"/>
      <point x="209" y="536" type="curve" smooth="yes"/>
      <point x="247" y="536"/>
      <point x="259" y="487"/>
      <point x="266" y="442" type="curve"/>
      <point x="20" y="442" type="line"/>
      <point x="20" y="392" type="line"/>
      <point x="53" y="392" type="line" smooth="yes"/>
      <point x="82" y="392"/>
      <point x="132" y="393"/>
      <point x="152" y="397" type="curve"/>
      <point x="178" y="421" type="line"/>
      <point x="104" y="388"/>
      <point x="47" y="310"/>
      <point x="47" y="214" type="curve" smooth="yes"/>
      <point x="47" y="77"/>
      <point x="113" y="-10"/>
    </contour>
  </outline>
</glyph>
<glyph name="jasinh" format="2">
  <advance width="576"/>
  <unicode hex="0DA2"/>
  <outline>
    <contour>
      <point x="287" y="-10" type="curve" smooth="yes"/>
      <point x="453" y="-10"/>
      <point x="541" y="88"/>
      <point x="541" y="239" type="curve" smooth="yes"/>
      <point x="541" y="374"/>
      <point x="453" y="442"/>
      <point x="330" y="442" type="curve" smooth="yes"/>
      <point x="321" y="442" type="line"/>
      <point x="351" y="440" type="line"/>
      <point x="358" y="500"/>
      <point x="385" y="542"/>
      <point x="431" y="542" type="curve" smooth="yes"/>
      <point x="461" y="542"/>
      <point x="475" y="520"/>
      <point x="475" y="486" type="curve" smooth="yes"/>
      <point x="475" y="446"/>
      <point x="462" y="432"/>
      <point x="446" y="432" type="curve" smooth="yes"/>
      <point x="423" y="432"/>
      <point x="417" y="460"/>
      <point x="417" y="506" type="curve" smooth="yes"/>
      <point x="417" y="612"/>
      <point x="452" y="665"/>
      <point x="552" y="720" type="curve"/>
      <point x="515" y="787" type="line"/>
      <point x="423" y="728"/>
      <point x="370" y="651"/>
      <point x="370" y="529" type="curve" smooth="yes"/>
      <point x="370" y="494" type="line" smooth="yes"/>
      <point x="370" y="444"/>
      <point x="394" y="390"/>
      <point x="448" y="390" type="curve" smooth="yes"/>
      <point x="492" y="390"/>
      <point x="529" y="409"/>
      <point x="529" y="486" type="curve" smooth="yes"/>
      <point x="529" y="549"/>
      <point x="494" y="589"/>
      <point x="434" y="589" type="curve" smooth="yes"/>
      <point x="360" y="589"/>
      <point x="304" y="527"/>
      <point x="304" y="402" type="curve" smooth="yes"/>
      <point x="304" y="392" type="line"/>
      <point x="319" y="392" type="line" smooth="yes"/>
      <point x="414" y="392"/>
      <point x="485" y="359"/>
      <point x="485" y="256" type="curve" smooth="yes"/>
      <point x="485" y="151"/>
      <point x="413" y="90"/>
      <point x="287" y="90" type="curve" smooth="yes"/>
      <point x="160" y="90"/>
      <point x="91" y="149"/>
      <point x="91" y="251" type="curve" smooth="yes"/>
      <point x="91" y="355"/>
      <point x="164" y="392"/>
      <point x="255" y="392" type="curve" smooth="yes"/>
      <point x="277" y="392" type="line"/>
      <point x="277" y="418" type="line" smooth="yes"/>
      <point x="277" y="523"/>
      <point x="232" y="589"/>
      <point x="153" y="589" type="curve" smooth="yes"/>
      <point x="90" y="589"/>
      <point x="53" y="555"/>
      <point x="53" y="494" type="curve" smooth="yes"/>
      <point x="53" y="466"/>
      <point x="61" y="446"/>
      <point x="70" y="426" type="curve"/>
      <point x="137" y="444" type="line"/>
      <point x="134" y="456"/>
      <point x="131" y="469"/>
      <point x="131" y="485" type="curve" smooth="yes"/>
      <point x="131" y="519"/>
      <point x="144" y="536"/>
      <point x="169" y="536" type="curve" smooth="yes"/>
      <point x="207" y="536"/>
      <point x="220" y="487"/>
      <point x="226" y="437" type="curve"/>
      <point x="256" y="442" type="line"/>
      <point x="249" y="442" type="line" smooth="yes"/>
      <point x="123" y="442"/>
      <point x="35" y="368"/>
      <point x="35" y="239" type="curve" smooth="yes"/>
      <point x="35" y="86"/>
      <point x="119" y="-10"/>
    </contour>
  </outline>
</glyph>
<glyph name="nyasinh" format="2">
  <advance width="929"/>
  <unicode hex="0DA4"/>
  <outline>
    <contour>
      <point x="515" y="-10" type="curve" smooth="yes"/>
      <point x="588" y="-10"/>
      <point x="622" y="58"/>
      <point x="622" y="198" type="curve" smooth="yes"/>
      <point x="622" y="354"/>
      <point x="559" y="442"/>
      <point x="428" y="442" type="curve" smooth="yes"/>
      <point x="393" y="442"/>
      <point x="348" y="431"/>
      <point x="325" y="424" type="curve"/>
      <point x="316" y="385" type="line"/>
      <point x="338" y="389"/>
      <point x="371" y="392"/>
      <point x="416" y="392" type="curve" smooth="yes"/>
      <point x="544" y="392"/>
      <point x="576" y="291"/>
      <point x="576" y="200" type="curve" smooth="yes"/>
      <point x="576" y="130"/>
      <point x="554" y="90"/>
      <point x="508" y="90" type="curve" smooth="yes"/>
      <point x="465" y="90"/>
      <point x="439" y="116"/>
      <point x="434" y="195" type="curve"/>
      <point x="388" y="195" type="line"/>
      <point x="384" y="130"/>
      <point x="366" y="90"/>
      <point x="316" y="90" type="curve" smooth="yes"/>
      <point x="280" y="90"/>
      <point x="261" y="113"/>
      <point x="261" y="181" type="curve" smooth="yes"/>
      <point x="261" y="191"/>
      <point x="263" y="203"/>
      <point x="264" y="211" type="curve"/>
      <point x="213" y="217" type="line"/>
      <point x="188" y="211" type="line"/>
      <point x="182" y="166" type="line"/>
      <point x="235" y="157" type="line"/>
      <point x="216" y="207" type="line"/>
      <point x="213" y="189"/>
      <point x="211" y="176"/>
      <point x="211" y="153" type="curve" smooth="yes"/>
      <point x="211" y="54"/>
      <point x="243" y="-10"/>
      <point x="308" y="-10" type="curve" smooth="yes"/>
      <point x="370" y="-10"/>
      <point x="397" y="35"/>
      <point x="413" y="103" type="curve"/>
      <point x="426" y="26"/>
      <point x="461" y="-10"/>
    </contour>
    <contour>
      <point x="594" y="589" type="curve" smooth="yes"/>
      <point x="457" y="589"/>
      <point x="360" y="508"/>
      <point x="137" y="192" type="curve"/>
      <point x="182" y="166" type="line"/>
      <point x="254" y="276"/>
      <point x="317" y="355"/>
      <point x="367" y="408" type="curve"/>
      <point x="387" y="429" type="line"/>
      <point x="459" y="505"/>
      <point x="514" y="538"/>
      <point x="594" y="538" type="curve" smooth="yes"/>
      <point x="641" y="538"/>
      <point x="680" y="529"/>
      <point x="719" y="507" type="curve"/>
      <point x="744" y="556" type="line"/>
      <point x="697" y="577"/>
      <point x="651" y="589"/>
    </contour>
    <contour>
      <point x="248" y="571" type="curve" smooth="yes"/>
      <point x="194" y="571"/>
      <point x="155" y="519"/>
      <point x="155" y="463" type="curve" smooth="yes"/>
      <point x="155" y="423"/>
      <point x="164" y="390"/>
      <point x="174" y="371" type="curve"/>
      <point x="243" y="390" type="line"/>
      <point x="236" y="409"/>
      <point x="230" y="429"/>
      <point x="230" y="462" type="curve" smooth="yes"/>
      <point x="230" y="487"/>
      <point x="241" y="516"/>
      <point x="266" y="516" type="curve" smooth="yes"/>
      <point x="293" y="516"/>
      <point x="309" y="487"/>
      <point x="323" y="419" type="curve"/>
      <point x="368" y="439" type="line"/>
      <point x="357" y="508"/>
      <point x="320" y="571"/>
    </contour>
    <contour>
      <point x="789" y="-10" type="curve" smooth="yes"/>
      <point x="825" y="-10"/>
      <point x="887" y="2"/>
      <point x="929" y="24" type="curve"/>
      <point x="911" y="72" type="line"/>
      <point x="871" y="50"/>
      <point x="842" y="44"/>
      <point x="802" y="44" type="curve" smooth="yes"/>
      <point x="710" y="44"/>
      <point x="654" y="102"/>
      <point x="654" y="214" type="curve" smooth="yes"/>
      <point x="654" y="338"/>
      <point x="728" y="392"/>
      <point x="853" y="392" type="curve" smooth="yes"/>
      <point x="901" y="392" type="line"/>
      <point x="901" y="410" type="line" smooth="yes"/>
      <point x="901" y="515"/>
      <point x="856" y="589"/>
      <point x="769" y="589" type="curve" smooth="yes"/>
      <point x="710" y="589"/>
      <point x="668" y="557"/>
      <point x="668" y="497" type="curve" smooth="yes"/>
      <point x="668" y="475"/>
      <point x="674" y="451"/>
      <point x="679" y="440" type="curve"/>
      <point x="750" y="450" type="line"/>
      <point x="747" y="462"/>
      <point x="746" y="475"/>
      <point x="746" y="484" type="curve" smooth="yes"/>
      <point x="746" y="522"/>
      <point x="760" y="536"/>
      <point x="786" y="536" type="curve" smooth="yes"/>
      <point x="828" y="536"/>
      <point x="844" y="492"/>
      <point x="849" y="442" type="curve"/>
      <point x="847" y="442" type="line" smooth="yes"/>
      <point x="715" y="441"/>
      <point x="579" y="392"/>
      <point x="579" y="207" type="curve" smooth="yes"/>
      <point x="579" y="77"/>
      <point x="647" y="-10"/>
    </contour>
    <contour>
      <point x="850" y="-283" type="curve" smooth="yes"/>
      <point x="895" y="-283"/>
      <point x="931" y="-270"/>
      <point x="967" y="-249" type="curve"/>
      <point x="946" y="-206" type="line"/>
      <point x="919" y="-224"/>
      <point x="901" y="-228"/>
      <point x="880" y="-228" type="curve" smooth="yes"/>
      <point x="826" y="-228"/>
      <point x="798" y="-194"/>
      <point x="798" y="-138" type="curve" smooth="yes"/>
      <point x="798" y="-81"/>
      <point x="826" y="-33"/>
      <point x="894" y="20" type="curve"/>
      <point x="829" y="9" type="line"/>
      <point x="767" y="-30"/>
      <point x="724" y="-76"/>
      <point x="724" y="-152" type="curve" smooth="yes"/>
      <point x="724" y="-224"/>
      <point x="763" y="-283"/>
    </contour>
    <contour>
      <point x="35" y="316" type="curve" smooth="yes"/>
      <point x="35" y="210"/>
      <point x="68" y="130"/>
      <point x="113" y="54" type="curve"/>
      <point x="160" y="80" type="line"/>
      <point x="120" y="149"/>
      <point x="91" y="216"/>
      <point x="91" y="314" type="curve" smooth="yes"/>
      <point x="91" y="452"/>
      <point x="165" y="522"/>
      <point x="243" y="531" type="curve"/>
      <point x="243" y="570" type="line"/>
      <point x="139" y="566"/>
      <point x="35" y="478"/>
    </contour>
  </outline>
</glyph>
<glyph name="jnyasinh" format="2">
  <advance width="825"/>
  <unicode hex="0DA5"/>
  <outline>
    <contour>
      <point x="629" y="528" type="curve"/>
      <point x="655" y="570" type="line"/>
      <point x="632" y="584"/>
      <point x="607" y="589"/>
      <point x="582" y="589" type="curve" smooth="yes"/>
      <point x="478" y="589"/>
      <point x="412" y="496"/>
      <point x="381" y="292" type="curve"/>
      <point x="414" y="282" type="line"/>
      <point x="419" y="283"/>
      <point x="424" y="285"/>
      <point x="432" y="285" type="curve" smooth="yes"/>
      <point x="456" y="285"/>
      <point x="472" y="267"/>
      <point x="472" y="212" type="curve" smooth="yes"/>
      <point x="472" y="158"/>
      <point x="447" y="90"/>
      <point x="364" y="90" type="curve" smooth="yes"/>
      <point x="265" y="90"/>
      <point x="229" y="183"/>
      <point x="229" y="284" type="curve" smooth="yes"/>
      <point x="229" y="407"/>
      <point x="288" y="508"/>
      <point x="391" y="508" type="curve" smooth="yes"/>
      <point x="394" y="508"/>
      <point x="397" y="508"/>
      <point x="402" y="508" type="curve"/>
      <point x="418" y="571" type="line"/>
      <point x="408" y="549" type="line"/>
      <point x="403" y="550"/>
      <point x="398" y="550"/>
      <point x="393" y="550" type="curve" smooth="yes"/>
      <point x="268" y="550"/>
      <point x="172" y="448"/>
      <point x="172" y="272" type="curve" smooth="yes"/>
      <point x="172" y="104"/>
      <point x="230" y="-10"/>
      <point x="355" y="-10" type="curve" smooth="yes"/>
      <point x="487" y="-10"/>
      <point x="517" y="97"/>
      <point x="517" y="204" type="curve" smooth="yes"/>
      <point x="517" y="298"/>
      <point x="488" y="334"/>
      <point x="430" y="334" type="curve" smooth="yes"/>
      <point x="419" y="334"/>
      <point x="410" y="332"/>
      <point x="402" y="329" type="curve"/>
      <point x="433" y="317" type="line"/>
      <point x="465" y="457"/>
      <point x="509" y="539"/>
      <point x="581" y="539" type="curve" smooth="yes"/>
      <point x="600" y="539"/>
      <point x="615" y="536"/>
    </contour>
    <contour>
      <point x="39" y="305" type="curve" smooth="yes"/>
      <point x="39" y="196"/>
      <point x="74" y="99"/>
      <point x="110" y="24" type="curve"/>
      <point x="162" y="47" type="line"/>
      <point x="120" y="131"/>
      <point x="95" y="213"/>
      <point x="95" y="305" type="curve" smooth="yes"/>
      <point x="95" y="469"/>
      <point x="189" y="541"/>
      <point x="303" y="541" type="curve" smooth="yes"/>
      <point x="326" y="541"/>
      <point x="366" y="540"/>
      <point x="400" y="530" type="curve"/>
      <point x="418" y="571" type="line"/>
      <point x="379" y="584"/>
      <point x="330" y="589"/>
      <point x="298" y="589" type="curve" smooth="yes"/>
      <point x="165" y="589"/>
      <point x="39" y="507"/>
    </contour>
    <contour>
      <point x="685" y="-10" type="curve" smooth="yes"/>
      <point x="721" y="-10"/>
      <point x="783" y="2"/>
      <point x="825" y="24" type="curve"/>
      <point x="807" y="72" type="line"/>
      <point x="767" y="50"/>
      <point x="738" y="44"/>
      <point x="698" y="44" type="curve" smooth="yes"/>
      <point x="606" y="44"/>
      <point x="550" y="102"/>
      <point x="550" y="214" type="curve" smooth="yes"/>
      <point x="550" y="338"/>
      <point x="624" y="392"/>
      <point x="749" y="392" type="curve" smooth="yes"/>
      <point x="797" y="392" type="line"/>
      <point x="797" y="410" type="line" smooth="yes"/>
      <point x="797" y="515"/>
      <point x="752" y="589"/>
      <point x="665" y="589" type="curve" smooth="yes"/>
      <point x="606" y="589"/>
      <point x="564" y="557"/>
      <point x="564" y="497" type="curve" smooth="yes"/>
      <point x="564" y="475"/>
      <point x="570" y="451"/>
      <point x="575" y="440" type="curve"/>
      <point x="646" y="450" type="line"/>
      <point x="643" y="462"/>
      <point x="642" y="475"/>
      <point x="642" y="484" type="curve" smooth="yes"/>
      <point x="642" y="522"/>
      <point x="656" y="536"/>
      <point x="682" y="536" type="curve" smooth="yes"/>
      <point x="724" y="536"/>
      <point x="740" y="492"/>
      <point x="745" y="442" type="curve"/>
      <point x="743" y="442" type="line" smooth="yes"/>
      <point x="611" y="441"/>
      <point x="473" y="392"/>
      <point x="473" y="207" type="curve" smooth="yes"/>
      <point x="473" y="76"/>
      <point x="543" y="-10"/>
    </contour>
    <contour>
      <point x="746" y="-283" type="curve" smooth="yes"/>
      <point x="791" y="-283"/>
      <point x="827" y="-270"/>
      <point x="863" y="-249" type="curve"/>
      <point x="842" y="-206" type="line"/>
      <point x="815" y="-224"/>
      <point x="797" y="-228"/>
      <point x="776" y="-228" type="curve" smooth="yes"/>
      <point x="722" y="-228"/>
      <point x="694" y="-194"/>
      <point x="694" y="-138" type="curve" smooth="yes"/>
      <point x="694" y="-81"/>
      <point x="722" y="-33"/>
      <point x="790" y="20" type="curve"/>
      <point x="725" y="9" type="line"/>
      <point x="663" y="-30"/>
      <point x="620" y="-76"/>
      <point x="620" y="-152" type="curve" smooth="yes"/>
      <point x="620" y="-224"/>
      <point x="659" y="-283"/>
    </contour>
  </outline>
</glyph>
<glyph name="nyjasinh" format="2">
  <advance width="698"/>
  <unicode hex="0DA6"/>
  <outline>
    <contour>
      <point x="409" y="-10" type="curve" smooth="yes"/>
      <point x="575" y="-10"/>
      <point x="663" y="88"/>
      <point x="663" y="239" type="curve" smooth="yes"/>
      <point x="663" y="374"/>
      <point x="575" y="442"/>
      <point x="452" y="442" type="curve" smooth="yes"/>
      <point x="443" y="442" type="line"/>
      <point x="473" y="440" type="line"/>
      <point x="480" y="500"/>
      <point x="507" y="542"/>
      <point x="553" y="542" type="curve" smooth="yes"/>
      <point x="583" y="542"/>
      <point x="597" y="520"/>
      <point x="597" y="486" type="curve" smooth="yes"/>
      <point x="597" y="446"/>
      <point x="584" y="432"/>
      <point x="568" y="432" type="curve" smooth="yes"/>
      <point x="545" y="432"/>
      <point x="539" y="460"/>
      <point x="539" y="506" type="curve" smooth="yes"/>
      <point x="539" y="612"/>
      <point x="574" y="665"/>
      <point x="674" y="720" type="curve"/>
      <point x="637" y="787" type="line"/>
      <point x="545" y="728"/>
      <point x="492" y="651"/>
      <point x="492" y="529" type="curve" smooth="yes"/>
      <point x="492" y="494" type="line" smooth="yes"/>
      <point x="492" y="444"/>
      <point x="516" y="390"/>
      <point x="570" y="390" type="curve" smooth="yes"/>
      <point x="614" y="390"/>
      <point x="651" y="409"/>
      <point x="651" y="486" type="curve" smooth="yes"/>
      <point x="651" y="549"/>
      <point x="616" y="589"/>
      <point x="556" y="589" type="curve" smooth="yes"/>
      <point x="482" y="589"/>
      <point x="426" y="527"/>
      <point x="426" y="402" type="curve" smooth="yes"/>
      <point x="426" y="392" type="line"/>
      <point x="441" y="392" type="line" smooth="yes"/>
      <point x="536" y="392"/>
      <point x="607" y="359"/>
      <point x="607" y="256" type="curve" smooth="yes"/>
      <point x="607" y="151"/>
      <point x="535" y="90"/>
      <point x="409" y="90" type="curve" smooth="yes"/>
      <point x="282" y="90"/>
      <point x="213" y="149"/>
      <point x="213" y="251" type="curve" smooth="yes"/>
      <point x="213" y="355"/>
      <point x="286" y="392"/>
      <point x="377" y="392" type="curve" smooth="yes"/>
      <point x="399" y="392" type="line"/>
      <point x="399" y="418" type="line" smooth="yes"/>
      <point x="399" y="523"/>
      <point x="354" y="589"/>
      <point x="275" y="589" type="curve" smooth="yes"/>
      <point x="212" y="589"/>
      <point x="179" y="555"/>
      <point x="179" y="494" type="curve" smooth="yes"/>
      <point x="179" y="469"/>
      <point x="185" y="446"/>
      <point x="194" y="426" type="curve"/>
      <point x="259" y="444" type="line"/>
      <point x="256" y="456"/>
      <point x="253" y="469"/>
      <point x="253" y="485" type="curve" smooth="yes"/>
      <point x="253" y="519"/>
      <point x="266" y="536"/>
      <point x="291" y="536" type="curve" smooth="yes"/>
      <point x="329" y="536"/>
      <point x="342" y="487"/>
      <point x="348" y="437" type="curve"/>
      <point x="378" y="442" type="line"/>
      <point x="371" y="442" type="line" smooth="yes"/>
      <point x="245" y="442"/>
      <point x="157" y="368"/>
      <point x="157" y="239" type="curve" smooth="yes"/>
      <point x="157" y="86"/>
      <point x="241" y="-10"/>
    </contour>
    <contour>
      <point x="35" y="329" type="curve" smooth="yes"/>
      <point x="35" y="209"/>
      <point x="75" y="120"/>
      <point x="131" y="43" type="curve"/>
      <point x="176" y="75" type="line"/>
      <point x="127" y="136"/>
      <point x="91" y="217"/>
      <point x="91" y="324" type="curve" smooth="yes"/>
      <point x="91" y="468"/>
      <point x="168" y="545"/>
      <point x="256" y="545" type="curve" smooth="yes"/>
      <point x="262" y="545"/>
      <point x="273" y="544"/>
      <point x="279" y="543" type="curve"/>
      <point x="299" y="583" type="line"/>
      <point x="288" y="586"/>
      <point x="268" y="589"/>
      <point x="257" y="589" type="curve" smooth="yes"/>
      <point x="142" y="589"/>
      <point x="35" y="498"/>
    </contour>
  </outline>
</glyph>
<glyph name="ttasinh" format="2">
  <advance width="583"/>
  <unicode hex="0DA7"/>
  <outline>
    <contour>
      <point x="262" y="-10" type="curve" smooth="yes"/>
      <point x="465" y="-10"/>
      <point x="549" y="165"/>
      <point x="549" y="403" type="curve" smooth="yes"/>
      <point x="549" y="706"/>
      <point x="425" y="804"/>
      <point x="263" y="804" type="curve" smooth="yes"/>
      <point x="186" y="804"/>
      <point x="112" y="778"/>
      <point x="39" y="736" type="curve"/>
      <point x="67" y="692" type="line"/>
      <point x="132" y="730"/>
      <point x="196" y="753"/>
      <point x="264" y="753" type="curve" smooth="yes"/>
      <point x="391" y="753"/>
      <point x="490" y="676"/>
      <point x="490" y="413" type="curve" smooth="yes"/>
      <point x="490" y="244"/>
      <point x="429" y="90"/>
      <point x="265" y="90" type="curve" smooth="yes"/>
      <point x="153" y="90"/>
      <point x="91" y="154"/>
      <point x="91" y="272" type="curve" smooth="yes"/>
      <point x="91" y="384"/>
      <point x="152" y="453"/>
      <point x="260" y="453" type="curve" smooth="yes"/>
      <point x="276" y="453"/>
      <point x="294" y="452"/>
      <point x="310" y="448" type="curve"/>
      <point x="319" y="498" type="line"/>
      <point x="302" y="502"/>
      <point x="276" y="504"/>
      <point x="263" y="504" type="curve" smooth="yes"/>
      <point x="128" y="504"/>
      <point x="35" y="413"/>
      <point x="35" y="260" type="curve" smooth="yes"/>
      <point x="35" y="85"/>
      <point x="116" y="-10"/>
    </contour>
  </outline>
</glyph>
<glyph name="tthasinh" format="2">
  <advance width="627"/>
  <unicode hex="0DA8"/>
  <outline>
    <contour>
      <point x="432" y="-10" type="curve" smooth="yes"/>
      <point x="519" y="-10"/>
      <point x="588" y="75"/>
      <point x="588" y="323" type="curve" smooth="yes"/>
      <point x="588" y="598"/>
      <point x="467" y="781"/>
      <point x="217" y="812" type="curve"/>
      <point x="209" y="758" type="line"/>
      <point x="406" y="750"/>
      <point x="529" y="600"/>
      <point x="529" y="330" type="curve" smooth="yes"/>
      <point x="529" y="148"/>
      <point x="489" y="90"/>
      <point x="420" y="90" type="curve" smooth="yes"/>
      <point x="359" y="90"/>
      <point x="336" y="129"/>
      <point x="326" y="199" type="curve"/>
      <point x="276" y="199" type="line"/>
      <point x="265" y="136"/>
      <point x="241" y="90"/>
      <point x="182" y="90" type="curve" smooth="yes"/>
      <point x="125" y="90"/>
      <point x="92" y="140"/>
      <point x="92" y="242" type="curve" smooth="yes"/>
      <point x="92" y="373"/>
      <point x="157" y="453"/>
      <point x="255" y="453" type="curve" smooth="yes"/>
      <point x="268" y="453"/>
      <point x="284" y="452"/>
      <point x="297" y="450" type="curve"/>
      <point x="305" y="499" type="line"/>
      <point x="287" y="503"/>
      <point x="271" y="504"/>
      <point x="257" y="504" type="curve" smooth="yes"/>
      <point x="130" y="504"/>
      <point x="35" y="407"/>
      <point x="35" y="224" type="curve" smooth="yes"/>
      <point x="35" y="74"/>
      <point x="80" y="-10"/>
      <point x="175" y="-10" type="curve" smooth="yes"/>
      <point x="246" y="-10"/>
      <point x="284" y="47"/>
      <point x="301" y="126" type="curve"/>
      <point x="314" y="45"/>
      <point x="353" y="-10"/>
    </contour>
    <contour>
      <point x="355" y="557" type="curve" smooth="yes"/>
      <point x="415" y="557"/>
      <point x="452" y="608"/>
      <point x="475" y="680" type="curve"/>
      <point x="433" y="707" type="line"/>
      <point x="417" y="646"/>
      <point x="398" y="617"/>
      <point x="363" y="617" type="curve" smooth="yes"/>
      <point x="327" y="617"/>
      <point x="315" y="637"/>
      <point x="302" y="695" type="curve" smooth="yes"/>
      <point x="291" y="745"/>
      <point x="273" y="770"/>
      <point x="232" y="793" type="curve"/>
      <point x="219" y="758" type="line"/>
      <point x="231" y="753"/>
      <point x="242" y="742"/>
      <point x="252" y="683" type="curve" smooth="yes"/>
      <point x="265" y="606"/>
      <point x="288" y="557"/>
    </contour>
  </outline>
</glyph>
<glyph name="ddasinh" format="2">
  <advance width="628"/>
  <unicode hex="0DA9"/>
  <outline>
    <contour>
      <point x="433" y="-10" type="curve" smooth="yes"/>
      <point x="520" y="-10"/>
      <point x="589" y="75"/>
      <point x="589" y="345" type="curve" smooth="yes"/>
      <point x="589" y="674"/>
      <point x="472" y="804"/>
      <point x="282" y="804" type="curve" smooth="yes"/>
      <point x="196" y="804"/>
      <point x="122" y="779"/>
      <point x="47" y="735" type="curve"/>
      <point x="75" y="691" type="line"/>
      <point x="142" y="730"/>
      <point x="208" y="753"/>
      <point x="284" y="753" type="curve" smooth="yes"/>
      <point x="450" y="753"/>
      <point x="530" y="620"/>
      <point x="530" y="360" type="curve" smooth="yes"/>
      <point x="530" y="148"/>
      <point x="490" y="90"/>
      <point x="421" y="90" type="curve" smooth="yes"/>
      <point x="360" y="90"/>
      <point x="337" y="129"/>
      <point x="327" y="199" type="curve"/>
      <point x="277" y="199" type="line"/>
      <point x="266" y="136"/>
      <point x="242" y="90"/>
      <point x="183" y="90" type="curve" smooth="yes"/>
      <point x="130" y="90"/>
      <point x="99" y="127"/>
      <point x="99" y="210" type="curve" smooth="yes"/>
      <point x="99" y="306"/>
      <point x="152" y="380"/>
      <point x="252" y="400" type="curve"/>
      <point x="175" y="392" type="line"/>
      <point x="302" y="392" type="line"/>
      <point x="302" y="418" type="line" smooth="yes"/>
      <point x="302" y="523"/>
      <point x="257" y="589"/>
      <point x="178" y="589" type="curve" smooth="yes"/>
      <point x="115" y="589"/>
      <point x="78" y="555"/>
      <point x="78" y="490" type="curve" smooth="yes"/>
      <point x="78" y="482"/>
      <point x="80" y="463"/>
      <point x="84" y="452" type="curve"/>
      <point x="159" y="459" type="line"/>
      <point x="157" y="465"/>
      <point x="156" y="477"/>
      <point x="156" y="483" type="curve" smooth="yes"/>
      <point x="156" y="519"/>
      <point x="169" y="536"/>
      <point x="194" y="536" type="curve" smooth="yes"/>
      <point x="232" y="536"/>
      <point x="244" y="487"/>
      <point x="251" y="442" type="curve"/>
      <point x="24" y="442" type="line"/>
      <point x="24" y="392" type="line"/>
      <point x="58" y="392" type="line" smooth="yes"/>
      <point x="88" y="392"/>
      <point x="137" y="392"/>
      <point x="173" y="397" type="curve"/>
      <point x="195" y="425" type="line"/>
      <point x="98" y="389"/>
      <point x="41" y="302"/>
      <point x="41" y="182" type="curve" smooth="yes"/>
      <point x="41" y="57"/>
      <point x="90" y="-10"/>
      <point x="172" y="-10" type="curve" smooth="yes"/>
      <point x="248" y="-10"/>
      <point x="285" y="47"/>
      <point x="302" y="126" type="curve"/>
      <point x="315" y="45"/>
      <point x="354" y="-10"/>
    </contour>
  </outline>
</glyph>
<glyph name="ddhasinh" format="2">
  <advance width="628"/>
  <unicode hex="0DAA"/>
  <outline>
    <contour>
      <point x="433" y="-10" type="curve" smooth="yes"/>
      <point x="520" y="-10"/>
      <point x="589" y="75"/>
      <point x="589" y="323" type="curve" smooth="yes"/>
      <point x="589" y="598"/>
      <point x="468" y="781"/>
      <point x="218" y="812" type="curve"/>
      <point x="210" y="758" type="line"/>
      <point x="407" y="750"/>
      <point x="530" y="600"/>
      <point x="530" y="330" type="curve" smooth="yes"/>
      <point x="530" y="148"/>
      <point x="490" y="90"/>
      <point x="421" y="90" type="curve" smooth="yes"/>
      <point x="360" y="90"/>
      <point x="337" y="129"/>
      <point x="327" y="199" type="curve"/>
      <point x="277" y="199" type="line"/>
      <point x="266" y="136"/>
      <point x="242" y="90"/>
      <point x="183" y="90" type="curve" smooth="yes"/>
      <point x="130" y="90"/>
      <point x="99" y="127"/>
      <point x="99" y="210" type="curve" smooth="yes"/>
      <point x="99" y="306"/>
      <point x="152" y="380"/>
      <point x="252" y="400" type="curve"/>
      <point x="175" y="392" type="line"/>
      <point x="302" y="392" type="line"/>
      <point x="302" y="418" type="line" smooth="yes"/>
      <point x="302" y="523"/>
      <point x="257" y="589"/>
      <point x="178" y="589" type="curve" smooth="yes"/>
      <point x="115" y="589"/>
      <point x="78" y="555"/>
      <point x="78" y="490" type="curve" smooth="yes"/>
      <point x="78" y="482"/>
      <point x="80" y="463"/>
      <point x="84" y="452" type="curve"/>
      <point x="159" y="459" type="line"/>
      <point x="157" y="465"/>
      <point x="156" y="477"/>
      <point x="156" y="483" type="curve" smooth="yes"/>
      <point x="156" y="519"/>
      <point x="169" y="536"/>
      <point x="194" y="536" type="curve" smooth="yes"/>
      <point x="232" y="536"/>
      <point x="244" y="487"/>
      <point x="251" y="442" type="curve"/>
      <point x="24" y="442" type="line"/>
      <point x="24" y="392" type="line"/>
      <point x="58" y="392" type="line" smooth="yes"/>
      <point x="88" y="392"/>
      <point x="137" y="392"/>
      <point x="173" y="397" type="curve"/>
      <point x="195" y="425" type="line"/>
      <point x="98" y="389"/>
      <point x="41" y="302"/>
      <point x="41" y="182" type="curve" smooth="yes"/>
      <point x="41" y="57"/>
      <point x="90" y="-10"/>
      <point x="172" y="-10" type="curve" smooth="yes"/>
      <point x="248" y="-10"/>
      <point x="285" y="47"/>
      <point x="302" y="126" type="curve"/>
      <point x="315" y="45"/>
      <point x="354" y="-10"/>
    </contour>
    <contour>
      <point x="356" y="557" type="curve" smooth="yes"/>
      <point x="416" y="557"/>
      <point x="453" y="608"/>
      <point x="476" y="680" type="curve"/>
      <point x="434" y="707" type="line"/>
      <point x="418" y="646"/>
      <point x="399" y="617"/>
      <point x="364" y="617" type="curve" smooth="yes"/>
      <point x="328" y="617"/>
      <point x="316" y="637"/>
      <point x="303" y="695" type="curve" smooth="yes"/>
      <point x="292" y="745"/>
      <point x="274" y="770"/>
      <point x="233" y="793" type="curve"/>
      <point x="220" y="758" type="line"/>
      <point x="232" y="753"/>
      <point x="243" y="742"/>
      <point x="253" y="683" type="curve" smooth="yes"/>
      <point x="266" y="606"/>
      <point x="289" y="557"/>
    </contour>
  </outline>
</glyph>
<glyph name="nnasinh" format="2">
  <advance width="858"/>
  <unicode hex="0DAB"/>
  <outline>
    <contour>
      <point x="40" y="123" type="line"/>
      <point x="70" y="154" type="line"/>
      <point x="252" y="379"/>
      <point x="421" y="560"/>
      <point x="677" y="806" type="curve"/>
      <point x="628" y="856" type="line"/>
      <point x="437" y="652"/>
      <point x="174" y="356"/>
      <point x="-2" y="149" type="curve"/>
    </contour>
    <contour>
      <point x="277" y="171" type="curve" smooth="yes"/>
      <point x="362" y="171"/>
      <point x="400" y="216"/>
      <point x="400" y="288" type="curve" smooth="yes"/>
      <point x="400" y="355"/>
      <point x="374" y="397"/>
      <point x="310" y="397" type="curve" smooth="yes"/>
      <point x="260" y="397"/>
      <point x="216" y="356"/>
      <point x="216" y="303" type="curve" smooth="yes"/>
      <point x="216" y="265"/>
      <point x="226" y="235"/>
      <point x="246" y="216" type="curve"/>
      <point x="250" y="223" type="line"/>
      <point x="163" y="241"/>
      <point x="121" y="300"/>
      <point x="121" y="388" type="curve" smooth="yes"/>
      <point x="121" y="487"/>
      <point x="187" y="538"/>
      <point x="277" y="538" type="curve" smooth="yes"/>
      <point x="395" y="538"/>
      <point x="465" y="452"/>
      <point x="465" y="309" type="curve" smooth="yes"/>
      <point x="465" y="168"/>
      <point x="401" y="84"/>
      <point x="280" y="84" type="curve" smooth="yes"/>
      <point x="196" y="84"/>
      <point x="135" y="118"/>
      <point x="90" y="192" type="curve"/>
      <point x="49" y="165" type="line"/>
      <point x="40" y="123" type="line"/>
      <point x="74" y="128" type="line"/>
      <point x="113" y="59"/>
      <point x="175" y="-10"/>
      <point x="293" y="-10" type="curve" smooth="yes"/>
      <point x="422" y="-10"/>
      <point x="520" y="80"/>
      <point x="520" y="294" type="curve" smooth="yes"/>
      <point x="520" y="482"/>
      <point x="422" y="589"/>
      <point x="273" y="589" type="curve" smooth="yes"/>
      <point x="142" y="589"/>
      <point x="65" y="502"/>
      <point x="65" y="386" type="curve" smooth="yes"/>
      <point x="65" y="268"/>
      <point x="151" y="171"/>
    </contour>
    <contour>
      <point x="267" y="287" type="curve" smooth="yes"/>
      <point x="267" y="331"/>
      <point x="282" y="349"/>
      <point x="306" y="349" type="curve" smooth="yes"/>
      <point x="334" y="349"/>
      <point x="346" y="327"/>
      <point x="346" y="290" type="curve" smooth="yes"/>
      <point x="346" y="248"/>
      <point x="332" y="227"/>
      <point x="306" y="227" type="curve" smooth="yes"/>
      <point x="281" y="227"/>
      <point x="267" y="249"/>
    </contour>
    <contour>
      <point x="474" y="330" type="curve"/>
      <point x="518" y="329" type="line"/>
      <point x="518" y="397"/>
      <point x="524" y="433"/>
      <point x="551" y="433" type="curve" smooth="yes"/>
      <point x="573" y="433"/>
      <point x="584" y="407"/>
      <point x="585" y="323" type="curve"/>
      <point x="634" y="323" type="line"/>
      <point x="634" y="422"/>
      <point x="649" y="455"/>
      <point x="680" y="455" type="curve" smooth="yes"/>
      <point x="719" y="455"/>
      <point x="734" y="372"/>
      <point x="734" y="248" type="curve" smooth="yes"/>
      <point x="734" y="116"/>
      <point x="721" y="39"/>
      <point x="664" y="39" type="curve" smooth="yes"/>
      <point x="630" y="39"/>
      <point x="611" y="58"/>
      <point x="583" y="123" type="curve"/>
      <point x="536" y="102" type="line"/>
      <point x="567" y="27"/>
      <point x="609" y="-10"/>
      <point x="670" y="-10" type="curve" smooth="yes"/>
      <point x="765" y="-10"/>
      <point x="821" y="61"/>
      <point x="821" y="248" type="curve" smooth="yes"/>
      <point x="821" y="438"/>
      <point x="762" y="504"/>
      <point x="695" y="504" type="curve" smooth="yes"/>
      <point x="651" y="504"/>
      <point x="624" y="481"/>
      <point x="606" y="439" type="curve"/>
      <point x="593" y="467"/>
      <point x="576" y="484"/>
      <point x="548" y="484" type="curve" smooth="yes"/>
      <point x="497" y="484"/>
      <point x="474" y="417"/>
    </contour>
  </outline>
</glyph>
<glyph name="nnddasinh" format="2">
  <advance width="750"/>
  <unicode hex="0DAC"/>
  <outline>
    <contour>
      <point x="555" y="-10" type="curve" smooth="yes"/>
      <point x="642" y="-10"/>
      <point x="711" y="75"/>
      <point x="711" y="345" type="curve" smooth="yes"/>
      <point x="711" y="674"/>
      <point x="594" y="804"/>
      <point x="404" y="804" type="curve" smooth="yes"/>
      <point x="318" y="804"/>
      <point x="244" y="779"/>
      <point x="169" y="735" type="curve"/>
      <point x="197" y="691" type="line"/>
      <point x="264" y="730"/>
      <point x="330" y="753"/>
      <point x="406" y="753" type="curve" smooth="yes"/>
      <point x="572" y="753"/>
      <point x="652" y="620"/>
      <point x="652" y="360" type="curve" smooth="yes"/>
      <point x="652" y="148"/>
      <point x="612" y="90"/>
      <point x="543" y="90" type="curve" smooth="yes"/>
      <point x="482" y="90"/>
      <point x="459" y="129"/>
      <point x="449" y="199" type="curve"/>
      <point x="399" y="199" type="line"/>
      <point x="388" y="136"/>
      <point x="364" y="90"/>
      <point x="305" y="90" type="curve" smooth="yes"/>
      <point x="252" y="90"/>
      <point x="221" y="127"/>
      <point x="221" y="210" type="curve" smooth="yes"/>
      <point x="221" y="306"/>
      <point x="274" y="380"/>
      <point x="374" y="400" type="curve"/>
      <point x="297" y="392" type="line"/>
      <point x="424" y="392" type="line"/>
      <point x="424" y="418" type="line" smooth="yes"/>
      <point x="424" y="523"/>
      <point x="379" y="589"/>
      <point x="300" y="589" type="curve" smooth="yes"/>
      <point x="248" y="589"/>
      <point x="204" y="555"/>
      <point x="204" y="490" type="curve" smooth="yes"/>
      <point x="204" y="482"/>
      <point x="206" y="463"/>
      <point x="210" y="452" type="curve"/>
      <point x="281" y="459" type="line"/>
      <point x="279" y="465"/>
      <point x="278" y="477"/>
      <point x="278" y="483" type="curve" smooth="yes"/>
      <point x="278" y="519"/>
      <point x="291" y="536"/>
      <point x="316" y="536" type="curve" smooth="yes"/>
      <point x="354" y="536"/>
      <point x="366" y="487"/>
      <point x="373" y="442" type="curve"/>
      <point x="146" y="442" type="line"/>
      <point x="146" y="392" type="line"/>
      <point x="180" y="392" type="line" smooth="yes"/>
      <point x="210" y="392"/>
      <point x="259" y="392"/>
      <point x="295" y="397" type="curve"/>
      <point x="317" y="425" type="line"/>
      <point x="220" y="389"/>
      <point x="163" y="302"/>
      <point x="163" y="182" type="curve" smooth="yes"/>
      <point x="163" y="57"/>
      <point x="212" y="-10"/>
      <point x="294" y="-10" type="curve" smooth="yes"/>
      <point x="370" y="-10"/>
      <point x="407" y="47"/>
      <point x="424" y="126" type="curve"/>
      <point x="437" y="45"/>
      <point x="476" y="-10"/>
    </contour>
    <contour>
      <point x="35" y="329" type="curve" smooth="yes"/>
      <point x="35" y="226"/>
      <point x="64" y="146"/>
      <point x="107" y="79" type="curve"/>
      <point x="153" y="107" type="line"/>
      <point x="117" y="165"/>
      <point x="91" y="230"/>
      <point x="91" y="324" type="curve" smooth="yes"/>
      <point x="91" y="468"/>
      <point x="168" y="543"/>
      <point x="256" y="543" type="curve" smooth="yes"/>
      <point x="262" y="543"/>
      <point x="273" y="542"/>
      <point x="279" y="541" type="curve"/>
      <point x="299" y="583" type="line"/>
      <point x="288" y="586"/>
      <point x="268" y="589"/>
      <point x="257" y="589" type="curve" smooth="yes"/>
      <point x="142" y="589"/>
      <point x="35" y="498"/>
    </contour>
  </outline>
</glyph>
<glyph name="tasinh" format="2">
  <advance width="704"/>
  <unicode hex="0DAD"/>
  <outline>
    <contour>
      <point x="263" y="-10" type="curve" smooth="yes"/>
      <point x="400" y="-10"/>
      <point x="448" y="111"/>
      <point x="448" y="223" type="curve" smooth="yes"/>
      <point x="448" y="310"/>
      <point x="412" y="442"/>
      <point x="255" y="442" type="curve" smooth="yes"/>
      <point x="232" y="442"/>
      <point x="222" y="441"/>
      <point x="208" y="438" type="curve"/>
      <point x="169" y="387" type="line"/>
      <point x="200" y="392"/>
      <point x="232" y="392"/>
      <point x="239" y="392" type="curve" smooth="yes"/>
      <point x="367" y="392"/>
      <point x="393" y="312"/>
      <point x="393" y="232" type="curve" smooth="yes"/>
      <point x="393" y="150"/>
      <point x="350" y="90"/>
      <point x="258" y="90" type="curve" smooth="yes"/>
      <point x="187" y="90"/>
      <point x="132" y="113"/>
      <point x="132" y="190" type="curve" smooth="yes"/>
      <point x="132" y="196"/>
      <point x="132" y="203"/>
      <point x="134" y="215" type="curve"/>
      <point x="81" y="221" type="line"/>
      <point x="59" y="170" type="line"/>
      <point x="106" y="162" type="line"/>
      <point x="91" y="207" type="line"/>
      <point x="87" y="192"/>
      <point x="85" y="179"/>
      <point x="85" y="163" type="curve" smooth="yes"/>
      <point x="85" y="33"/>
      <point x="174" y="-10"/>
    </contour>
    <contour>
      <point x="500" y="-8" type="curve" smooth="yes"/>
      <point x="603" y="-8"/>
      <point x="669" y="85"/>
      <point x="669" y="265" type="curve" smooth="yes"/>
      <point x="669" y="462"/>
      <point x="588" y="589"/>
      <point x="450" y="589" type="curve" smooth="yes"/>
      <point x="307" y="589"/>
      <point x="204" y="449"/>
      <point x="14" y="196" type="curve"/>
      <point x="59" y="170" type="line"/>
      <point x="132" y="276"/>
      <point x="181" y="341"/>
      <point x="248" y="413" type="curve"/>
      <point x="253" y="418"/>
      <point x="258" y="427"/>
      <point x="263" y="431" type="curve"/>
      <point x="321" y="493"/>
      <point x="370" y="509"/>
      <point x="433" y="509" type="curve" smooth="yes"/>
      <point x="551" y="509"/>
      <point x="605" y="399"/>
      <point x="605" y="251" type="curve" smooth="yes"/>
      <point x="605" y="121"/>
      <point x="567" y="43"/>
      <point x="494" y="43" type="curve" smooth="yes"/>
      <point x="468" y="43"/>
      <point x="450" y="46"/>
      <point x="430" y="52" type="curve"/>
      <point x="418" y="3" type="line"/>
      <point x="443" y="-5"/>
      <point x="469" y="-8"/>
    </contour>
    <contour>
      <point x="125" y="571" type="curve" smooth="yes"/>
      <point x="67" y="571"/>
      <point x="29" y="530"/>
      <point x="29" y="463" type="curve" smooth="yes"/>
      <point x="29" y="423"/>
      <point x="41" y="390"/>
      <point x="51" y="371" type="curve"/>
      <point x="120" y="390" type="line"/>
      <point x="113" y="409"/>
      <point x="107" y="429"/>
      <point x="107" y="462" type="curve" smooth="yes"/>
      <point x="107" y="487"/>
      <point x="118" y="516"/>
      <point x="143" y="516" type="curve" smooth="yes"/>
      <point x="170" y="516"/>
      <point x="186" y="487"/>
      <point x="200" y="419" type="curve"/>
      <point x="245" y="439" type="line"/>
      <point x="234" y="508"/>
      <point x="197" y="571"/>
    </contour>
  </outline>
</glyph>
<glyph name="thasinh" format="2">
  <advance width="583"/>
  <unicode hex="0DAE"/>
  <outline>
    <contour>
      <point x="261" y="-10" type="curve" smooth="yes"/>
      <point x="460" y="-10"/>
      <point x="549" y="165"/>
      <point x="549" y="403" type="curve" smooth="yes"/>
      <point x="549" y="678"/>
      <point x="410" y="785"/>
      <point x="210" y="812" type="curve"/>
      <point x="202" y="758" type="line"/>
      <point x="360" y="748"/>
      <point x="490" y="672"/>
      <point x="490" y="402" type="curve" smooth="yes"/>
      <point x="490" y="255"/>
      <point x="435" y="90"/>
      <point x="258" y="90" type="curve" smooth="yes"/>
      <point x="153" y="90"/>
      <point x="91" y="152"/>
      <point x="91" y="272" type="curve" smooth="yes"/>
      <point x="91" y="384"/>
      <point x="152" y="453"/>
      <point x="260" y="453" type="curve" smooth="yes"/>
      <point x="276" y="453"/>
      <point x="294" y="452"/>
      <point x="310" y="448" type="curve"/>
      <point x="319" y="498" type="line"/>
      <point x="302" y="502"/>
      <point x="276" y="504"/>
      <point x="263" y="504" type="curve" smooth="yes"/>
      <point x="128" y="504"/>
      <point x="35" y="413"/>
      <point x="35" y="258" type="curve" smooth="yes"/>
      <point x="35" y="85"/>
      <point x="116" y="-10"/>
    </contour>
    <contour>
      <point x="348" y="557" type="curve" smooth="yes"/>
      <point x="408" y="557"/>
      <point x="445" y="608"/>
      <point x="468" y="680" type="curve"/>
      <point x="426" y="707" type="line"/>
      <point x="410" y="646"/>
      <point x="391" y="617"/>
      <point x="356" y="617" type="curve" smooth="yes"/>
      <point x="320" y="617"/>
      <point x="308" y="637"/>
      <point x="295" y="695" type="curve" smooth="yes"/>
      <point x="284" y="745"/>
      <point x="266" y="770"/>
      <point x="225" y="793" type="curve"/>
      <point x="212" y="758" type="line"/>
      <point x="224" y="753"/>
      <point x="235" y="742"/>
      <point x="245" y="683" type="curve" smooth="yes"/>
      <point x="258" y="606"/>
      <point x="281" y="557"/>
    </contour>
  </outline>
</glyph>
<glyph name="dasinh" format="2">
  <advance width="411"/>
  <unicode hex="0DAF"/>
  <outline>
    <contour>
      <point x="271" y="-10" type="curve" smooth="yes"/>
      <point x="307" y="-10"/>
      <point x="369" y="3"/>
      <point x="411" y="26" type="curve"/>
      <point x="393" y="74" type="line"/>
      <point x="351" y="51"/>
      <point x="318" y="44"/>
      <point x="279" y="44" type="curve" smooth="yes"/>
      <point x="180" y="44"/>
      <point x="126" y="102"/>
      <point x="126" y="214" type="curve" smooth="yes"/>
      <point x="126" y="338"/>
      <point x="200" y="392"/>
      <point x="329" y="392" type="curve" smooth="yes"/>
      <point x="383" y="392" type="line"/>
      <point x="383" y="410" type="line" smooth="yes"/>
      <point x="383" y="515"/>
      <point x="338" y="589"/>
      <point x="251" y="589" type="curve" smooth="yes"/>
      <point x="192" y="589"/>
      <point x="150" y="562"/>
      <point x="150" y="497" type="curve" smooth="yes"/>
      <point x="150" y="475"/>
      <point x="156" y="451"/>
      <point x="161" y="440" type="curve"/>
      <point x="232" y="450" type="line"/>
      <point x="229" y="462"/>
      <point x="228" y="475"/>
      <point x="228" y="484" type="curve" smooth="yes"/>
      <point x="228" y="522"/>
      <point x="242" y="536"/>
      <point x="268" y="536" type="curve" smooth="yes"/>
      <point x="309" y="536"/>
      <point x="326" y="492"/>
      <point x="331" y="442" type="curve"/>
      <point x="327" y="442" type="line"/>
      <point x="188" y="442"/>
      <point x="33" y="387"/>
      <point x="33" y="207" type="curve" smooth="yes"/>
      <point x="33" y="80"/>
      <point x="108" y="-10"/>
    </contour>
    <contour>
      <point x="332" y="-283" type="curve" smooth="yes"/>
      <point x="377" y="-283"/>
      <point x="413" y="-270"/>
      <point x="449" y="-249" type="curve"/>
      <point x="428" y="-206" type="line"/>
      <point x="401" y="-224"/>
      <point x="383" y="-228"/>
      <point x="362" y="-228" type="curve" smooth="yes"/>
      <point x="308" y="-228"/>
      <point x="280" y="-194"/>
      <point x="280" y="-138" type="curve" smooth="yes"/>
      <point x="280" y="-81"/>
      <point x="308" y="-33"/>
      <point x="376" y="20" type="curve"/>
      <point x="313" y="10" type="line"/>
      <point x="251" y="-29"/>
      <point x="206" y="-76"/>
      <point x="206" y="-152" type="curve" smooth="yes"/>
      <point x="206" y="-224"/>
      <point x="245" y="-283"/>
    </contour>
  </outline>
</glyph>
<glyph name="nasinh" format="2">
  <advance width="692"/>
  <unicode hex="0DB1"/>
  <outline>
    <contour>
      <point x="244" y="-10" type="curve" smooth="yes"/>
      <point x="387" y="-10"/>
      <point x="435" y="118"/>
      <point x="435" y="232" type="curve" smooth="yes"/>
      <point x="435" y="365"/>
      <point x="356" y="442"/>
      <point x="263" y="442" type="curve" smooth="yes"/>
      <point x="256" y="442"/>
      <point x="243" y="441"/>
      <point x="234" y="439" type="curve"/>
      <point x="201" y="388" type="line"/>
      <point x="221" y="391"/>
      <point x="240" y="392"/>
      <point x="248" y="392" type="curve" smooth="yes"/>
      <point x="338" y="392"/>
      <point x="380" y="336"/>
      <point x="380" y="242" type="curve" smooth="yes"/>
      <point x="380" y="154"/>
      <point x="336" y="90"/>
      <point x="238" y="90" type="curve" smooth="yes"/>
      <point x="127" y="90"/>
      <point x="83" y="166"/>
      <point x="83" y="253" type="curve" smooth="yes"/>
      <point x="83" y="271"/>
      <point x="85" y="297"/>
      <point x="86" y="303" type="curve"/>
      <point x="37" y="307" type="line"/>
      <point x="36" y="300"/>
      <point x="34" y="283"/>
      <point x="34" y="267" type="curve" smooth="yes"/>
      <point x="34" y="103"/>
      <point x="104" y="-10"/>
    </contour>
    <contour>
      <point x="487" y="-8" type="curve" smooth="yes"/>
      <point x="590" y="-8"/>
      <point x="656" y="85"/>
      <point x="656" y="269" type="curve" smooth="yes"/>
      <point x="656" y="463"/>
      <point x="572" y="589"/>
      <point x="438" y="589" type="curve" smooth="yes"/>
      <point x="330" y="589"/>
      <point x="265" y="495"/>
      <point x="203" y="398" type="curve" smooth="yes"/>
      <point x="143" y="304"/>
      <point x="118" y="290"/>
      <point x="84" y="290" type="curve" smooth="yes"/>
      <point x="72" y="290"/>
      <point x="60" y="294"/>
      <point x="51" y="302" type="curve"/>
      <point x="45" y="258" type="line"/>
      <point x="54" y="247"/>
      <point x="69" y="237"/>
      <point x="88" y="237" type="curve" smooth="yes"/>
      <point x="135" y="237"/>
      <point x="178" y="259"/>
      <point x="235" y="359" type="curve" smooth="yes"/>
      <point x="248" y="379"/>
      <point x="258" y="398"/>
      <point x="270" y="414" type="curve"/>
      <point x="278" y="430" type="line"/>
      <point x="315" y="477"/>
      <point x="348" y="509"/>
      <point x="421" y="509" type="curve" smooth="yes"/>
      <point x="520" y="509"/>
      <point x="592" y="424"/>
      <point x="592" y="251" type="curve" smooth="yes"/>
      <point x="592" y="120"/>
      <point x="554" y="43"/>
      <point x="481" y="43" type="curve" smooth="yes"/>
      <point x="455" y="43"/>
      <point x="437" y="46"/>
      <point x="417" y="52" type="curve"/>
      <point x="405" y="3" type="line"/>
      <point x="427" y="-4"/>
      <point x="452" y="-8"/>
    </contour>
    <contour>
      <point x="146" y="571" type="curve" smooth="yes"/>
      <point x="88" y="571"/>
      <point x="50" y="530"/>
      <point x="50" y="463" type="curve" smooth="yes"/>
      <point x="50" y="423"/>
      <point x="62" y="390"/>
      <point x="72" y="371" type="curve"/>
      <point x="141" y="390" type="line"/>
      <point x="134" y="409"/>
      <point x="128" y="429"/>
      <point x="128" y="462" type="curve" smooth="yes"/>
      <point x="128" y="487"/>
      <point x="139" y="516"/>
      <point x="164" y="516" type="curve" smooth="yes"/>
      <point x="191" y="516"/>
      <point x="207" y="487"/>
      <point x="221" y="419" type="curve"/>
      <point x="263" y="438" type="line"/>
      <point x="255" y="508"/>
      <point x="218" y="571"/>
    </contour>
  </outline>
</glyph>
<glyph name="ndasinh" format="2">
  <advance width="511"/>
  <unicode hex="0DB3"/>
  <outline>
    <contour>
      <point x="371" y="-10" type="curve" smooth="yes"/>
      <point x="407" y="-10"/>
      <point x="469" y="2"/>
      <point x="511" y="24" type="curve"/>
      <point x="493" y="72" type="line"/>
      <point x="453" y="50"/>
      <point x="424" y="44"/>
      <point x="384" y="44" type="curve" smooth="yes"/>
      <point x="292" y="44"/>
      <point x="236" y="102"/>
      <point x="236" y="214" type="curve" smooth="yes"/>
      <point x="236" y="338"/>
      <point x="310" y="392"/>
      <point x="435" y="392" type="curve" smooth="yes"/>
      <point x="483" y="392" type="line"/>
      <point x="483" y="410" type="line" smooth="yes"/>
      <point x="483" y="515"/>
      <point x="438" y="589"/>
      <point x="351" y="589" type="curve" smooth="yes"/>
      <point x="292" y="589"/>
      <point x="250" y="557"/>
      <point x="250" y="497" type="curve" smooth="yes"/>
      <point x="250" y="475"/>
      <point x="256" y="451"/>
      <point x="261" y="440" type="curve"/>
      <point x="332" y="450" type="line"/>
      <point x="329" y="462"/>
      <point x="328" y="475"/>
      <point x="328" y="484" type="curve" smooth="yes"/>
      <point x="328" y="522"/>
      <point x="342" y="536"/>
      <point x="368" y="536" type="curve" smooth="yes"/>
      <point x="410" y="536"/>
      <point x="426" y="492"/>
      <point x="431" y="442" type="curve"/>
      <point x="429" y="442" type="line"/>
      <point x="297" y="441"/>
      <point x="146" y="386"/>
      <point x="146" y="207" type="curve" smooth="yes"/>
      <point x="146" y="80"/>
      <point x="229" y="-10"/>
    </contour>
    <contour>
      <point x="432" y="-283" type="curve" smooth="yes"/>
      <point x="477" y="-283"/>
      <point x="513" y="-270"/>
      <point x="549" y="-249" type="curve"/>
      <point x="528" y="-206" type="line"/>
      <point x="501" y="-224"/>
      <point x="483" y="-228"/>
      <point x="462" y="-228" type="curve" smooth="yes"/>
      <point x="408" y="-228"/>
      <point x="380" y="-194"/>
      <point x="380" y="-138" type="curve" smooth="yes"/>
      <point x="380" y="-81"/>
      <point x="408" y="-33"/>
      <point x="476" y="20" type="curve"/>
      <point x="411" y="9" type="line"/>
      <point x="349" y="-30"/>
      <point x="306" y="-76"/>
      <point x="306" y="-152" type="curve" smooth="yes"/>
      <point x="306" y="-224"/>
      <point x="345" y="-283"/>
    </contour>
    <contour>
      <point x="35" y="329" type="curve" smooth="yes"/>
      <point x="35" y="223"/>
      <point x="64" y="148"/>
      <point x="113" y="70" type="curve"/>
      <point x="158" y="99" type="line"/>
      <point x="118" y="160"/>
      <point x="91" y="231"/>
      <point x="91" y="324" type="curve" smooth="yes"/>
      <point x="91" y="468"/>
      <point x="170" y="540"/>
      <point x="260" y="540" type="curve" smooth="yes"/>
      <point x="266" y="540"/>
      <point x="277" y="540"/>
      <point x="283" y="539" type="curve"/>
      <point x="319" y="582" type="line"/>
      <point x="301" y="588"/>
      <point x="281" y="589"/>
      <point x="257" y="589" type="curve" smooth="yes"/>
      <point x="142" y="589"/>
      <point x="35" y="498"/>
    </contour>
  </outline>
</glyph>
<glyph name="pasinh" format="2">
  <advance width="576"/>
  <unicode hex="0DB4"/>
  <outline>
    <contour>
      <point x="468" y="425" type="curve"/>
      <point x="516" y="414" type="line"/>
      <point x="521" y="432"/>
      <point x="525" y="451"/>
      <point x="525" y="482" type="curve" smooth="yes"/>
      <point x="525" y="544"/>
      <point x="494" y="589"/>
      <point x="430" y="589" type="curve" smooth="yes"/>
      <point x="352" y="589"/>
      <point x="304" y="514"/>
      <point x="304" y="404" type="curve" smooth="yes"/>
      <point x="304" y="392" type="line"/>
      <point x="319" y="392" type="line" smooth="yes"/>
      <point x="414" y="392"/>
      <point x="485" y="359"/>
      <point x="485" y="256" type="curve" smooth="yes"/>
      <point x="485" y="151"/>
      <point x="413" y="90"/>
      <point x="287" y="90" type="curve" smooth="yes"/>
      <point x="160" y="90"/>
      <point x="91" y="149"/>
      <point x="91" y="251" type="curve" smooth="yes"/>
      <point x="91" y="355"/>
      <point x="164" y="392"/>
      <point x="255" y="392" type="curve" smooth="yes"/>
      <point x="277" y="392" type="line"/>
      <point x="277" y="418" type="line" smooth="yes"/>
      <point x="277" y="523"/>
      <point x="232" y="589"/>
      <point x="153" y="589" type="curve" smooth="yes"/>
      <point x="90" y="589"/>
      <point x="53" y="555"/>
      <point x="53" y="494" type="curve" smooth="yes"/>
      <point x="53" y="466"/>
      <point x="61" y="446"/>
      <point x="70" y="426" type="curve"/>
      <point x="137" y="444" type="line"/>
      <point x="134" y="456"/>
      <point x="131" y="469"/>
      <point x="131" y="485" type="curve" smooth="yes"/>
      <point x="131" y="519"/>
      <point x="144" y="536"/>
      <point x="169" y="536" type="curve" smooth="yes"/>
      <point x="207" y="536"/>
      <point x="220" y="487"/>
      <point x="226" y="437" type="curve"/>
      <point x="256" y="442" type="line"/>
      <point x="249" y="442" type="line" smooth="yes"/>
      <point x="123" y="442"/>
      <point x="35" y="368"/>
      <point x="35" y="239" type="curve" smooth="yes"/>
      <point x="35" y="86"/>
      <point x="119" y="-10"/>
      <point x="287" y="-10" type="curve" smooth="yes"/>
      <point x="453" y="-10"/>
      <point x="541" y="88"/>
      <point x="541" y="238" type="curve" smooth="yes"/>
      <point x="541" y="368"/>
      <point x="466" y="442"/>
      <point x="337" y="442" type="curve" smooth="yes"/>
      <point x="329" y="442" type="line"/>
      <point x="356" y="438" type="line"/>
      <point x="363" y="496"/>
      <point x="383" y="531"/>
      <point x="423" y="531" type="curve" smooth="yes"/>
      <point x="452" y="531"/>
      <point x="472" y="514"/>
      <point x="472" y="465" type="curve" smooth="yes"/>
      <point x="472" y="450"/>
      <point x="470" y="437"/>
    </contour>
  </outline>
</glyph>
<glyph name="phasinh" format="2">
  <advance width="591"/>
  <unicode hex="0DB5"/>
  <outline>
    <contour>
      <point x="264" y="-10" type="curve" smooth="yes"/>
      <point x="468" y="-10"/>
      <point x="557" y="165"/>
      <point x="557" y="403" type="curve" smooth="yes"/>
      <point x="557" y="678"/>
      <point x="418" y="785"/>
      <point x="218" y="812" type="curve"/>
      <point x="210" y="758" type="line"/>
      <point x="368" y="748"/>
      <point x="498" y="672"/>
      <point x="498" y="402" type="curve" smooth="yes"/>
      <point x="498" y="255"/>
      <point x="443" y="90"/>
      <point x="259" y="90" type="curve" smooth="yes"/>
      <point x="152" y="90"/>
      <point x="91" y="148"/>
      <point x="91" y="243" type="curve" smooth="yes"/>
      <point x="91" y="302"/>
      <point x="110" y="339"/>
      <point x="145" y="362" type="curve" smooth="yes"/>
      <point x="177" y="383"/>
      <point x="213" y="392"/>
      <point x="303" y="392" type="curve" smooth="yes"/>
      <point x="334" y="392" type="line"/>
      <point x="334" y="410" type="line" smooth="yes"/>
      <point x="334" y="518"/>
      <point x="287" y="589"/>
      <point x="202" y="589" type="curve" smooth="yes"/>
      <point x="143" y="589"/>
      <point x="101" y="562"/>
      <point x="101" y="497" type="curve" smooth="yes"/>
      <point x="101" y="475"/>
      <point x="108" y="451"/>
      <point x="112" y="440" type="curve"/>
      <point x="183" y="450" type="line"/>
      <point x="180" y="462"/>
      <point x="179" y="475"/>
      <point x="179" y="484" type="curve" smooth="yes"/>
      <point x="179" y="522"/>
      <point x="193" y="536"/>
      <point x="219" y="536" type="curve" smooth="yes"/>
      <point x="260" y="536"/>
      <point x="277" y="492"/>
      <point x="282" y="442" type="curve"/>
      <point x="280" y="442" type="line" smooth="yes"/>
      <point x="211" y="442"/>
      <point x="166" y="431"/>
      <point x="125" y="408" type="curve"/>
      <point x="70" y="376"/>
      <point x="35" y="318"/>
      <point x="35" y="231" type="curve" smooth="yes"/>
      <point x="35" y="86"/>
      <point x="111" y="-10"/>
    </contour>
    <contour>
      <point x="356" y="557" type="curve" smooth="yes"/>
      <point x="416" y="557"/>
      <point x="453" y="608"/>
      <point x="476" y="680" type="curve"/>
      <point x="434" y="707" type="line"/>
      <point x="418" y="646"/>
      <point x="399" y="617"/>
      <point x="364" y="617" type="curve" smooth="yes"/>
      <point x="328" y="617"/>
      <point x="316" y="637"/>
      <point x="303" y="695" type="curve" smooth="yes"/>
      <point x="292" y="745"/>
      <point x="274" y="770"/>
      <point x="233" y="793" type="curve"/>
      <point x="220" y="758" type="line"/>
      <point x="232" y="753"/>
      <point x="243" y="742"/>
      <point x="253" y="683" type="curve" smooth="yes"/>
      <point x="266" y="606"/>
      <point x="289" y="557"/>
    </contour>
  </outline>
</glyph>
<glyph name="basinh" format="2">
  <advance width="639"/>
  <unicode hex="0DB6"/>
  <outline>
    <contour>
      <point x="409" y="-10" type="curve" smooth="yes"/>
      <point x="502" y="-10"/>
      <point x="602" y="92"/>
      <point x="602" y="375" type="curve" smooth="yes"/>
      <point x="602" y="674"/>
      <point x="485" y="804"/>
      <point x="297" y="804" type="curve" smooth="yes"/>
      <point x="202" y="804"/>
      <point x="127" y="779"/>
      <point x="52" y="735" type="curve"/>
      <point x="80" y="691" type="line"/>
      <point x="148" y="730"/>
      <point x="214" y="753"/>
      <point x="297" y="753" type="curve" smooth="yes"/>
      <point x="471" y="753"/>
      <point x="543" y="612"/>
      <point x="543" y="386" type="curve" smooth="yes"/>
      <point x="543" y="187"/>
      <point x="480" y="80"/>
      <point x="415" y="80" type="curve" smooth="yes"/>
      <point x="389" y="80"/>
      <point x="375" y="95"/>
      <point x="375" y="123" type="curve" smooth="yes"/>
      <point x="375" y="201"/>
      <point x="432" y="252"/>
      <point x="432" y="359" type="curve" smooth="yes"/>
      <point x="432" y="469"/>
      <point x="369" y="548"/>
      <point x="258" y="548" type="curve" smooth="yes"/>
      <point x="146" y="548"/>
      <point x="35" y="455"/>
      <point x="35" y="249" type="curve" smooth="yes"/>
      <point x="35" y="85"/>
      <point x="99" y="-10"/>
      <point x="197" y="-10" type="curve" smooth="yes"/>
      <point x="266" y="-10"/>
      <point x="300" y="34"/>
      <point x="300" y="111" type="curve" smooth="yes"/>
      <point x="300" y="180"/>
      <point x="267" y="229"/>
      <point x="200" y="229" type="curve" smooth="yes"/>
      <point x="144" y="229"/>
      <point x="104" y="189"/>
      <point x="104" y="127" type="curve" smooth="yes"/>
      <point x="104" y="97"/>
      <point x="117" y="66"/>
      <point x="129" y="53" type="curve"/>
      <point x="130" y="59" type="line"/>
      <point x="99" y="105"/>
      <point x="91" y="145"/>
      <point x="91" y="233" type="curve" smooth="yes"/>
      <point x="91" y="381"/>
      <point x="155" y="460"/>
      <point x="248" y="460" type="curve" smooth="yes"/>
      <point x="325" y="460"/>
      <point x="365" y="405"/>
      <point x="365" y="321" type="curve" smooth="yes"/>
      <point x="365" y="208"/>
      <point x="316" y="178"/>
      <point x="316" y="94" type="curve" smooth="yes"/>
      <point x="316" y="27"/>
      <point x="349" y="-10"/>
    </contour>
    <contour>
      <point x="195" y="178" type="curve" smooth="yes"/>
      <point x="231" y="178"/>
      <point x="246" y="152"/>
      <point x="246" y="109" type="curve" smooth="yes"/>
      <point x="246" y="62"/>
      <point x="226" y="42"/>
      <point x="195" y="42" type="curve" smooth="yes"/>
      <point x="160" y="42"/>
      <point x="145" y="70"/>
      <point x="145" y="109" type="curve" smooth="yes"/>
      <point x="145" y="155"/>
      <point x="163" y="178"/>
    </contour>
  </outline>
</glyph>
<glyph name="bhasinh" format="2">
  <advance width="701"/>
  <unicode hex="0DB7"/>
  <outline>
    <contour>
      <point x="235" y="-10" type="curve" smooth="yes"/>
      <point x="377" y="-10"/>
      <point x="430" y="105"/>
      <point x="430" y="210" type="curve" smooth="yes"/>
      <point x="430" y="298"/>
      <point x="390" y="334"/>
      <point x="332" y="334" type="curve" smooth="yes"/>
      <point x="321" y="334"/>
      <point x="312" y="332"/>
      <point x="303" y="329" type="curve"/>
      <point x="335" y="317" type="line"/>
      <point x="360" y="426"/>
      <point x="398" y="504"/>
      <point x="474" y="504" type="curve" smooth="yes"/>
      <point x="554" y="504"/>
      <point x="602" y="416"/>
      <point x="602" y="263" type="curve" smooth="yes"/>
      <point x="602" y="118"/>
      <point x="560" y="43"/>
      <point x="469" y="43" type="curve" smooth="yes"/>
      <point x="449" y="43"/>
      <point x="430" y="44"/>
      <point x="413" y="49" type="curve"/>
      <point x="404" y="-2" type="line"/>
      <point x="427" y="-7"/>
      <point x="447" y="-8"/>
      <point x="468" y="-8" type="curve" smooth="yes"/>
      <point x="577" y="-8"/>
      <point x="665" y="61"/>
      <point x="665" y="290" type="curve" smooth="yes"/>
      <point x="665" y="478"/>
      <point x="590" y="589"/>
      <point x="481" y="589" type="curve" smooth="yes"/>
      <point x="380" y="589"/>
      <point x="314" y="496"/>
      <point x="283" y="292" type="curve"/>
      <point x="316" y="282" type="line"/>
      <point x="321" y="283"/>
      <point x="326" y="285"/>
      <point x="334" y="285" type="curve" smooth="yes"/>
      <point x="358" y="285"/>
      <point x="374" y="267"/>
      <point x="374" y="225" type="curve" smooth="yes"/>
      <point x="374" y="161"/>
      <point x="340" y="90"/>
      <point x="240" y="90" type="curve" smooth="yes"/>
      <point x="146" y="90"/>
      <point x="106" y="150"/>
      <point x="106" y="232" type="curve" smooth="yes"/>
      <point x="106" y="331"/>
      <point x="170" y="378"/>
      <point x="233" y="403" type="curve"/>
      <point x="170" y="392" type="line"/>
      <point x="288" y="392" type="line"/>
      <point x="288" y="418" type="line" smooth="yes"/>
      <point x="288" y="523"/>
      <point x="243" y="589"/>
      <point x="164" y="589" type="curve" smooth="yes"/>
      <point x="101" y="589"/>
      <point x="64" y="555"/>
      <point x="64" y="490" type="curve" smooth="yes"/>
      <point x="64" y="482"/>
      <point x="66" y="463"/>
      <point x="70" y="452" type="curve"/>
      <point x="145" y="459" type="line"/>
      <point x="143" y="465"/>
      <point x="142" y="477"/>
      <point x="142" y="483" type="curve" smooth="yes"/>
      <point x="142" y="519"/>
      <point x="155" y="536"/>
      <point x="180" y="536" type="curve" smooth="yes"/>
      <point x="218" y="536"/>
      <point x="230" y="487"/>
      <point x="237" y="442" type="curve"/>
      <point x="21" y="442" type="line"/>
      <point x="21" y="392" type="line"/>
      <point x="47" y="392" type="line" smooth="yes"/>
      <point x="76" y="392"/>
      <point x="134" y="393"/>
      <point x="154" y="397" type="curve"/>
      <point x="179" y="421" type="line"/>
      <point x="105" y="388"/>
      <point x="48" y="310"/>
      <point x="48" y="211" type="curve" smooth="yes"/>
      <point x="48" y="77"/>
      <point x="118" y="-10"/>
    </contour>
  </outline>
</glyph>
<glyph name="masinh" format="2">
  <advance width="623"/>
  <unicode hex="0DB8"/>
  <outline>
    <contour>
      <point x="300" y="-10" type="curve" smooth="yes"/>
      <point x="500" y="-10"/>
      <point x="588" y="162"/>
      <point x="588" y="398" type="curve" smooth="yes"/>
      <point x="588" y="703"/>
      <point x="462" y="804"/>
      <point x="281" y="804" type="curve" smooth="yes"/>
      <point x="195" y="804"/>
      <point x="115" y="779"/>
      <point x="39" y="735" type="curve"/>
      <point x="67" y="691" type="line"/>
      <point x="134" y="730"/>
      <point x="194" y="753"/>
      <point x="283" y="753" type="curve" smooth="yes"/>
      <point x="428" y="753"/>
      <point x="529" y="676"/>
      <point x="529" y="405" type="curve" smooth="yes"/>
      <point x="529" y="247"/>
      <point x="474" y="90"/>
      <point x="301" y="90" type="curve" smooth="yes"/>
      <point x="183" y="90"/>
      <point x="91" y="133"/>
      <point x="91" y="337" type="curve" smooth="yes"/>
      <point x="91" y="437"/>
      <point x="118" y="502"/>
      <point x="145" y="502" type="curve" smooth="yes"/>
      <point x="157" y="502"/>
      <point x="161" y="492"/>
      <point x="161" y="475" type="curve" smooth="yes"/>
      <point x="161" y="444"/>
      <point x="153" y="425"/>
      <point x="153" y="381" type="curve" smooth="yes"/>
      <point x="153" y="287"/>
      <point x="205" y="229"/>
      <point x="305" y="229" type="curve" smooth="yes"/>
      <point x="394" y="229"/>
      <point x="463" y="287"/>
      <point x="463" y="410" type="curve" smooth="yes"/>
      <point x="463" y="516"/>
      <point x="407" y="571"/>
      <point x="333" y="571" type="curve" smooth="yes"/>
      <point x="257" y="571"/>
      <point x="224" y="521"/>
      <point x="224" y="460" type="curve" smooth="yes"/>
      <point x="224" y="387"/>
      <point x="255" y="353"/>
      <point x="313" y="353" type="curve" smooth="yes"/>
      <point x="361" y="353"/>
      <point x="393" y="381"/>
      <point x="393" y="449" type="curve" smooth="yes"/>
      <point x="393" y="473"/>
      <point x="388" y="504"/>
      <point x="367" y="524" type="curve"/>
      <point x="365" y="522" type="line"/>
      <point x="391" y="505"/>
      <point x="411" y="468"/>
      <point x="411" y="412" type="curve" smooth="yes"/>
      <point x="411" y="334"/>
      <point x="370" y="289"/>
      <point x="303" y="289" type="curve" smooth="yes"/>
      <point x="243" y="289"/>
      <point x="204" y="321"/>
      <point x="204" y="392" type="curve" smooth="yes"/>
      <point x="204" y="435"/>
      <point x="213" y="457"/>
      <point x="213" y="489" type="curve" smooth="yes"/>
      <point x="213" y="517"/>
      <point x="202" y="557"/>
      <point x="152" y="557" type="curve" smooth="yes"/>
      <point x="86" y="557"/>
      <point x="35" y="468"/>
      <point x="35" y="320" type="curve" smooth="yes"/>
      <point x="35" y="88"/>
      <point x="138" y="-10"/>
    </contour>
    <contour>
      <point x="349" y="462" type="curve" smooth="yes"/>
      <point x="349" y="430"/>
      <point x="342" y="403"/>
      <point x="312" y="403" type="curve" smooth="yes"/>
      <point x="284" y="403"/>
      <point x="276" y="425"/>
      <point x="276" y="463" type="curve" smooth="yes"/>
      <point x="276" y="498"/>
      <point x="289" y="521"/>
      <point x="313" y="521" type="curve" smooth="yes"/>
      <point x="340" y="521"/>
      <point x="349" y="497"/>
    </contour>
  </outline>
</glyph>
<glyph name="mbasinh" format="2">
  <advance width="653"/>
  <unicode hex="0DB9"/>
  <outline>
    <contour>
      <point x="213" y="-10" type="curve" smooth="yes"/>
      <point x="241" y="-10"/>
      <point x="262" y="-7"/>
      <point x="279" y="-1" type="curve"/>
      <point x="252" y="93" type="line"/>
      <point x="243" y="88"/>
      <point x="224" y="87"/>
      <point x="204" y="87" type="curve" smooth="yes"/>
      <point x="127" y="87"/>
      <point x="95" y="165"/>
      <point x="95" y="280" type="curve" smooth="yes"/>
      <point x="95" y="418"/>
      <point x="136" y="502"/>
      <point x="164" y="502" type="curve" smooth="yes"/>
      <point x="176" y="502"/>
      <point x="180" y="492"/>
      <point x="180" y="475" type="curve" smooth="yes"/>
      <point x="180" y="444"/>
      <point x="172" y="425"/>
      <point x="172" y="381" type="curve" smooth="yes"/>
      <point x="172" y="287"/>
      <point x="224" y="232"/>
      <point x="324" y="232" type="curve" smooth="yes"/>
      <point x="412" y="232"/>
      <point x="482" y="287"/>
      <point x="482" y="410" type="curve" smooth="yes"/>
      <point x="482" y="516"/>
      <point x="426" y="571"/>
      <point x="352" y="571" type="curve" smooth="yes"/>
      <point x="276" y="571"/>
      <point x="243" y="521"/>
      <point x="243" y="460" type="curve" smooth="yes"/>
      <point x="243" y="387"/>
      <point x="274" y="353"/>
      <point x="332" y="353" type="curve" smooth="yes"/>
      <point x="380" y="353"/>
      <point x="412" y="381"/>
      <point x="412" y="449" type="curve" smooth="yes"/>
      <point x="412" y="473"/>
      <point x="407" y="504"/>
      <point x="386" y="524" type="curve"/>
      <point x="384" y="522" type="line"/>
      <point x="410" y="505"/>
      <point x="430" y="468"/>
      <point x="430" y="412" type="curve" smooth="yes"/>
      <point x="430" y="334"/>
      <point x="389" y="289"/>
      <point x="322" y="289" type="curve" smooth="yes"/>
      <point x="262" y="289"/>
      <point x="223" y="321"/>
      <point x="223" y="392" type="curve" smooth="yes"/>
      <point x="223" y="435"/>
      <point x="232" y="457"/>
      <point x="232" y="489" type="curve" smooth="yes"/>
      <point x="232" y="517"/>
      <point x="221" y="557"/>
      <point x="171" y="557" type="curve" smooth="yes"/>
      <point x="101" y="557"/>
      <point x="39" y="451"/>
      <point x="39" y="261" type="curve" smooth="yes"/>
      <point x="39" y="79"/>
      <point x="107" y="-10"/>
    </contour>
    <contour>
      <point x="402" y="-10" type="curve" smooth="yes"/>
      <point x="536" y="-10"/>
      <point x="614" y="100"/>
      <point x="614" y="355" type="curve" smooth="yes"/>
      <point x="614" y="682"/>
      <point x="501" y="804"/>
      <point x="304" y="804" type="curve" smooth="yes"/>
      <point x="208" y="804"/>
      <point x="125" y="780"/>
      <point x="50" y="736" type="curve"/>
      <point x="78" y="692" type="line"/>
      <point x="145" y="731"/>
      <point x="222" y="753"/>
      <point x="306" y="753" type="curve" smooth="yes"/>
      <point x="478" y="753"/>
      <point x="555" y="628"/>
      <point x="555" y="379" type="curve" smooth="yes"/>
      <point x="555" y="161"/>
      <point x="502" y="87"/>
      <point x="402" y="87" type="curve" smooth="yes"/>
      <point x="389" y="87"/>
      <point x="376" y="88"/>
      <point x="361" y="90" type="curve"/>
      <point x="338" y="-1" type="line"/>
      <point x="355" y="-6"/>
      <point x="375" y="-10"/>
    </contour>
    <contour>
      <point x="368" y="462" type="curve" smooth="yes"/>
      <point x="368" y="430"/>
      <point x="361" y="403"/>
      <point x="331" y="403" type="curve" smooth="yes"/>
      <point x="303" y="403"/>
      <point x="295" y="425"/>
      <point x="295" y="463" type="curve" smooth="yes"/>
      <point x="295" y="498"/>
      <point x="308" y="521"/>
      <point x="332" y="521" type="curve" smooth="yes"/>
      <point x="359" y="521"/>
      <point x="368" y="497"/>
    </contour>
    <contour>
      <point x="310" y="171" type="curve" smooth="yes"/>
      <point x="354" y="171"/>
      <point x="371" y="146"/>
      <point x="371" y="122" type="curve" smooth="yes"/>
      <point x="371" y="100"/>
      <point x="360" y="90"/>
      <point x="351" y="86" type="curve"/>
      <point x="338" y="-1" type="line"/>
      <point x="376" y="32" type="line"/>
      <point x="404" y="51"/>
      <point x="427" y="78"/>
      <point x="427" y="126" type="curve" smooth="yes"/>
      <point x="427" y="188"/>
      <point x="379" y="222"/>
      <point x="310" y="222" type="curve" smooth="yes"/>
      <point x="240" y="222"/>
      <point x="192" y="186"/>
      <point x="192" y="126" type="curve" smooth="yes"/>
      <point x="192" y="80"/>
      <point x="211" y="51"/>
      <point x="248" y="26" type="curve"/>
      <point x="279" y="-1" type="line"/>
      <point x="267" y="87" type="line"/>
      <point x="257" y="93"/>
      <point x="248" y="103"/>
      <point x="248" y="122" type="curve" smooth="yes"/>
      <point x="248" y="146"/>
      <point x="265" y="171"/>
    </contour>
  </outline>
</glyph>
<glyph name="yasinh" format="2">
  <advance width="590"/>
  <unicode hex="0DBA"/>
  <outline>
    <contour>
      <point x="423" y="-10" type="curve" smooth="yes"/>
      <point x="508" y="-10"/>
      <point x="554" y="69"/>
      <point x="554" y="203" type="curve" smooth="yes"/>
      <point x="554" y="364"/>
      <point x="448" y="442"/>
      <point x="333" y="442" type="curve"/>
      <point x="366" y="438" type="line"/>
      <point x="373" y="496"/>
      <point x="394" y="531"/>
      <point x="435" y="531" type="curve" smooth="yes"/>
      <point x="465" y="531"/>
      <point x="486" y="514"/>
      <point x="486" y="465" type="curve" smooth="yes"/>
      <point x="486" y="447"/>
      <point x="482" y="425"/>
      <point x="479" y="414" type="curve"/>
      <point x="527" y="403" type="line"/>
      <point x="534" y="425"/>
      <point x="539" y="449"/>
      <point x="539" y="482" type="curve" smooth="yes"/>
      <point x="539" y="544"/>
      <point x="507" y="589"/>
      <point x="442" y="589" type="curve" smooth="yes"/>
      <point x="363" y="589"/>
      <point x="314" y="514"/>
      <point x="314" y="404" type="curve" smooth="yes"/>
      <point x="314" y="392" type="line"/>
      <point x="318" y="392" type="line" smooth="yes"/>
      <point x="445" y="392"/>
      <point x="498" y="314"/>
      <point x="498" y="213" type="curve" smooth="yes"/>
      <point x="498" y="132"/>
      <point x="470" y="90"/>
      <point x="415" y="90" type="curve" smooth="yes"/>
      <point x="353" y="90"/>
      <point x="330" y="129"/>
      <point x="320" y="199" type="curve"/>
      <point x="270" y="199" type="line"/>
      <point x="259" y="136"/>
      <point x="235" y="90"/>
      <point x="174" y="90" type="curve" smooth="yes"/>
      <point x="122" y="90"/>
      <point x="90" y="136"/>
      <point x="90" y="220" type="curve" smooth="yes"/>
      <point x="90" y="329"/>
      <point x="150" y="395"/>
      <point x="222" y="395" type="curve" smooth="yes"/>
      <point x="231" y="395"/>
      <point x="241" y="395"/>
      <point x="252" y="393" type="curve"/>
      <point x="258" y="443" type="line"/>
      <point x="248" y="445"/>
      <point x="235" y="446"/>
      <point x="228" y="446" type="curve" smooth="yes"/>
      <point x="114" y="446"/>
      <point x="34" y="355"/>
      <point x="34" y="202" type="curve" smooth="yes"/>
      <point x="34" y="60"/>
      <point x="84" y="-10"/>
      <point x="168" y="-10" type="curve" smooth="yes"/>
      <point x="241" y="-10"/>
      <point x="279" y="48"/>
      <point x="295" y="126" type="curve"/>
      <point x="308" y="45"/>
      <point x="347" y="-10"/>
    </contour>
  </outline>
</glyph>
<glyph name="rasinh" format="2">
  <advance width="519"/>
  <unicode hex="0DBB"/>
  <outline>
    <contour>
      <point x="256" y="-10" type="curve" smooth="yes"/>
      <point x="396" y="-10"/>
      <point x="483" y="91"/>
      <point x="483" y="287" type="curve" smooth="yes"/>
      <point x="483" y="461"/>
      <point x="401" y="572"/>
      <point x="262" y="572" type="curve" smooth="yes"/>
      <point x="138" y="572"/>
      <point x="36" y="461"/>
      <point x="36" y="283" type="curve" smooth="yes"/>
      <point x="36" y="91"/>
      <point x="110" y="-10"/>
    </contour>
    <contour>
      <point x="258" y="91" type="curve" smooth="yes"/>
      <point x="166" y="91"/>
      <point x="95" y="150"/>
      <point x="95" y="308" type="curve" smooth="yes"/>
      <point x="95" y="443"/>
      <point x="168" y="523"/>
      <point x="260" y="523" type="curve" smooth="yes"/>
      <point x="364" y="523"/>
      <point x="424" y="437"/>
      <point x="424" y="307" type="curve" smooth="yes"/>
      <point x="424" y="151"/>
      <point x="349" y="91"/>
    </contour>
    <contour>
      <point x="151" y="535" type="curve"/>
      <point x="219" y="537" type="line"/>
      <point x="335" y="621"/>
      <point x="427" y="704"/>
      <point x="503" y="789" type="curve"/>
      <point x="451" y="836" type="line"/>
      <point x="369" y="739"/>
      <point x="279" y="650"/>
    </contour>
  </outline>
</glyph>
<glyph name="lasinh" format="2">
  <advance width="636"/>
  <unicode hex="0DBD"/>
  <outline>
    <contour>
      <point x="340" y="-256" type="curve" smooth="yes"/>
      <point x="531" y="-256"/>
      <point x="614" y="-129"/>
      <point x="614" y="49" type="curve" smooth="yes"/>
      <point x="614" y="69"/>
      <point x="613" y="91"/>
      <point x="611" y="108" type="curve"/>
      <point x="557" y="105" type="line"/>
      <point x="559" y="90"/>
      <point x="560" y="68"/>
      <point x="560" y="51" type="curve" smooth="yes"/>
      <point x="560" y="-94"/>
      <point x="496" y="-186"/>
      <point x="363" y="-186" type="curve" smooth="yes"/>
      <point x="209" y="-186"/>
      <point x="118" y="-72"/>
      <point x="118" y="169" type="curve" smooth="yes"/>
      <point x="118" y="405"/>
      <point x="220" y="556"/>
      <point x="383" y="556" type="curve" smooth="yes"/>
      <point x="502" y="556"/>
      <point x="546" y="475"/>
      <point x="546" y="383" type="curve" smooth="yes"/>
      <point x="546" y="298"/>
      <point x="515" y="244"/>
      <point x="452" y="244" type="curve" smooth="yes"/>
      <point x="411" y="244"/>
      <point x="384" y="267"/>
      <point x="384" y="316" type="curve" smooth="yes"/>
      <point x="384" y="349"/>
      <point x="403" y="383"/>
      <point x="457" y="404" type="curve"/>
      <point x="395" y="390" type="line"/>
      <point x="507" y="390" type="line"/>
      <point x="507" y="442" type="line"/>
      <point x="247" y="442" type="line"/>
      <point x="247" y="390" type="line"/>
      <point x="319" y="390" type="line" smooth="yes"/>
      <point x="345" y="390"/>
      <point x="370" y="391"/>
      <point x="392" y="395" type="curve"/>
      <point x="405" y="423" type="line"/>
      <point x="350" y="393"/>
      <point x="327" y="350"/>
      <point x="327" y="298" type="curve" smooth="yes"/>
      <point x="327" y="226"/>
      <point x="367" y="174"/>
      <point x="446" y="174" type="curve" smooth="yes"/>
      <point x="558" y="174"/>
      <point x="600" y="268"/>
      <point x="600" y="382" type="curve" smooth="yes"/>
      <point x="600" y="495"/>
      <point x="540" y="607"/>
      <point x="385" y="607" type="curve" smooth="yes"/>
      <point x="166" y="607"/>
      <point x="35" y="406"/>
      <point x="35" y="165" type="curve" smooth="yes"/>
      <point x="35" y="-112"/>
      <point x="158" y="-256"/>
    </contour>
  </outline>
</glyph>
<glyph name="vasinh" format="2">
  <advance width="591"/>
  <unicode hex="0DC0"/>
  <outline>
    <contour>
      <point x="264" y="-10" type="curve" smooth="yes"/>
      <point x="467" y="-10"/>
      <point x="557" y="162"/>
      <point x="557" y="403" type="curve" smooth="yes"/>
      <point x="557" y="705"/>
      <point x="431" y="804"/>
      <point x="265" y="804" type="curve" smooth="yes"/>
      <point x="185" y="804"/>
      <point x="111" y="779"/>
      <point x="36" y="735" type="curve"/>
      <point x="64" y="691" type="line"/>
      <point x="131" y="730"/>
      <point x="195" y="753"/>
      <point x="267" y="753" type="curve" smooth="yes"/>
      <point x="397" y="753"/>
      <point x="498" y="676"/>
      <point x="498" y="413" type="curve" smooth="yes"/>
      <point x="498" y="244"/>
      <point x="436" y="90"/>
      <point x="259" y="90" type="curve" smooth="yes"/>
      <point x="152" y="90"/>
      <point x="91" y="148"/>
      <point x="91" y="243" type="curve" smooth="yes"/>
      <point x="91" y="302"/>
      <point x="110" y="339"/>
      <point x="145" y="362" type="curve" smooth="yes"/>
      <point x="177" y="383"/>
      <point x="213" y="392"/>
      <point x="301" y="392" type="curve" smooth="yes"/>
      <point x="344" y="392" type="line"/>
      <point x="344" y="410" type="line" smooth="yes"/>
      <point x="344" y="515"/>
      <point x="299" y="589"/>
      <point x="212" y="589" type="curve" smooth="yes"/>
      <point x="153" y="589"/>
      <point x="111" y="562"/>
      <point x="111" y="497" type="curve" smooth="yes"/>
      <point x="111" y="475"/>
      <point x="118" y="451"/>
      <point x="122" y="440" type="curve"/>
      <point x="193" y="450" type="line"/>
      <point x="190" y="462"/>
      <point x="189" y="475"/>
      <point x="189" y="484" type="curve" smooth="yes"/>
      <point x="189" y="522"/>
      <point x="203" y="536"/>
      <point x="229" y="536" type="curve" smooth="yes"/>
      <point x="270" y="536"/>
      <point x="287" y="492"/>
      <point x="292" y="442" type="curve"/>
      <point x="289" y="442" type="line" smooth="yes"/>
      <point x="210" y="442"/>
      <point x="166" y="431"/>
      <point x="125" y="408" type="curve" smooth="yes"/>
      <point x="70" y="376"/>
      <point x="35" y="318"/>
      <point x="35" y="231" type="curve" smooth="yes"/>
      <point x="35" y="86"/>
      <point x="111" y="-10"/>
    </contour>
  </outline>
</glyph>
<glyph name="shasinh" format="2">
  <advance width="673"/>
  <unicode hex="0DC1"/>
  <outline>
    <contour>
      <point x="438" y="-6" type="curve" smooth="yes"/>
      <point x="550" y="-6"/>
      <point x="637" y="74"/>
      <point x="637" y="297" type="curve" smooth="yes"/>
      <point x="637" y="482"/>
      <point x="562" y="589"/>
      <point x="455" y="589" type="curve" smooth="yes"/>
      <point x="351" y="589"/>
      <point x="285" y="496"/>
      <point x="254" y="292" type="curve"/>
      <point x="287" y="282" type="line"/>
      <point x="292" y="283"/>
      <point x="297" y="285"/>
      <point x="305" y="285" type="curve" smooth="yes"/>
      <point x="329" y="285"/>
      <point x="345" y="267"/>
      <point x="345" y="212" type="curve" smooth="yes"/>
      <point x="345" y="158"/>
      <point x="320" y="90"/>
      <point x="237" y="90" type="curve" smooth="yes"/>
      <point x="129" y="90"/>
      <point x="93" y="173"/>
      <point x="93" y="296" type="curve" smooth="yes"/>
      <point x="93" y="451"/>
      <point x="172" y="538"/>
      <point x="276" y="538" type="curve" smooth="yes"/>
      <point x="286" y="538"/>
      <point x="293" y="538"/>
      <point x="302" y="536" type="curve"/>
      <point x="305" y="587" type="line"/>
      <point x="295" y="589"/>
      <point x="287" y="589"/>
      <point x="273" y="589" type="curve" smooth="yes"/>
      <point x="152" y="589"/>
      <point x="36" y="489"/>
      <point x="36" y="281" type="curve" smooth="yes"/>
      <point x="36" y="102"/>
      <point x="103" y="-10"/>
      <point x="229" y="-10" type="curve" smooth="yes"/>
      <point x="360" y="-10"/>
      <point x="401" y="101"/>
      <point x="401" y="203" type="curve" smooth="yes"/>
      <point x="401" y="298"/>
      <point x="361" y="334"/>
      <point x="303" y="334" type="curve" smooth="yes"/>
      <point x="292" y="334"/>
      <point x="283" y="332"/>
      <point x="275" y="329" type="curve"/>
      <point x="306" y="317" type="line"/>
      <point x="331" y="426"/>
      <point x="369" y="504"/>
      <point x="448" y="504" type="curve" smooth="yes"/>
      <point x="530" y="504"/>
      <point x="580" y="419"/>
      <point x="580" y="280" type="curve" smooth="yes"/>
      <point x="580" y="140"/>
      <point x="536" y="52"/>
      <point x="454" y="52" type="curve" smooth="yes"/>
      <point x="435" y="52"/>
      <point x="416" y="53"/>
      <point x="408" y="54" type="curve"/>
      <point x="405" y="-4" type="line"/>
      <point x="411" y="-5"/>
      <point x="432" y="-6"/>
    </contour>
    <contour>
      <point x="511" y="308" type="curve" smooth="yes"/>
      <point x="460" y="308"/>
      <point x="421" y="279"/>
      <point x="421" y="211" type="curve" smooth="yes"/>
      <point x="421" y="156"/>
      <point x="439" y="126"/>
      <point x="439" y="88" type="curve" smooth="yes"/>
      <point x="439" y="67"/>
      <point x="432" y="51"/>
      <point x="418" y="40" type="curve"/>
      <point x="465" y="32" type="line"/>
      <point x="484" y="50"/>
      <point x="495" y="72"/>
      <point x="495" y="102" type="curve" smooth="yes"/>
      <point x="495" y="142"/>
      <point x="480" y="169"/>
      <point x="480" y="213" type="curve" smooth="yes"/>
      <point x="480" y="239"/>
      <point x="491" y="257"/>
      <point x="518" y="257" type="curve" smooth="yes"/>
      <point x="540" y="257"/>
      <point x="563" y="246"/>
      <point x="590" y="222" type="curve"/>
      <point x="613" y="269" type="line"/>
      <point x="573" y="294"/>
      <point x="547" y="308"/>
    </contour>
  </outline>
</glyph>
<glyph name="ssasinh" format="2">
  <advance width="576"/>
  <unicode hex="0DC2"/>
  <outline>
    <contour>
      <point x="287" y="-10" type="curve" smooth="yes"/>
      <point x="453" y="-10"/>
      <point x="541" y="88"/>
      <point x="541" y="238" type="curve" smooth="yes"/>
      <point x="541" y="365"/>
      <point x="466" y="442"/>
      <point x="337" y="442" type="curve" smooth="yes"/>
      <point x="329" y="442" type="line"/>
      <point x="356" y="438" type="line"/>
      <point x="363" y="496"/>
      <point x="383" y="531"/>
      <point x="425" y="531" type="curve" smooth="yes"/>
      <point x="456" y="531"/>
      <point x="475" y="508"/>
      <point x="475" y="461" type="curve" smooth="yes"/>
      <point x="475" y="351"/>
      <point x="400" y="341"/>
      <point x="319" y="341" type="curve" smooth="yes"/>
      <point x="271" y="341" type="line" smooth="yes"/>
      <point x="204" y="341"/>
      <point x="151" y="319"/>
      <point x="151" y="251" type="curve" smooth="yes"/>
      <point x="151" y="186"/>
      <point x="202" y="150"/>
      <point x="282" y="150" type="curve" smooth="yes"/>
      <point x="387" y="150"/>
      <point x="422" y="198"/>
      <point x="422" y="252" type="curve" smooth="yes"/>
      <point x="422" y="289"/>
      <point x="404" y="310"/>
      <point x="380" y="321" type="curve"/>
      <point x="334" y="302" type="line"/>
      <point x="356" y="293"/>
      <point x="366" y="276"/>
      <point x="366" y="256" type="curve" smooth="yes"/>
      <point x="366" y="223"/>
      <point x="347" y="200"/>
      <point x="284" y="200" type="curve" smooth="yes"/>
      <point x="232" y="200"/>
      <point x="207" y="219"/>
      <point x="207" y="250" type="curve" smooth="yes"/>
      <point x="207" y="279"/>
      <point x="228" y="290"/>
      <point x="269" y="290" type="curve" smooth="yes"/>
      <point x="318" y="290" type="line" smooth="yes"/>
      <point x="414" y="290"/>
      <point x="531" y="328"/>
      <point x="531" y="469" type="curve" smooth="yes"/>
      <point x="531" y="542"/>
      <point x="500" y="589"/>
      <point x="432" y="589" type="curve" smooth="yes"/>
      <point x="352" y="589"/>
      <point x="304" y="514"/>
      <point x="304" y="404" type="curve" smooth="yes"/>
      <point x="304" y="392" type="line"/>
      <point x="319" y="392" type="line" smooth="yes"/>
      <point x="414" y="392"/>
      <point x="485" y="359"/>
      <point x="485" y="256" type="curve" smooth="yes"/>
      <point x="485" y="151"/>
      <point x="413" y="90"/>
      <point x="287" y="90" type="curve" smooth="yes"/>
      <point x="160" y="90"/>
      <point x="91" y="149"/>
      <point x="91" y="251" type="curve" smooth="yes"/>
      <point x="91" y="355"/>
      <point x="164" y="392"/>
      <point x="255" y="392" type="curve" smooth="yes"/>
      <point x="277" y="392" type="line"/>
      <point x="277" y="418" type="line" smooth="yes"/>
      <point x="277" y="523"/>
      <point x="232" y="589"/>
      <point x="153" y="589" type="curve" smooth="yes"/>
      <point x="90" y="589"/>
      <point x="53" y="555"/>
      <point x="53" y="494" type="curve" smooth="yes"/>
      <point x="53" y="466"/>
      <point x="61" y="446"/>
      <point x="70" y="426" type="curve"/>
      <point x="137" y="444" type="line"/>
      <point x="134" y="456"/>
      <point x="131" y="469"/>
      <point x="131" y="485" type="curve" smooth="yes"/>
      <point x="131" y="519"/>
      <point x="144" y="536"/>
      <point x="169" y="536" type="curve" smooth="yes"/>
      <point x="207" y="536"/>
      <point x="220" y="487"/>
      <point x="226" y="437" type="curve"/>
      <point x="256" y="442" type="line"/>
      <point x="249" y="442" type="line" smooth="yes"/>
      <point x="123" y="442"/>
      <point x="35" y="368"/>
      <point x="35" y="239" type="curve" smooth="yes"/>
      <point x="35" y="86"/>
      <point x="119" y="-10"/>
    </contour>
  </outline>
</glyph>
<glyph name="sasinh" format="2">
  <advance width="596"/>
  <unicode hex="0DC3"/>
  <outline>
    <contour>
      <point x="430" y="-10" type="curve" smooth="yes"/>
      <point x="515" y="-10"/>
      <point x="561" y="69"/>
      <point x="561" y="203" type="curve" smooth="yes"/>
      <point x="561" y="364"/>
      <point x="455" y="442"/>
      <point x="340" y="442" type="curve"/>
      <point x="371" y="438" type="line"/>
      <point x="378" y="496"/>
      <point x="398" y="531"/>
      <point x="438" y="531" type="curve" smooth="yes"/>
      <point x="467" y="531"/>
      <point x="487" y="514"/>
      <point x="487" y="465" type="curve" smooth="yes"/>
      <point x="487" y="447"/>
      <point x="483" y="425"/>
      <point x="480" y="414" type="curve"/>
      <point x="528" y="403" type="line"/>
      <point x="535" y="425"/>
      <point x="540" y="449"/>
      <point x="540" y="482" type="curve" smooth="yes"/>
      <point x="540" y="544"/>
      <point x="509" y="589"/>
      <point x="445" y="589" type="curve" smooth="yes"/>
      <point x="367" y="589"/>
      <point x="319" y="514"/>
      <point x="319" y="404" type="curve" smooth="yes"/>
      <point x="319" y="392" type="line"/>
      <point x="325" y="392" type="line" smooth="yes"/>
      <point x="452" y="392"/>
      <point x="505" y="314"/>
      <point x="505" y="213" type="curve" smooth="yes"/>
      <point x="505" y="132"/>
      <point x="477" y="90"/>
      <point x="422" y="90" type="curve" smooth="yes"/>
      <point x="360" y="90"/>
      <point x="337" y="129"/>
      <point x="327" y="199" type="curve"/>
      <point x="277" y="199" type="line"/>
      <point x="266" y="136"/>
      <point x="242" y="90"/>
      <point x="183" y="90" type="curve" smooth="yes"/>
      <point x="130" y="90"/>
      <point x="99" y="127"/>
      <point x="99" y="210" type="curve" smooth="yes"/>
      <point x="99" y="306"/>
      <point x="152" y="380"/>
      <point x="252" y="400" type="curve"/>
      <point x="175" y="392" type="line"/>
      <point x="292" y="392" type="line"/>
      <point x="292" y="418" type="line" smooth="yes"/>
      <point x="292" y="523"/>
      <point x="247" y="589"/>
      <point x="168" y="589" type="curve" smooth="yes"/>
      <point x="105" y="589"/>
      <point x="68" y="555"/>
      <point x="68" y="490" type="curve" smooth="yes"/>
      <point x="68" y="482"/>
      <point x="70" y="463"/>
      <point x="74" y="452" type="curve"/>
      <point x="149" y="459" type="line"/>
      <point x="147" y="465"/>
      <point x="146" y="477"/>
      <point x="146" y="483" type="curve" smooth="yes"/>
      <point x="146" y="519"/>
      <point x="159" y="536"/>
      <point x="184" y="536" type="curve" smooth="yes"/>
      <point x="222" y="536"/>
      <point x="234" y="487"/>
      <point x="241" y="442" type="curve"/>
      <point x="25" y="442" type="line"/>
      <point x="25" y="392" type="line"/>
      <point x="58" y="392" type="line" smooth="yes"/>
      <point x="88" y="392"/>
      <point x="137" y="392"/>
      <point x="173" y="397" type="curve"/>
      <point x="195" y="425" type="line"/>
      <point x="98" y="389"/>
      <point x="41" y="302"/>
      <point x="41" y="181" type="curve" smooth="yes"/>
      <point x="41" y="57"/>
      <point x="90" y="-10"/>
      <point x="172" y="-10" type="curve" smooth="yes"/>
      <point x="248" y="-10"/>
      <point x="285" y="47"/>
      <point x="302" y="126" type="curve"/>
      <point x="315" y="45"/>
      <point x="354" y="-10"/>
    </contour>
  </outline>
</glyph>
<glyph name="hasinh" format="2">
  <advance width="690"/>
  <unicode hex="0DC4"/>
  <outline>
    <contour>
      <point x="457" y="-8" type="curve" smooth="yes"/>
      <point x="566" y="-8"/>
      <point x="654" y="61"/>
      <point x="654" y="290" type="curve" smooth="yes"/>
      <point x="654" y="478"/>
      <point x="579" y="589"/>
      <point x="470" y="589" type="curve" smooth="yes"/>
      <point x="369" y="589"/>
      <point x="303" y="496"/>
      <point x="272" y="292" type="curve"/>
      <point x="305" y="282" type="line"/>
      <point x="310" y="283"/>
      <point x="315" y="285"/>
      <point x="323" y="285" type="curve" smooth="yes"/>
      <point x="347" y="285"/>
      <point x="363" y="267"/>
      <point x="363" y="225" type="curve" smooth="yes"/>
      <point x="363" y="159"/>
      <point x="329" y="90"/>
      <point x="231" y="90" type="curve" smooth="yes"/>
      <point x="134" y="90"/>
      <point x="91" y="149"/>
      <point x="91" y="243" type="curve" smooth="yes"/>
      <point x="91" y="357"/>
      <point x="164" y="392"/>
      <point x="256" y="392" type="curve" smooth="yes"/>
      <point x="277" y="392" type="line"/>
      <point x="277" y="418" type="line" smooth="yes"/>
      <point x="277" y="523"/>
      <point x="232" y="589"/>
      <point x="153" y="589" type="curve" smooth="yes"/>
      <point x="90" y="589"/>
      <point x="53" y="555"/>
      <point x="53" y="495" type="curve" smooth="yes"/>
      <point x="53" y="466"/>
      <point x="61" y="446"/>
      <point x="70" y="426" type="curve"/>
      <point x="137" y="444" type="line"/>
      <point x="134" y="456"/>
      <point x="131" y="469"/>
      <point x="131" y="485" type="curve" smooth="yes"/>
      <point x="131" y="519"/>
      <point x="144" y="536"/>
      <point x="169" y="536" type="curve" smooth="yes"/>
      <point x="207" y="536"/>
      <point x="220" y="487"/>
      <point x="226" y="437" type="curve"/>
      <point x="256" y="442" type="line"/>
      <point x="249" y="442" type="line" smooth="yes"/>
      <point x="123" y="442"/>
      <point x="35" y="370"/>
      <point x="35" y="230" type="curve" smooth="yes"/>
      <point x="35" y="88"/>
      <point x="107" y="-10"/>
      <point x="230" y="-10" type="curve" smooth="yes"/>
      <point x="366" y="-10"/>
      <point x="419" y="103"/>
      <point x="419" y="210" type="curve" smooth="yes"/>
      <point x="419" y="298"/>
      <point x="379" y="334"/>
      <point x="321" y="334" type="curve" smooth="yes"/>
      <point x="310" y="334"/>
      <point x="301" y="332"/>
      <point x="292" y="329" type="curve"/>
      <point x="324" y="317" type="line"/>
      <point x="349" y="426"/>
      <point x="387" y="504"/>
      <point x="463" y="504" type="curve" smooth="yes"/>
      <point x="543" y="504"/>
      <point x="591" y="416"/>
      <point x="591" y="263" type="curve" smooth="yes"/>
      <point x="591" y="118"/>
      <point x="549" y="43"/>
      <point x="458" y="43" type="curve" smooth="yes"/>
      <point x="438" y="43"/>
      <point x="419" y="44"/>
      <point x="402" y="49" type="curve"/>
      <point x="393" y="-2" type="line"/>
      <point x="416" y="-7"/>
      <point x="436" y="-8"/>
    </contour>
  </outline>
</glyph>
<glyph name="llasinh" format="2">
  <advance width="587"/>
  <unicode hex="0DC5"/>
  <outline>
    <contour>
      <point x="305" y="-256" type="curve" smooth="yes"/>
      <point x="483" y="-256"/>
      <point x="575" y="-137"/>
      <point x="575" y="48" type="curve" smooth="yes"/>
      <point x="575" y="63"/>
      <point x="575" y="70"/>
      <point x="574" y="80" type="curve"/>
      <point x="520" y="78" type="line"/>
      <point x="521" y="69"/>
      <point x="521" y="57"/>
      <point x="521" y="51" type="curve" smooth="yes"/>
      <point x="521" y="-102"/>
      <point x="454" y="-186"/>
      <point x="322" y="-186" type="curve" smooth="yes"/>
      <point x="171" y="-186"/>
      <point x="106" y="-82"/>
      <point x="106" y="83" type="curve" smooth="yes"/>
      <point x="106" y="280"/>
      <point x="208" y="392"/>
      <point x="428" y="392" type="curve" smooth="yes"/>
      <point x="530" y="392" type="line"/>
      <point x="530" y="411" type="line" smooth="yes"/>
      <point x="530" y="523"/>
      <point x="486" y="589"/>
      <point x="416" y="589" type="curve" smooth="yes"/>
      <point x="364" y="589"/>
      <point x="336" y="556"/>
      <point x="324" y="508" type="curve"/>
      <point x="356" y="512" type="line"/>
      <point x="347" y="544"/>
      <point x="325" y="589"/>
      <point x="271" y="589" type="curve" smooth="yes"/>
      <point x="199" y="589"/>
      <point x="147" y="519"/>
      <point x="147" y="377" type="curve" smooth="yes"/>
      <point x="147" y="357"/>
      <point x="149" y="334"/>
      <point x="151" y="317" type="curve" smooth="yes"/>
      <point x="162" y="186"/>
      <point x="217" y="89"/>
      <point x="343" y="89" type="curve" smooth="yes"/>
      <point x="454" y="89"/>
      <point x="513" y="161"/>
      <point x="530" y="301" type="curve"/>
      <point x="484" y="307" type="line"/>
      <point x="466" y="204"/>
      <point x="421" y="169"/>
      <point x="345" y="169" type="curve" smooth="yes"/>
      <point x="254" y="169"/>
      <point x="200" y="238"/>
      <point x="200" y="353" type="curve" smooth="yes"/>
      <point x="200" y="382" type="line" smooth="yes"/>
      <point x="200" y="478"/>
      <point x="229" y="536"/>
      <point x="266" y="536" type="curve" smooth="yes"/>
      <point x="297" y="536"/>
      <point x="310" y="510"/>
      <point x="311" y="464" type="curve"/>
      <point x="380" y="464" type="line"/>
      <point x="382" y="511"/>
      <point x="394" y="536"/>
      <point x="423" y="536" type="curve" smooth="yes"/>
      <point x="455" y="536"/>
      <point x="474" y="503"/>
      <point x="479" y="442" type="curve"/>
      <point x="428" y="442" type="line" smooth="yes"/>
      <point x="184" y="442"/>
      <point x="27" y="312"/>
      <point x="27" y="73" type="curve" smooth="yes"/>
      <point x="27" y="-92"/>
      <point x="93" y="-256"/>
    </contour>
  </outline>
</glyph>
<glyph name="fasinh" format="2">
  <advance width="607"/>
  <unicode hex="0DC6"/>
  <outline>
    <contour>
      <point x="392" y="-10" type="curve" smooth="yes"/>
      <point x="509" y="-10"/>
      <point x="568" y="90"/>
      <point x="568" y="291" type="curve" smooth="yes"/>
      <point x="568" y="473"/>
      <point x="513" y="589"/>
      <point x="419" y="589" type="curve" smooth="yes"/>
      <point x="355" y="589"/>
      <point x="321" y="538"/>
      <point x="304" y="461" type="curve"/>
      <point x="288" y="532"/>
      <point x="257" y="589"/>
      <point x="191" y="589" type="curve" smooth="yes"/>
      <point x="93" y="589"/>
      <point x="39" y="467"/>
      <point x="39" y="290" type="curve" smooth="yes"/>
      <point x="39" y="92"/>
      <point x="92" y="-10"/>
      <point x="218" y="-10" type="curve" smooth="yes"/>
      <point x="237" y="-10"/>
      <point x="250" y="-9"/>
      <point x="256" y="-7" type="curve"/>
      <point x="251" y="44" type="line"/>
      <point x="242" y="42"/>
      <point x="230" y="42"/>
      <point x="221" y="42" type="curve" smooth="yes"/>
      <point x="130" y="42"/>
      <point x="98" y="125"/>
      <point x="98" y="276" type="curve" smooth="yes"/>
      <point x="98" y="431"/>
      <point x="140" y="498"/>
      <point x="196" y="498" type="curve" smooth="yes"/>
      <point x="245" y="498"/>
      <point x="270" y="448"/>
      <point x="278" y="360" type="curve"/>
      <point x="328" y="360" type="line"/>
      <point x="338" y="459"/>
      <point x="371" y="498"/>
      <point x="414" y="498" type="curve" smooth="yes"/>
      <point x="473" y="498"/>
      <point x="509" y="425"/>
      <point x="509" y="277" type="curve" smooth="yes"/>
      <point x="509" y="133"/>
      <point x="475" y="42"/>
      <point x="391" y="42" type="curve" smooth="yes"/>
      <point x="378" y="42"/>
      <point x="366" y="43"/>
      <point x="353" y="46" type="curve"/>
      <point x="345" y="-6" type="line"/>
      <point x="355" y="-8"/>
      <point x="373" y="-10"/>
    </contour>
  </outline>
</glyph>
<glyph name="viramasinh" format="2">
  <unicode hex="0DCA"/>
  <outline>
    <contour>
      <point x="-192" y="963" type="curve" smooth="yes"/>
      <point x="-204" y="963"/>
      <point x="-224" y="959"/>
      <point x="-234" y="955" type="curve"/>
      <point x="-227" y="909" type="line"/>
      <point x="-224" y="910"/>
      <point x="-214" y="912"/>
      <point x="-205" y="912" type="curve" smooth="yes"/>
      <point x="-181" y="912"/>
      <point x="-165" y="902"/>
      <point x="-165" y="854" type="curve" smooth="yes"/>
      <point x="-165" y="489" type="line"/>
      <point x="-117" y="489" type="line"/>
      <point x="-117" y="728" type="line" smooth="yes"/>
      <point x="-117" y="758"/>
      <point x="-118" y="789"/>
      <point x="-120" y="819" type="curve"/>
      <point x="-117" y="836" type="line"/>
      <point x="-117" y="901" type="line"/>
      <point x="-125" y="901" type="line"/>
      <point x="-129" y="937"/>
      <point x="-152" y="963"/>
    </contour>
    <contour>
      <point x="-74" y="963" type="curve" smooth="yes"/>
      <point x="-104" y="963"/>
      <point x="-134" y="943"/>
      <point x="-150" y="902" type="curve"/>
      <point x="-119" y="878" type="line"/>
      <point x="-114" y="906"/>
      <point x="-98" y="919"/>
      <point x="-83" y="919" type="curve" smooth="yes"/>
      <point x="-61" y="919"/>
      <point x="-51" y="899"/>
      <point x="-51" y="865" type="curve" smooth="yes"/>
      <point x="-51" y="832"/>
      <point x="-62" y="814"/>
      <point x="-82" y="814" type="curve" smooth="yes"/>
      <point x="-104" y="814"/>
      <point x="-116" y="828"/>
      <point x="-121" y="856" type="curve"/>
      <point x="-139" y="809" type="line"/>
      <point x="-123" y="776"/>
      <point x="-96" y="769"/>
      <point x="-74" y="769" type="curve" smooth="yes"/>
      <point x="-23" y="769"/>
      <point x="0" y="810"/>
      <point x="0" y="866" type="curve" smooth="yes"/>
      <point x="0" y="922"/>
      <point x="-23" y="963"/>
    </contour>
  </outline>
</glyph>
<glyph name="aavowelsignsinh" format="2">
  <advance width="307"/>
  <unicode hex="0DCF"/>
  <outline>
    <contour>
      <point x="269" y="248" type="curve" smooth="yes"/>
      <point x="269" y="441"/>
      <point x="204" y="504"/>
      <point x="126" y="504" type="curve" smooth="yes"/>
      <point x="68" y="504"/>
      <point x="34" y="469"/>
      <point x="2" y="409" type="curve"/>
      <point x="49" y="388" type="line"/>
      <point x="68" y="432"/>
      <point x="86" y="455"/>
      <point x="117" y="455" type="curve" smooth="yes"/>
      <point x="157" y="455"/>
      <point x="185" y="407"/>
      <point x="185" y="248" type="curve" smooth="yes"/>
      <point x="185" y="87"/>
      <point x="157" y="39"/>
      <point x="116" y="39" type="curve" smooth="yes"/>
      <point x="81" y="39"/>
      <point x="65" y="67"/>
      <point x="48" y="110" type="curve"/>
      <point x="0" y="88" type="line"/>
      <point x="31" y="24"/>
      <point x="63" y="-10"/>
      <point x="125" y="-10" type="curve" smooth="yes"/>
      <point x="204" y="-10"/>
      <point x="269" y="53"/>
    </contour>
  </outline>
</glyph>
<glyph name="aevowelsignsinh" format="2">
  <advance width="255"/>
  <unicode hex="0DD0"/>
  <outline>
    <contour>
      <point x="14" y="391" type="line"/>
      <point x="14" y="340" type="line"/>
      <point x="127" y="340" type="line" smooth="yes"/>
      <point x="153" y="340"/>
      <point x="182" y="341"/>
      <point x="199" y="343" type="curve"/>
      <point x="189" y="350" type="line"/>
      <point x="70" y="216"/>
      <point x="19" y="108"/>
      <point x="19" y="-1" type="curve" smooth="yes"/>
      <point x="19" y="-132"/>
      <point x="86" y="-180"/>
      <point x="172" y="-180" type="curve" smooth="yes"/>
      <point x="216" y="-180"/>
      <point x="251" y="-167"/>
      <point x="284" y="-146" type="curve"/>
      <point x="262" y="-105" type="line"/>
      <point x="237" y="-122"/>
      <point x="217" y="-127"/>
      <point x="196" y="-127" type="curve" smooth="yes"/>
      <point x="132" y="-127"/>
      <point x="100" y="-84"/>
      <point x="100" y="5" type="curve" smooth="yes"/>
      <point x="100" y="127"/>
      <point x="149" y="225"/>
      <point x="238" y="339" type="curve"/>
      <point x="213" y="391" type="line"/>
    </contour>
  </outline>
</glyph>
